<?xml version="1.0" encoding="UTF-8" standalone="no"?>
<svg
   width="159.37109"
   zoomAndPan="magnify"
   viewBox="0 0 119.52832 243.41107"
   height="324.5481"
   preserveAspectRatio="xMidYMid"
   version="1.0"
   id="svg295"
   xmlns="http://www.w3.org/2000/svg"
   xmlns:svg="http://www.w3.org/2000/svg">
  <defs
     id="defs24">
    <clipPath
       id="1f0cb38eba">
      <path
         d="m 761.42187,686.15234 h 14.12891 V 695 h -14.12891 z m 0,0"
         clip-rule="nonzero"
         id="path18" />
    </clipPath>
  </defs>
  <g
     id="g297"
     transform="translate(-656.02246,-602.31049)">
    <path
       fill="#f8d1a5"
       d="m 718.84766,648.4375 c 1.76171,5.15625 11.65625,25.66797 13.02734,28.03125 1.37109,2.35937 6.22266,2.85937 6.97266,-3.36328 0.75,-6.22656 -3.1836,-22.82031 -7.45704,-29.65235 -4.26953,-6.83203 -15.75,-4.375 -12.54296,4.98438"
       fill-opacity="1"
       fill-rule="nonzero"
       id="path122" />
    <path
       fill="#f8d1a5"
       d="m 734.51562,678.41016 c 5.15235,2.1289 26.17188,11.375 29.67579,12.73046 3.50781,1.35547 4.875,-2.44921 1.6289,-4.26562 -3.24609,-1.82031 -20.32812,-13.47266 -26.88281,-15.49219 -6.55859,-2.02344 -10.57422,4.48438 -4.42188,7.02735"
       fill-opacity="1"
       fill-rule="nonzero"
       id="path123" />
    <path
       fill="#f8d1a5"
       d="m 762.34375,686.22656 c 5.34766,-1.36328 6.44141,-1.13281 7.90234,0.21875 1.46094,1.35547 0.83203,3.52735 -1.66797,2.27735 -2.5,-1.2461 -6.23437,-2.4961 -6.23437,-2.4961"
       fill-opacity="1"
       fill-rule="nonzero"
       id="path124" />
    <g
       clip-path="url(#1f0cb38eba)"
       id="g125">
      <path
         fill="#f8d1a5"
         d="m 761.81641,690.16406 c 1.75,0.72656 2.10156,2.67969 5.10937,4.13281 3.00391,1.45704 8.64063,-0.28125 8.625,-3.12109 -0.0195,-2.83984 -8.84766,-4.25391 -10.65625,-4.85156 -1.80859,-0.60156 -2.9375,3.58594 -2.9375,3.58594 l -0.14062,0.2539"
         fill-opacity="1"
         fill-rule="nonzero"
         id="path125" />
    </g>
    <path
       fill="#e9a684"
       d="m 731.88672,664.35937 c 0.9375,-8.97265 0.29297,-17.22656 -3.90625,-23.67968 0.26953,0.0781 0.54687,0.16406 0.83203,0.26172 0.97656,0.6289 1.89062,1.40625 2.57812,2.51171 2.48438,3.96875 4.82422,11.22266 6.22657,17.83985 -1.60938,1.1875 -3.72657,2.25781 -5.73047,3.0664"
       fill-opacity="1"
       fill-rule="nonzero"
       id="path126" />
    <path
       fill="#816baf"
       d="m 720.40234,638.66797 c -7.85547,8.91797 2.40625,24.1875 3.29297,25.25781 0.89063,1.07422 14.64844,-3.63672 14.51563,-8.11328 -0.13282,-4.47656 -4.42969,-13.19141 -9.36719,-15.84375 -4.93359,-2.65234 -8.44141,-1.30078 -8.44141,-1.30078"
       fill-opacity="1"
       fill-rule="nonzero"
       id="path127" />
    <path
       fill="#3f515c"
       d="m 749.20312,836.54687 c -0.625,4.47657 1.04688,7.4375 3.3125,8.87891 2.26563,1.44531 18.46094,-2.76953 21.28907,-4.80469 2.83203,-2.03125 -1.81641,-6.75 -9.34766,-4.83203 -5.18359,1.31641 -5.54297,0.80469 -8.49219,-0.0781 -2.94531,-0.88282 -6.76172,0.83593 -6.76172,0.83593"
       fill-opacity="1"
       fill-rule="nonzero"
       id="path128" />
    <path
       fill="#5a7281"
       d="m 699.85937,690.69141 c -8.55859,13.10546 -4.55078,61.39843 -3.32812,66.00781 1.21875,4.60937 14.75781,7.53125 16.5625,0.8789 1.80469,-6.65234 14.94141,-42.3164 18.66016,-54.49609 3.72265,-12.17578 -23.46875,-25.29687 -31.89454,-12.39062"
       fill-opacity="1"
       fill-rule="nonzero"
       id="path129" />
    <path
       fill="#ffffff"
       d="m 712.89062,758.17187 c 0.004,-0.004 0.004,-0.008 0.008,-0.0117 -0.004,0.004 -0.004,0.008 -0.008,0.0117 m 0.008,-0.0156 c 0.004,0 0.004,-0.004 0.004,-0.004 0,0 0,0.004 -0.004,0.004"
       fill-opacity="1"
       fill-rule="nonzero"
       id="path130" />
    <path
       fill="#809099"
       d="m 712.89062,758.17187 c 0.0469,-0.14453 0.0859,-0.29296 0.1211,-0.4375 0.0117,0 0.0234,0 0.0391,0 -0.043,0.14454 -0.0937,0.28125 -0.14844,0.41797 0,0 0,0.004 -0.004,0.004 0,0 0,0.004 0,0.004 -0.004,0.004 -0.004,0.008 -0.008,0.0117 m 2.39063,-7.3789 -3.14453,-1.33203 c 0.83984,-2.46094 1.84375,-5.34375 2.9414,-8.47266 0.62891,0.88281 1.25782,1.74609 1.875,2.58594 0.17969,0.28906 0.35547,0.57031 0.52735,0.85156 -0.8125,2.32813 -1.5586,4.48047 -2.19922,6.36719"
       fill-opacity="1"
       fill-rule="nonzero"
       id="path131" />
    <path
       fill="#455665"
       d="m 708.25391,731.01953 c -3.75,-1.58984 -7.65235,-3.3125 -10.16016,-4.42578 0.008,-0.61328 0.0117,-1.22656 0.0195,-1.83594 2.19922,0.97656 5.34766,2.36328 8.51953,3.72266 0.53125,0.84765 1.07422,1.69531 1.6211,2.53906"
       fill-opacity="1"
       fill-rule="nonzero"
       id="path132" />
    <path
       fill="#492f66"
       d="m 695.13672,723.42578 c 0,0 20.33984,9.18359 23.125,9.53516 2.78515,0.35547 0.38281,-8.32032 0.38281,-8.32032 l -25.14062,-6.73828 1.63281,5.52344"
       fill-opacity="1"
       fill-rule="nonzero"
       id="path133" />
    <path
       fill="#647c8b"
       d="m 695.15625,701.86719 c 0.16797,15.65234 30.33594,53.55859 33.91016,56.71093 3.57421,3.15235 16.44921,-1.94921 14.25781,-8.48437 -2.19922,-6.53516 -11.09766,-43.48828 -14.77344,-55.67969 -3.67187,-12.1875 -33.5625,-7.96875 -33.39453,7.45313"
       fill-opacity="1"
       fill-rule="nonzero"
       id="path134" />
    <path
       fill="#3f515c"
       d="m 661.34766,815.29687 c -4.00391,2.07813 -5.45313,5.15625 -5.31641,7.83985 0.13281,2.6875 12.94141,13.46094 16.23437,14.59375 3.29688,1.13672 4.44922,-5.39063 -1.46875,-10.42578 -4.07421,-3.46875 -3.86328,-4.0586 -4.85156,-6.97657 -0.98828,-2.91406 -4.59765,-5.03125 -4.59765,-5.03125"
       fill-opacity="1"
       fill-rule="nonzero"
       id="path135" />
    <path
       fill="#435561"
       d="m 717.05469,710.80469 c -2.35157,0 -4.76563,-0.10157 -7.10547,-0.29688 -0.35156,-0.78125 -0.69531,-1.54297 -1.03125,-2.27734 2.66797,0.2539 5.46094,0.39062 8.17187,0.39062 6.23047,0 12.00782,-0.71875 14.71875,-2.39062 0.15625,0.58984 0.3125,1.1875 0.47266,1.79687 -2.41406,1.94532 -8.5625,2.77735 -15.22656,2.77735"
       fill-opacity="1"
       fill-rule="nonzero"
       id="path136" />
    <path
       fill="#816baf"
       d="m 697.48828,641.14062 c -5.6875,6.78907 -4.51172,19.52735 -1.27344,30.22266 2.83985,9.38281 -0.38672,25.82422 -1.86328,31.71094 -1.48047,5.89062 40.28516,8.5664 39.04688,0.48047 -1.23828,-8.08985 -5.21875,-17.23438 -2.65625,-31.39063 2.24609,-12.39062 2.66406,-24.05859 -3.41016,-32.42578 -3.32812,-4.58203 -25.98828,-3.19922 -29.84375,1.40234"
       fill-opacity="1"
       fill-rule="nonzero"
       id="path137" />
    <path
       fill="#e3e0e7"
       d="m 696.59766,691.07812 c 0,-0.004 -0.004,-0.004 -0.004,-0.004 0.38672,-2.92188 0.67578,-6.03125 0.73828,-9.0586 -0.0625,3.02735 -0.34766,6.13672 -0.73437,9.0625 m -0.33594,-19.54687 c 0,-0.004 0,-0.004 0,-0.008 0,0.004 0,0.004 0,0.008 m -0.004,-0.0273 c -0.004,0 -0.004,-0.004 -0.004,-0.008 0,0.004 0,0.008 0.004,0.008 m -0.008,-0.0274 c 0,0 -0.004,-0.004 -0.004,-0.004 0,0 0.004,0.004 0.004,0.004 m -0.0117,-0.0273 c 0,-0.004 0,-0.008 0,-0.008 0,0 0,0.004 0,0.008 m -0.008,-0.0273 c 0,-0.004 0,-0.004 0,-0.008 0,0.004 0,0.004 0,0.008 m -0.008,-0.0273 c 0,0 0,-0.004 -0.004,-0.008 0.004,0.004 0.004,0.008 0.004,0.008 m -0.008,-0.0312 c -0.008,-0.0195 -0.0117,-0.0391 -0.0156,-0.0586 0.004,0.0195 0.008,0.0391 0.0156,0.0586 m -0.0234,-0.0664 c 0,-0.004 0,-0.008 -0.004,-0.0156 0.004,0.008 0.004,0.0117 0.004,0.0156"
       fill-opacity="1"
       fill-rule="nonzero"
       id="path138" />
    <path
       fill="#775fa4"
       d="m 704.88672,692.35156 c -2.8086,-0.30469 -5.26953,-0.63672 -7.05078,-0.99219 0,-0.004 0,-0.004 0,-0.004 -0.45313,-0.0898 -0.8711,-0.1836 -1.23828,-0.27735 0.38671,-2.92578 0.67187,-6.03515 0.73437,-9.0625 0.082,-3.8125 -0.19141,-7.49218 -1.07031,-10.48437 0,-0.004 0,-0.004 0,-0.008 0,-0.004 -0.004,-0.0117 -0.004,-0.0195 -0.004,0 -0.004,-0.004 -0.004,-0.008 0,-0.004 -0.004,-0.0117 -0.004,-0.0195 0,0 -0.004,-0.004 -0.004,-0.004 -0.004,-0.008 -0.004,-0.0195 -0.008,-0.0234 0,-0.004 0,-0.008 0,-0.008 -0.004,-0.008 -0.004,-0.0156 -0.008,-0.0195 0,-0.004 0,-0.004 0,-0.008 -0.004,-0.004 -0.004,-0.0117 -0.008,-0.0195 0,0 0,-0.004 -0.004,-0.008 0,-0.008 -0.004,-0.0156 -0.004,-0.0234 -0.008,-0.0195 -0.0117,-0.0391 -0.0156,-0.0586 -0.004,0 -0.004,-0.004 -0.008,-0.008 0,-0.004 0,-0.008 -0.004,-0.0156 -0.4375,-1.45703 -0.83203,-2.94922 -1.17188,-4.46094 0.0781,0.34766 0.16407,0.69531 0.25,1.04297 0.57422,-0.50781 1.14454,-1 1.71485,-1.52734 3.02734,5.22265 7.07031,13.66015 6.26172,20.40234 -0.26563,2.20313 0.41015,4.05469 1.64453,5.61328"
       fill-opacity="1"
       fill-rule="nonzero"
       id="path139" />
    <path
       fill="#647c8b"
       d="m 728.50391,755.75 c -5.51172,13.05859 19.38671,79.96094 20.28906,81.54687 0.90234,1.58204 7.26953,0.80469 7.77344,-1.85937 0.5039,-2.66406 -11.27735,-77.72656 -13.00391,-84.09766 -1.72656,-6.375 -10.78125,-5.73047 -15.05859,4.41016"
       fill-opacity="1"
       fill-rule="nonzero"
       id="path140" />
    <path
       fill="#5a7281"
       d="m 698.63672,751.77734 c -16.66016,8.39453 -38.34375,62.83594 -38.84375,64.58985 -0.50391,1.7539 4.50781,5.76562 6.76172,4.26172 2.2539,-1.50391 42.41797,-55.47266 45.76172,-61.16407 3.34375,-5.69531 -3.85938,-12.64062 -13.67969,-7.6875"
       fill-opacity="1"
       fill-rule="nonzero"
       id="path141" />
    <path
       fill="#657d8c"
       d="m 665.35547,820.96094 c -0.0469,0 -0.0977,0 -0.14453,-0.004 0.0469,0.004 0.0976,0.004 0.14453,0.004 0.12109,0 0.23828,-0.008 0.35547,-0.0234 -0.11719,0.0156 -0.23438,0.0234 -0.35547,0.0234 m -0.14453,-0.004 c -0.004,0 -0.004,0 -0.004,0 0,0 0,0 0.004,0"
       fill-opacity="1"
       fill-rule="nonzero"
       id="path142" />
    <path
       fill="#f2fafe"
       d="m 712.32422,759.44922 c 0,0 0.004,-0.004 0.004,-0.004 0,0 -0.004,0.004 -0.004,0.004 m 0.008,-0.0117 c 0.004,-0.004 0.004,-0.008 0.004,-0.0117 0,0.008 0,0.008 -0.004,0.0117 m 0.0117,-0.0195 c 0,0 0,0 0,-0.004 0,0.004 0,0.004 0,0.004 m 0.0117,-0.0195 c 0,0 0,-0.004 0,-0.004 0,0 0,0.004 0,0.004 m 0.008,-0.0117 c 0,-0.004 0,-0.004 0,-0.004 0,0 0,0 0,0.004 m 0.008,-0.0195 v 0"
       fill-opacity="1"
       fill-rule="nonzero"
       id="path143" />
    <path
       fill="#8198a6"
       d="m 665.35547,820.96094 c -0.0469,0 -0.0977,0 -0.14453,-0.004 -0.004,0 -0.004,0 -0.004,0 -1.77734,-0.0859 -4.03516,-1.70312 -4.98047,-3.14062 1.10547,0.86718 2.46875,1.54687 3.60938,1.54687 0.4375,0 0.83984,-0.0977 1.18359,-0.32812 0.35156,-0.23438 1.62891,-1.7461 3.54297,-4.15625 0.58203,0.53515 1.16797,1.01562 1.71094,1.36328 0.96484,-1.21485 2.05468,-2.60547 3.30078,-4.21875 -0.34766,-0.375 -0.90625,-0.92969 -1.55469,-1.5586 11.40625,-14.74609 33.05078,-43.97656 37.97266,-51.35937 0.85547,0.1875 1.64062,0.3164 2.3164,0.36719 l 0.008,-0.008 c -0.0234,0.0391 -0.0508,0.0859 -0.0781,0.13282 -3.85156,6.34765 -43.44531,59.53906 -45.68359,61.03125 -0.25391,0.16796 -0.53907,0.26953 -0.84375,0.30859 -0.11719,0.0156 -0.23438,0.0234 -0.35547,0.0234"
       fill-opacity="1"
       fill-rule="nonzero"
       id="path144" />
    <path
       fill="#5f4385"
       d="m 721.98047,705.67969 c -3.54297,0 -8.21875,-0.17188 -14.49219,-0.60157 -0.1875,-0.41406 -0.37109,-0.8125 -0.54687,-1.19921 6.75,0.48046 11.71484,0.66796 15.43359,0.66796 1.22266,0 2.3125,-0.0195 3.28125,-0.0586 3.5625,-0.13672 5.5625,-0.50391 6.94141,-0.92187 0.27734,-0.0859 0.52734,-0.17188 0.76171,-0.25782 0.0117,0.082 0.0273,0.16407 0.0391,0.2461 0.043,0.28125 -0.082,0.51953 -0.14063,0.77343 -1.71875,0.67969 -4.28125,1.35157 -11.27734,1.35157"
       fill-opacity="1"
       fill-rule="nonzero"
       id="path145" />
    <path
       fill="#bdbcbb"
       d="m 736.63672,724.94922 c -0.1836,-0.72656 -0.3711,-1.45703 -0.5586,-2.19141 0.1875,0.73047 0.375,1.46485 0.5586,2.19141"
       fill-opacity="1"
       fill-rule="nonzero"
       id="path146" />
    <path
       fill="#495b6c"
       d="m 717.66406,727.63281 c -0.32031,-0.71484 -0.64062,-1.42578 -0.96094,-2.14062 4.58594,-0.63672 15.16797,-2.14063 19.375,-2.73438 0.1875,0.73438 0.375,1.46485 0.5586,2.19141 -3.41797,0.48437 -13.72266,1.94922 -18.97266,2.68359"
       fill-opacity="1"
       fill-rule="nonzero"
       id="path147" />
    <path
       fill="#492f66"
       d="m 711.84375,719.70312 c 0,0 22.70312,-3.5039 24.10547,-3.10156 1.40234,0.39844 1.90234,5.90235 1.90234,5.90235 0,0 -19.0039,2.70312 -22.70703,3.20703 -3.69922,0.5 -3.30078,-6.00782 -3.30078,-6.00782"
       fill-opacity="1"
       fill-rule="nonzero"
       id="path148" />
    <path
       fill="#efe7f5"
       d="m 736.35156,722.71875 c 0.9375,-0.13281 1.49219,-0.21484 1.5,-0.21484 -0.008,0 -0.64062,0.0937 -1.5,0.21484 m 1.5,-0.21484 c -0.008,-0.0547 -0.50781,-5.50782 -1.90234,-5.90235 -0.0742,-0.0234 -0.21485,-0.0312 -0.40625,-0.0312 -0.25391,0 -0.60547,0.0156 -1.03516,0.0469 0.42969,-0.0312 0.78125,-0.0508 1.03516,-0.0508 0.1914,0 0.33203,0.0117 0.40625,0.0312 1.39453,0.39843 1.89453,5.85156 1.90234,5.90625"
       fill-opacity="1"
       fill-rule="nonzero"
       id="path149" />
    <path
       fill="#8488ae"
       d="m 730.63281,717.02734 c 1.57031,-0.1914 2.91797,-0.33593 3.875,-0.41015 -0.95703,0.0742 -2.30469,0.21875 -3.875,0.41015"
       fill-opacity="1"
       fill-rule="nonzero"
       id="path150" />
    <path
       fill="#6c5295"
       d="m 736.35156,722.71875 c -0.28125,-1.61328 -0.78906,-3.60938 -1.61328,-3.84766 -0.0742,-0.0195 -0.21484,-0.0312 -0.40625,-0.0312 -2.40625,0 -13.37109,1.58594 -19.49609,2.5 -0.29688,-0.65625 -0.58985,-1.30859 -0.88282,-1.96093 3.69141,-0.55469 11.42188,-1.70704 16.67969,-2.35157 1.57031,-0.1914 2.91797,-0.33593 3.875,-0.41015 0.42969,-0.0312 0.78125,-0.0469 1.03516,-0.0469 0.1914,0 0.33203,0.008 0.40625,0.0312 1.39453,0.39453 1.89453,5.84766 1.90234,5.90235 -0.008,0 -0.5625,0.082 -1.5,0.21484"
       fill-opacity="1"
       fill-rule="nonzero"
       id="path151" />
    <path
       fill="#bdbcbb"
       d="m 712.31641,759.46484 c 0.004,-0.004 0.004,-0.0117 0.008,-0.0156 -0.004,0.004 -0.004,0.0117 -0.008,0.0156 m 0.0117,-0.0195 c 0,-0.004 0,-0.004 0,-0.004 0.004,0 0.004,-0.004 0.004,-0.004 0,0 0,0.004 -0.004,0.008 m 0.008,-0.0195 c 0,0 0,0 0.004,0 0,0 0,0 0,-0.004 0,0 0,0 0.004,-0.004 -0.004,0.004 -0.004,0.008 -0.008,0.008 m 0.008,-0.0117 c 0.004,-0.004 0.008,-0.0117 0.0117,-0.0156 -0.004,0.004 -0.008,0.0117 -0.0117,0.0156 m 0.0117,-0.0195 c 0.004,0 0.004,-0.004 0.004,-0.004 0,0 0,-0.004 0.004,-0.004 -0.004,0.004 -0.004,0.004 -0.008,0.008 m 0.008,-0.0117 c 0.004,-0.004 0.004,-0.004 0.004,-0.008 0,0 0,0 0,-0.004 0.004,0 0.004,0 0.004,-0.004 -0.004,0.004 -0.004,0.008 -0.008,0.0156 m 0.008,-0.0156 c 0.004,-0.004 0.004,-0.004 0.004,-0.004 0,0 0,-0.004 0.004,-0.004 0.004,-0.008 0.004,-0.0117 0.004,-0.0117 0.004,-0.004 0.004,-0.008 0.008,-0.0117 0,0 0,-0.004 0,-0.004 0.004,-0.008 0.008,-0.008 0.008,-0.0117 0,0 0,-0.004 0,-0.004 0.21093,-0.37891 0.375,-0.75782 0.49218,-1.14454 -0.125,0.40235 -0.29687,0.80079 -0.51953,1.19532"
       fill-opacity="1"
       fill-rule="nonzero"
       id="path152" />
    <path
       fill="#5c6875"
       d="m 712.89062,758.17187 c 0.0469,-0.14453 0.0859,-0.29296 0.1211,-0.4375 -0.0352,0.14454 -0.0742,0.29297 -0.1211,0.4375"
       fill-opacity="1"
       fill-rule="nonzero"
       id="path153" />
    <path
       fill="#455665"
       d="m 712.31641,759.46484 c 0.004,-0.004 0.004,-0.0117 0.008,-0.0156 -0.004,0.004 -0.004,0.0117 -0.008,0.0156 m 0.0117,-0.0234 c 0.004,0 0.004,-0.004 0.004,-0.004 0,0 0,0.004 -0.004,0.004 m 0.0117,-0.0156 c 0,0 0,-0.004 0,-0.004 0,0.004 0,0.004 0,0.004 m 0.0195,-0.0352 c 0,0 0,-0.004 0.004,-0.004 -0.004,0 -0.004,0.004 -0.004,0.004 m 0.008,-0.0156 c 0,0 0,0 0,-0.004 0,0.004 0,0.004 0,0.004 m 0.008,-0.0117 c 0,0 0,-0.004 0.004,-0.004 -0.004,0 -0.004,0.004 -0.004,0.004 m 0.008,-0.0156 c 0.004,-0.004 0.004,-0.008 0.008,-0.0117 -0.004,0.004 -0.004,0.008 -0.008,0.0117 m 0.008,-0.0156 c 0.004,-0.008 0.008,-0.008 0.008,-0.0117 0,0.004 -0.004,0.004 -0.008,0.0117 m 0.008,-0.0156 c 0.28906,-0.51954 0.49218,-1.05079 0.60937,-1.58204 0,0 0,0 0.004,0 -0.0352,0.14454 -0.0742,0.29297 -0.1211,0.4375 -0.11718,0.38672 -0.28125,0.76563 -0.49218,1.14454 m -2.40625,-0.21094 c -3.59766,-0.77735 -8.42578,-2.58594 -11.49219,-4.22266 0.375,-0.36719 0.67969,-0.83203 0.88672,-1.37109 3.3789,1.66406 8.23828,3.40234 11.58984,4.0039 -0.0625,0.11719 -0.125,0.23438 -0.19531,0.35547 -0.16797,0.28907 -0.4375,0.70313 -0.78906,1.23438"
       fill-opacity="1"
       fill-rule="nonzero"
       id="path154" />
    <path
       fill="#b1b7bb"
       d="m 712.32422,759.44922 c 0,0 0.004,-0.004 0.004,-0.008 0,0 0,0 0,0.004 0,0 -0.004,0.004 -0.004,0.004 m 0.008,-0.0117 c 0.004,-0.004 0.004,-0.008 0.008,-0.0117 -0.004,0 -0.004,0 -0.004,0 0,0.004 0,0.008 -0.004,0.0117 m 0.008,-0.0156 c 0.008,-0.008 0.0156,-0.0234 0.0195,-0.0312 0,0 0,0.004 -0.004,0.004 0,0 0,0.004 0,0.004 -0.004,0.004 -0.008,0.0117 -0.0117,0.0156 0,0.004 0,0.004 0,0.004 -0.004,0.004 -0.004,0.004 -0.004,0.004 m 0.0234,-0.0352 c 0,-0.004 0,-0.004 0.004,-0.0117 0,0.004 0,0.004 -0.004,0.008 0,0 0,0 0,0.004 m 0.004,-0.0156 c 0.004,-0.004 0.004,-0.004 0.008,-0.008 0,0 0,0 -0.004,0.004 0,0.004 0,0.004 -0.004,0.004 m 0.0117,-0.0117 c 0.004,-0.008 0.004,-0.0117 0.004,-0.0117 0,0 0,0.004 -0.004,0.0117 m 0.0117,-0.0234 c 0,0 0,-0.004 0,-0.004 0,0 0,0.004 0,0.004 m 0.008,-0.0156 c 0,0 0,-0.004 0,-0.004 0,0 0,0.004 0,0.004"
       fill-opacity="1"
       fill-rule="nonzero"
       id="path155" />
    <path
       fill="#596c7f"
       d="m 712.30859,759.47266 c -0.67578,-0.0508 -1.46093,-0.17969 -2.3164,-0.36719 0.35156,-0.53125 0.62109,-0.94531 0.78906,-1.23438 0.0703,-0.12109 0.13281,-0.23828 0.19531,-0.35547 0.76953,0.13672 1.45703,0.21485 2.03125,0.21875 -0.11719,0.53125 -0.32031,1.0625 -0.60937,1.58204 0,0 0,0.004 0,0.004 0,0.004 -0.004,0.004 -0.008,0.0117 0,0 0,0.004 0,0.004 -0.004,0.004 -0.004,0.008 -0.008,0.0117 0,0 0,0.004 -0.004,0.0117 -0.004,0 -0.004,0.004 -0.004,0.004 -0.004,0.004 -0.004,0.004 -0.008,0.008 0,0.004 0,0.004 0,0.004 -0.004,0.008 -0.004,0.008 -0.004,0.0117 -0.004,0 -0.004,0.004 -0.004,0.004 -0.004,0.008 -0.0117,0.0234 -0.0195,0.0312 0,0 0,0.004 0,0.004 -0.004,0.004 -0.004,0.008 -0.008,0.0117 0,0 0,0.004 -0.004,0.004 0,0.004 -0.004,0.008 -0.004,0.008 -0.004,0.004 -0.004,0.0117 -0.008,0.0156 l -0.008,0.008"
       fill-opacity="1"
       fill-rule="nonzero"
       id="path156" />
    <path
       fill="#492f66"
       d="m 697.64062,743.32422 19.07032,8.07422 c 0,0 -0.33203,3.60937 -2.06641,5.875 -1.73437,2.26562 -19.19531,-4.42578 -19.15234,-6.67188 0.043,-2.24219 2.14843,-7.27734 2.14843,-7.27734"
       fill-opacity="1"
       fill-rule="nonzero"
       id="path157" />
    <path
       fill="#a3c5c9"
       d="m 696.10156,705.46875 c 3.73828,10.33984 25.19141,46.14844 29.69141,51.46875 3.19922,4.54297 5.7539,1.33594 3.15625,-4.21484 -1.3711,-2.92969 -23.80469,-53.17579 -25.00781,-55.25782 -1.19922,-2.08593 -12.48438,-4.83984 -7.83985,8.00391"
       fill-opacity="1"
       fill-rule="nonzero"
       id="path158" />
    <path
       fill="#a3c5c9"
       d="m 693.89844,699.73047 c -2.3711,15.97265 0.33593,48.95312 0.625,50.35547 0.28515,1.40234 3.20703,1.52734 3.47656,0.39843 0.26562,-1.125 -0.59375,-48.23046 1.82812,-50.53515 2.42188,-2.30078 -5.11328,-5.71485 -5.92968,-0.21875"
       fill-opacity="1"
       fill-rule="nonzero"
       id="path159" />
    <path
       fill="#bed8d8"
       d="m 694.49219,749.89062 c -0.40235,-3.02734 -2.83594,-33.85156 -0.67969,-49.57031 -2.15625,15.71485 0.27734,46.53906 0.67969,49.57031"
       fill-opacity="1"
       fill-rule="nonzero"
       id="path160" />
    <path
       fill="#75aab3"
       d="m 694.49219,749.89062 c -0.40235,-3.03125 -2.83594,-33.85546 -0.67969,-49.57031 0.004,-0.0156 0.004,-0.0351 0.008,-0.0547 0.21875,0.2461 0.48828,0.4961 0.81641,0.7461 -1.76563,16.69531 0.67969,46.41015 0.95312,47.74219 0.0156,0.0781 0.043,0.15625 0.0742,0.22656 -0.4414,0.19922 -0.83984,0.51172 -1.17187,0.91015"
       fill-opacity="1"
       fill-rule="nonzero"
       id="path161" />
    <path
       fill="#86a2ac"
       d="m 728.97656,752.78516 v 0 m -0.008,-0.0195 c 0,0 0,0 -0.004,-0.004 0.004,0.004 0.004,0.004 0.004,0.004"
       fill-opacity="1"
       fill-rule="nonzero"
       id="path162" />
    <path
       fill="#b0d4d7"
       d="m 729.03125,752.90625 c -0.42969,-0.22266 -0.89063,-0.34375 -1.35938,-0.34375 -0.16015,0 -0.3164,0.0156 -0.47656,0.043 -0.0312,0.004 -0.0664,0.0117 -0.0976,0.0195 -3.16016,-6.98828 -15.08594,-33.64844 -20.98438,-46.60156 0.62109,0.043 1.23047,0.0781 1.85938,0.125 -0.35938,-0.80078 -0.70704,-1.5586 -1.03125,-2.26953 6.4375,14.10546 20.91015,46.50781 22.00781,48.84375 0.008,0.0156 0.0117,0.0273 0.0156,0.0391 0.004,0.004 0.004,0.004 0.004,0.004 0,0.008 0.004,0.0117 0.008,0.0195 0.004,0.008 0.008,0.0156 0.0117,0.0195 0,0.008 0.004,0.0156 0.008,0.0234 0.004,0.004 0.004,0.0117 0.0117,0.0195 0.008,0.0195 0.0156,0.0391 0.0234,0.0586"
       fill-opacity="1"
       fill-rule="nonzero"
       id="path163" />
    <path
       fill="#75aab3"
       d="m 724.61719,755.39844 c -5.33985,-7.41407 -19.91797,-31.72657 -26.16797,-44.58594 0.0508,-1.13281 0.10547,-2.21094 0.16797,-3.21484 5.85547,12.47656 21.39843,38.44531 26.875,46.01562 -0.41016,0.48047 -0.71485,1.09375 -0.875,1.78516"
       fill-opacity="1"
       fill-rule="nonzero"
       id="path164" />
    <path
       fill="#75aab3"
       d="m 698.44922,710.8125 c -1.04297,-2.14453 -1.85156,-3.96875 -2.34766,-5.34375 -0.59375,-1.64063 -0.91797,-3.00781 -1.03515,-4.15625 0.043,0.0273 0.0859,0.0547 0.1289,0.082 0.082,0.75781 0.25,1.60547 0.51953,2.55859 0.46485,0.24219 0.9961,0.47657 1.60157,0.69532 0.35156,0.86328 0.78906,1.85547 1.30078,2.94922 -0.0625,1.0039 -0.11719,2.08203 -0.16797,3.21484"
       fill-opacity="1"
       fill-rule="nonzero"
       id="path165" />
    <path
       fill="#495b6c"
       d="m 749.39062,831.60156 c -0.10937,-0.46875 -0.24609,-1.02344 -0.39843,-1.66015 2.63672,-0.28125 6.51562,-0.76172 6.90234,-1.19532 0.0586,0.4375 0.11328,0.85938 0.16406,1.26563 -0.0508,0.1914 -0.0976,0.35547 -0.16015,0.42578 -0.34375,0.42187 -3.90235,0.87891 -6.50782,1.16406"
       fill-opacity="1"
       fill-rule="nonzero"
       id="path166" />
    <path
       fill="#492f66"
       d="m 743.57422,822.89844 c 0,0 11.33594,-1.09766 12.10547,-1.09766 0.77343,0 0.76562,6.26953 0.21875,6.9375 -0.54297,0.66797 -9.33985,1.44141 -9.33985,1.44141 l -2.98437,-7.28125"
       fill-opacity="1"
       fill-rule="nonzero"
       id="path167" />
    <path
       fill="#495b6c"
       d="m 733.63281,769.94922 c -0.22656,-0.875 -0.44531,-1.72266 -0.65625,-2.53906 3.07422,-0.58204 10.23047,-2.60547 12.78125,-4.34375 0.12891,0.73828 0.25781,1.49609 0.39063,2.28515 -1.78516,1.69141 -8.90235,3.82031 -12.51563,4.59766"
       fill-opacity="1"
       fill-rule="nonzero"
       id="path168" />
    <path
       fill="#492f66"
       d="m 728.84766,760.24219 c 0,0 13.60156,-4.74219 15.70312,-4.875 2.10156,-0.13282 2.80078,4.74609 2.10156,6.77734 -0.69922,2.02734 -11.89453,5.10156 -14.55078,5.40234 -2.65625,0.30079 -3.2539,-7.30468 -3.2539,-7.30468"
       fill-opacity="1"
       fill-rule="nonzero"
       id="path169" />
    <path
       fill="#e8def2"
       d="m 744.39844,755.38281 c 0.0547,-0.008 0.10547,-0.0117 0.15234,-0.0156 0.0273,0 0.0547,-0.004 0.082,-0.004 -0.0273,0 -0.0547,0.004 -0.082,0.004 -0.0469,0.004 -0.0977,0.008 -0.15234,0.0156"
       fill-opacity="1"
       fill-rule="nonzero"
       id="path170" />
    <path
       fill="#8f8eba"
       d="m 741.78906,756.01562 c 1.16797,-0.33593 2.10156,-0.57031 2.60938,-0.63281 -0.50782,0.0625 -1.44141,0.29688 -2.60938,0.63281"
       fill-opacity="1"
       fill-rule="nonzero"
       id="path171" />
    <path
       fill="#7961a6"
       d="m 745.42578,763.23828 c 0.63672,-2.05469 -0.0273,-6.65625 -2.03125,-6.65625 -0.0273,0 -0.0586,0.004 -0.0859,0.004 -1.42187,0.0898 -8.03515,2.26562 -12.1875,3.66797 -0.0391,-0.14063 -0.0742,-0.27735 -0.10547,-0.41407 -0.0195,-0.0664 -0.0352,-0.13281 -0.0508,-0.19531 0.0234,-0.0508 0.0508,-0.10547 0.0742,-0.15625 2.78906,-0.95312 7.61328,-2.57422 10.75,-3.47266 1.16797,-0.33593 2.10156,-0.57031 2.60938,-0.63281 0.0547,-0.008 0.10547,-0.0117 0.15234,-0.0156 0.0273,0 0.0547,-0.004 0.082,-0.004 2.03516,0.004 2.71094,4.77734 2.01953,6.78125 -0.12109,0.33984 -0.60547,0.71484 -1.22656,1.09375"
       fill-opacity="1"
       fill-rule="nonzero"
       id="path172" />
    <path
       fill="#a3c5c9"
       d="m 726.46484,757.78906 c -2.21875,17.56641 18.88672,74.01953 19.48828,75.52344 0.59766,1.5 3.59766,0.59766 3.80079,0 0.19921,-0.60547 -19.82032,-77.60547 -19.9375,-78.09375 -0.11329,-0.48438 -3.35157,2.57031 -3.35157,2.57031"
       fill-opacity="1"
       fill-rule="nonzero"
       id="path173" />
    <path
       fill="#4f798a"
       d="m 747.53516,834.12891 c 1,-0.004 2.09765,-0.46485 2.21875,-0.81641 0,-0.008 0,-0.0117 0,-0.0195 0,0.008 0,0.0117 0,0.0195 -0.1211,0.35156 -1.21875,0.8125 -2.21875,0.81641"
       fill-opacity="1"
       fill-rule="nonzero"
       id="path174" />
    <path
       fill="#d5e7e6"
       d="m 746.08984,833.55859 c -0.0547,-0.0742 -0.10156,-0.15625 -0.13672,-0.24609 -0.48437,-1.21094 -14.19921,-37.88281 -18.42187,-61.36719 4.22266,23.48438 17.9375,60.15625 18.42187,61.36719 0.0352,0.0898 0.082,0.17187 0.13672,0.24609 m -19.78515,-72.50781 c 0,-0.11328 0,-0.23047 0,-0.34375 0,0.11328 0,0.23047 0,0.34375"
       fill-opacity="1"
       fill-rule="nonzero"
       id="path175" />
    <path
       fill="#86b3ba"
       d="m 747.51562,834.12891 c -0.58203,0 -1.125,-0.15235 -1.42578,-0.57032 -0.0547,-0.0742 -0.10156,-0.15625 -0.13672,-0.24609 -0.48437,-1.21094 -14.19921,-37.88281 -18.42187,-61.36719 -0.74609,-4.1289 -1.19531,-7.84765 -1.22656,-10.89453 0,-0.11328 0,-0.23047 0,-0.34375 0.004,0.004 0.0117,0.0117 0.0195,0.0156 0.004,0.4414 0.0117,0.89843 0.0312,1.36328 0.30078,0.19922 0.62109,0.35937 0.94531,0.46484 2.18359,22.28516 18.81641,66.82422 19.35156,68.15625 0.23828,0.59375 0.83203,0.80078 1.48828,0.80078 0.39454,0 0.8086,-0.0742 1.17969,-0.18359 0.25,1.05078 0.42578,1.83203 0.4336,1.96875 0,0.008 0,0.0117 0,0.0195 -0.1211,0.35156 -1.21875,0.8125 -2.21875,0.81641 -0.008,0 -0.0156,0 -0.0195,0"
       fill-opacity="1"
       fill-rule="nonzero"
       id="path176" />
    <path
       fill="#537178"
       d="m 706.11328,706.02344 c -0.85547,-0.0586 -1.73047,-0.11719 -2.70703,-0.19141 -1.82031,-0.14453 -3.33594,-0.40234 -4.60156,-0.73047 0.0703,-0.80469 0.14843,-1.53515 0.23437,-2.17578 1.26172,0.31641 2.76172,0.5625 4.53906,0.70313 0.50391,0.0391 1.00391,0.0742 1.49219,0.11328 0.32031,0.69922 0.66797,1.46093 1.04297,2.28125"
       fill-opacity="1"
       fill-rule="nonzero"
       id="path177" />
    <path
       fill="#537178"
       d="m 698.80469,705.10156 c -0.53907,-0.14062 -1.03516,-0.29297 -1.48828,-0.45312 -0.15235,-0.37891 -0.28907,-0.72657 -0.40625,-1.05469 -0.19922,-0.55078 -0.36719,-1.07031 -0.50391,-1.55859 0.73047,0.32812 1.60156,0.63281 2.63281,0.89062 -0.0859,0.64063 -0.16406,1.37109 -0.23437,2.17578"
       fill-opacity="1"
       fill-rule="nonzero"
       id="path178" />
    <path
       fill="#5b7a81"
       d="m 707.97266,706.14844 c -0.62891,-0.0469 -1.23829,-0.082 -1.85938,-0.125 -0.375,-0.82032 -0.72266,-1.58203 -1.04297,-2.28125 0.64063,0.0469 1.26172,0.0937 1.8711,0.13672 0.32421,0.71093 0.67187,1.46875 1.03125,2.26953"
       fill-opacity="1"
       fill-rule="nonzero"
       id="path179" />
    <path
       fill="#36626e"
       d="m 697.31641,704.64844 c -0.60547,-0.21875 -1.13672,-0.45313 -1.60157,-0.69532 -0.26953,-0.95312 -0.4375,-1.80078 -0.51953,-2.55859 0.35156,0.21875 0.75391,0.43359 1.21094,0.64063 0.13672,0.48828 0.30469,1.00781 0.50391,1.55859 0.11718,0.32812 0.2539,0.67578 0.40625,1.05469"
       fill-opacity="1"
       fill-rule="nonzero"
       id="path180" />
    <path
       fill="#a3c5c9"
       d="m 696.14844,690.94922 c 6.53906,1.98828 35.90625,3.37109 37.27734,3.23828 1.37109,-0.12891 2.94141,7.88672 0.48828,8.90234 -2.73437,1.13672 -7.33594,2.33594 -30.33594,0.53907 -8.36328,-0.65625 -10.6289,-3.71094 -10.49609,-5.04688 0.13281,-1.33594 0.28516,-8.47656 3.06641,-7.63281"
       fill-opacity="1"
       fill-rule="nonzero"
       id="path181" />
    <path
       fill="#f1fafd"
       d="m 734.10937,694.73828 c -0.20703,-0.34375 -0.42968,-0.55078 -0.65234,-0.55078 -0.0117,0 -0.0195,0 -0.0312,0 0.0117,0 0.0234,0 0.0312,0 0.22266,0 0.44531,0.20703 0.65234,0.55078 m -1.02734,-0.53906 c -0.34766,0 -0.91797,-0.0117 -1.66797,-0.0391 0.75,0.0273 1.32031,0.0391 1.66797,0.0391"
       fill-opacity="1"
       fill-rule="nonzero"
       id="path182" />
    <path
       fill="#9d9cca"
       d="m 731.41406,694.16016 c -4.89453,-0.16016 -17.49219,-0.82813 -26.52734,-1.8086 9.03515,0.98047 21.63281,1.64844 26.52734,1.8086"
       fill-opacity="1"
       fill-rule="nonzero"
       id="path183" />
    <path
       fill="#9797c3"
       d="m 704.88672,692.35156 c -2.8086,-0.30469 -5.26953,-0.63672 -7.05078,-0.99219 1.78125,0.35547 4.24218,0.6875 7.05078,0.99219"
       fill-opacity="1"
       fill-rule="nonzero"
       id="path184" />
    <path
       fill="#f1fafd"
       d="m 733.08203,694.19922 c 0.15625,0 0.26953,-0.004 0.33203,-0.008 -0.0625,0.004 -0.17578,0.008 -0.33203,0.008 m -36.92187,-3.24219 c -0.004,-0.004 -0.008,-0.004 -0.0117,-0.008 0.004,0.004 0.008,0.004 0.0117,0.008 m -0.0117,-0.008 c -0.0234,-0.004 -0.043,-0.0117 -0.0664,-0.0156 0.0234,0.004 0.043,0.0117 0.0664,0.0156 m -0.0703,-0.0156 v 0"
       fill-opacity="1"
       fill-rule="nonzero"
       id="path185" />
    <path
       fill="#b0d4d7"
       d="m 734.33984,700.44531 c -0.14062,-2.34765 -0.94531,-4.80469 -1.70703,-4.80469 -0.0117,0 -0.0234,0 -0.0351,0.004 -0.0586,0.004 -0.17579,0.008 -0.34375,0.008 -3.2461,0 -25.72266,-1.10156 -34.60938,-2.71875 0.0469,-0.49218 0.10938,-1.03125 0.19141,-1.57422 1.78125,0.35547 4.24218,0.6875 7.05078,0.99219 9.03515,0.98047 21.63281,1.64844 26.52734,1.8086 0.75,0.0273 1.32031,0.0391 1.66797,0.0391 0.15625,0 0.26953,-0.004 0.33203,-0.008 0.004,0 0.004,0 0.008,0 0,0 0,0 0.004,-0.004 0.0117,0 0.0195,0 0.0312,0 0.22266,0 0.44531,0.20703 0.65234,0.55078 0.66016,1.08984 1.17969,3.58594 1.03516,5.57422 -0.25391,0.0469 -0.51953,0.0898 -0.80469,0.13281 m -38.16797,-9.48437 c -0.008,-0.004 -0.0156,-0.008 -0.0234,-0.0117 -0.0274,-0.008 -0.0586,-0.0156 -0.0859,-0.0195 0.004,0 0.008,0 0.0156,0.004 0.004,0 0.004,0 0.004,0 0.0234,0.004 0.043,0.0117 0.0664,0.0156 0.004,0.004 0.008,0.004 0.0117,0.008 0.004,0 0.008,0 0.0117,0.004 m -0.11328,-0.0352 c 0,0 -0.004,0 -0.004,0 0,0 0.004,0 0.004,0"
       fill-opacity="1"
       fill-rule="nonzero"
       id="path186" />
    <path
       fill="#e8e8e5"
       d="m 693.07812,698.69141 c 0,-0.0352 0,-0.0742 0.004,-0.10938 0.125,-1.26172 0.26953,-7.69922 2.625,-7.69922 0.0195,0 0.0352,0 0.0547,0 -0.0195,0 -0.0352,0 -0.0547,0 -2.35547,0 -2.5,6.4375 -2.625,7.69922 -0.004,0.0352 -0.004,0.0742 -0.004,0.10938 m 3.51563,-7.61719 c 0,0 -0.004,0 -0.004,0 -0.0273,-0.004 -0.0508,-0.0117 -0.0781,-0.0195 -0.004,0 -0.0117,-0.004 -0.0117,-0.004 -0.008,0 -0.0156,-0.004 -0.0234,-0.004 0,0 -0.004,-0.004 -0.008,-0.004 -0.004,0 -0.008,0 -0.0156,-0.004 -0.004,0 -0.008,0 -0.0117,-0.004 -0.004,0 -0.008,0 -0.008,0 -0.0117,-0.004 -0.0234,-0.008 -0.0351,-0.0117 -0.0156,-0.004 -0.0312,-0.008 -0.0508,-0.0117 -0.004,0 -0.004,-0.004 -0.008,-0.004 -0.008,0 -0.0117,-0.004 -0.0195,-0.008 -0.004,0 -0.008,0 -0.008,0 -0.004,-0.004 -0.0117,-0.004 -0.0156,-0.004 -0.008,-0.004 -0.0156,-0.004 -0.0273,-0.008 -0.004,0 -0.004,0 -0.008,-0.004 0,0 0,0 -0.004,0 -0.004,0 -0.008,0 -0.0156,-0.004 0,0 -0.004,0 -0.008,-0.004 -0.008,-0.004 -0.0156,-0.004 -0.0195,-0.004 -0.004,-0.004 -0.008,-0.004 -0.0117,-0.004 -0.0117,-0.004 -0.0195,-0.008 -0.0312,-0.008 0.13282,0.0351 0.26954,0.0781 0.42188,0.11328"
       fill-opacity="1"
       fill-rule="nonzero"
       id="path187" />
    <path
       fill="#ccc9ce"
       d="m 696.59766,691.07812 c 0,0 -0.004,0 -0.004,-0.004 0,0 0.004,0 0.004,0.004"
       fill-opacity="1"
       fill-rule="nonzero"
       id="path188" />
    <path
       fill="#664c8f"
       d="m 697.83594,691.35937 c -0.0547,-0.0117 -0.10938,-0.0234 -0.16407,-0.0352 -0.004,0 -0.004,0 -0.008,0 -0.0508,-0.0117 -0.0976,-0.0195 -0.14844,-0.0312 -0.008,0 -0.0156,-0.004 -0.0234,-0.008 0,0 -0.004,0 -0.004,0 -0.004,0 -0.0117,0 -0.0195,-0.004 -0.004,0 -0.0117,0 -0.0156,-0.004 -0.008,0 -0.0156,0 -0.0195,0 -0.0156,-0.004 -0.0312,-0.008 -0.043,-0.0117 -0.0117,0 -0.0273,-0.004 -0.0352,-0.008 0,0 -0.004,0 -0.004,0 -0.0195,-0.004 -0.0391,-0.008 -0.0586,-0.0117 -0.0117,-0.004 -0.0234,-0.008 -0.0391,-0.008 -0.004,-0.004 -0.0117,-0.004 -0.0195,-0.008 -0.0664,-0.0117 -0.13671,-0.0312 -0.20703,-0.043 0,0 0,0 0,-0.004 -0.0117,-0.004 -0.0195,-0.004 -0.0312,-0.008 -0.004,0 -0.004,0 -0.004,0 -0.008,0 -0.0117,-0.004 -0.0195,-0.004 0,0 0,0 -0.004,0 -0.004,-0.004 -0.008,-0.004 -0.0117,-0.004 -0.0117,-0.004 -0.0234,-0.004 -0.0352,-0.008 -0.004,-0.004 -0.0117,-0.004 -0.0156,-0.004 0,0 0,-0.004 -0.004,-0.004 -0.0195,-0.004 -0.0351,-0.008 -0.0547,-0.0117 -0.008,0 -0.0195,-0.004 -0.0312,-0.004 0,-0.004 -0.004,-0.004 -0.004,-0.004 -0.004,-0.004 -0.008,-0.004 -0.0117,-0.004 -0.008,0 -0.0117,-0.004 -0.0195,-0.004 -0.004,0 -0.0117,-0.004 -0.0156,-0.004 -0.004,0 -0.008,-0.004 -0.0117,-0.004 -0.004,0 -0.004,0 -0.008,0 -0.0508,-0.0156 -0.0976,-0.0274 -0.14843,-0.0391 0.36718,0.0937 0.78515,0.1875 1.23828,0.27735 0,0 0,0 0,0.004"
       fill-opacity="1"
       fill-rule="nonzero"
       id="path189" />
    <path
       fill="#523874"
       d="m 725.65625,704.48828 c 3.5625,-0.13672 5.5625,-0.50391 6.94141,-0.92187 -1.37891,0.41796 -3.37891,0.78515 -6.94141,0.92187"
       fill-opacity="1"
       fill-rule="nonzero"
       id="path190" />
    <path
       fill="#8fafb3"
       d="m 722.375,704.54687 c -4.30859,0 -10.29688,-0.2539 -18.79688,-0.91796 -8.14453,-0.63672 -10.5039,-3.55079 -10.5,-4.9375 0,-0.0352 0,-0.0742 0.004,-0.10938 0.125,-1.26172 0.26953,-7.69922 2.625,-7.69922 0.0195,0 0.0352,0 0.0547,0 0.0937,0.004 0.1914,0.0156 0.29297,0.043 -0.11719,-0.0312 -0.23438,-0.043 -0.34375,-0.043 -0.84375,0 -1.39844,0.83594 -1.77344,1.95703 0.28516,-0.29687 0.60547,-0.49609 1,-0.49609 0.12109,0 0.25,0.0195 0.38672,0.0625 0.59375,0.17969 1.38281,0.35937 2.32031,0.52734 -0.0859,0.89063 -0.125,1.625 -0.16016,1.97657 -0.13281,1.33203 2.13282,4.39062 10.4961,5.04296 8.46875,0.66016 14.42578,0.91407 18.71875,0.91407 3.51172,0 5.90234,-0.16797 7.64062,-0.42188 0.0508,0.85156 0.0156,1.6875 -0.14453,2.38672 0.58203,-0.46094 0.8711,-1.41016 0.94922,-2.51953 0,0 0.004,0 0.004,0 -0.082,1.31641 -0.42188,2.44141 -1.23438,2.77734 -0.38672,0.16016 -0.80859,0.32032 -1.3164,0.47657 -1.37891,0.41796 -3.37891,0.78515 -6.94141,0.92187 -0.96875,0.0391 -2.05859,0.0586 -3.28125,0.0586 m -24.70313,-13.22265 c -0.004,0 -0.004,0 -0.008,0 0.004,0 0.004,0 0.008,0 m -0.17968,-0.0391 c 0,0 -0.004,0 -0.004,0 0,0 0.004,0 0.004,0 m -0.0234,-0.004 c -0.004,0 -0.0117,0 -0.0156,-0.004 0.004,0.004 0.0117,0.004 0.0156,0.004 m -0.0352,-0.004 c -0.0156,-0.004 -0.0312,-0.008 -0.043,-0.0117 0.0117,0.004 0.0273,0.008 0.043,0.0117 m -0.0781,-0.0195 c 0,0 -0.004,0 -0.004,0 0,0 0.004,0 0.004,0 m -0.0625,-0.0117 v 0 m -0.0586,-0.0156 c -0.0664,-0.0117 -0.13671,-0.0312 -0.20703,-0.043 0.0703,0.0117 0.14063,0.0312 0.20703,0.043 m -0.20703,-0.0469 c -0.0117,-0.004 -0.0195,-0.004 -0.0312,-0.008 0.0117,0.004 0.0195,0.004 0.0312,0.008 m -0.0351,-0.008 c -0.008,0 -0.0117,-0.004 -0.0195,-0.004 0.008,0 0.0117,0.004 0.0195,0.004 m -0.0234,-0.004 c -0.004,-0.004 -0.008,-0.004 -0.0117,-0.004 0.004,0 0.008,0 0.0117,0.004 m -0.0469,-0.0117 c -0.004,-0.004 -0.0117,-0.004 -0.0156,-0.004 0.004,0 0.0117,0 0.0156,0.004 m -0.0195,-0.008 c -0.0195,-0.004 -0.0351,-0.008 -0.0547,-0.0117 0.0195,0.004 0.0351,0.008 0.0547,0.0117 m -0.0859,-0.0156 c 0,-0.004 -0.004,-0.004 -0.004,-0.004 0,0 0.004,0 0.004,0.004 m -0.0156,-0.008 c -0.008,0 -0.0117,-0.004 -0.0195,-0.004 0.008,0 0.0117,0.004 0.0195,0.004 m -0.0352,-0.008 c -0.004,0 -0.008,-0.004 -0.0117,-0.004 0.004,0 0.008,0.004 0.0117,0.004 m -0.0195,-0.004 c -0.0547,-0.0156 -0.10547,-0.0274 -0.15625,-0.043 0,0 0.004,0 0.004,0 0,0.004 0.004,0.004 0.004,0.004 0.0508,0.0117 0.0976,0.0234 0.14843,0.0391 m -0.15625,-0.043 c -0.0273,-0.004 -0.0508,-0.0117 -0.0781,-0.0195 0.0273,0.008 0.0508,0.0156 0.0781,0.0195 m -0.0898,-0.0234 c -0.008,0 -0.0156,-0.004 -0.0234,-0.004 0.008,0 0.0156,0.004 0.0234,0.004 m -0.0312,-0.008 c -0.004,0 -0.008,0 -0.0156,-0.004 0.008,0.004 0.0117,0.004 0.0156,0.004 m -0.0273,-0.008 c -0.004,0 -0.008,0 -0.008,0 0,0 0.004,0 0.008,0 m -0.043,-0.0117 c -0.0156,-0.004 -0.0312,-0.008 -0.0508,-0.0117 0.0195,0.004 0.0351,0.008 0.0508,0.0117 m -0.0586,-0.0156 c -0.008,0 -0.0117,-0.004 -0.0195,-0.008 0.008,0.004 0.0117,0.008 0.0195,0.008 M 696.3125,691 c -0.004,-0.004 -0.0117,-0.004 -0.0156,-0.004 0.004,0 0.0117,0 0.0156,0.004 m -0.043,-0.0117 c -0.004,0 -0.004,0 -0.008,-0.004 0.004,0.004 0.004,0.004 0.008,0.004 m -0.0117,-0.004 c -0.004,0 -0.008,0 -0.0156,-0.004 0.008,0.004 0.0117,0.004 0.0156,0.004 m -0.0234,-0.008 c -0.008,-0.004 -0.0156,-0.004 -0.0195,-0.004 0.004,0 0.0117,0 0.0195,0.004 m -0.0312,-0.008 c -0.0117,-0.004 -0.0234,-0.008 -0.0312,-0.008 0.0117,0 0.0195,0.004 0.0312,0.008 m -0.14062,-0.0391 c -0.004,0 -0.004,0 -0.004,-0.004 0,0.004 0,0.004 0.004,0.004"
       fill-opacity="1"
       fill-rule="nonzero"
       id="path191" />
    <path
       fill="#8383ae"
       d="m 697.83594,691.35937 c -0.0547,-0.0117 -0.10938,-0.0234 -0.16407,-0.0352 0.0547,0.0117 0.10938,0.0234 0.16407,0.0352"
       fill-opacity="1"
       fill-rule="nonzero"
       id="path192" />
    <path
       fill="#9dbec2"
       d="m 734.19531,702.83203 c 0.16016,-0.69922 0.19531,-1.53516 0.14453,-2.38672 0.28516,-0.043 0.55078,-0.0859 0.80469,-0.13281 -0.0781,1.10937 -0.36719,2.05859 -0.94922,2.51953 m -36.55078,-9.89844 c -0.9375,-0.16797 -1.72656,-0.34765 -2.32031,-0.52734 -0.13672,-0.043 -0.26563,-0.0625 -0.38672,-0.0625 -0.39453,0 -0.71484,0.19922 -1,0.49609 0.375,-1.12109 0.92969,-1.95703 1.77344,-1.95703 0.10937,0 0.22656,0.0117 0.34375,0.043 0,0 0.004,0 0.004,0 0,0.004 0,0.004 0.004,0.004 0.0273,0.004 0.0586,0.0117 0.0859,0.0195 0.008,0.004 0.0156,0.008 0.0234,0.0117 0.008,0 0.0195,0.004 0.0312,0.008 0.004,0 0.008,0 0.0117,0.004 0.004,0 0.0117,0 0.0195,0.004 0.004,0.004 0.008,0.004 0.008,0.004 0.008,0.004 0.0117,0.004 0.0156,0.004 0.004,0 0.004,0 0.004,0 0.004,0.004 0.004,0.004 0.008,0.004 0.0117,0.004 0.0195,0.004 0.0273,0.008 0.004,0 0.0117,0 0.0156,0.004 0,0 0.004,0 0.008,0 0.008,0.004 0.0117,0.008 0.0195,0.008 0.004,0 0.004,0.004 0.008,0.004 0.0195,0.004 0.0351,0.008 0.0508,0.0117 0.0117,0.004 0.0234,0.008 0.0351,0.0117 0,0 0.004,0 0.008,0 0.004,0.004 0.008,0.004 0.0117,0.004 0.008,0.004 0.0117,0.004 0.0156,0.004 0.004,0 0.008,0.004 0.008,0.004 0.008,0 0.0156,0.004 0.0234,0.004 0,0 0.008,0.004 0.0117,0.004 0.0273,0.008 0.0508,0.0156 0.0781,0.0195 0.0508,0.0156 0.10157,0.0273 0.15625,0.043 0.004,0 0.004,0 0.008,0 0.004,0 0.008,0.004 0.0117,0.004 0.004,0 0.0117,0.004 0.0156,0.004 0.008,0 0.0117,0.004 0.0195,0.004 0.004,0 0.008,0 0.0117,0.004 0,0 0.004,0 0.004,0.004 0.0117,0 0.0234,0.004 0.0312,0.004 0.0195,0.004 0.0351,0.008 0.0547,0.0117 0.004,0 0.004,0.004 0.004,0.004 0.004,0 0.0117,0 0.0156,0.004 0.0117,0.004 0.0234,0.004 0.0352,0.008 0.004,0 0.008,0 0.0117,0.004 0.004,0 0.004,0 0.004,0 0.008,0 0.0117,0.004 0.0195,0.004 0,0 0,0 0.004,0 0.0117,0.004 0.0195,0.004 0.0312,0.008 0,0.004 0,0.004 0,0.004 0.0703,0.0117 0.14063,0.0312 0.20703,0.043 0.008,0.004 0.0156,0.004 0.0195,0.008 0.0156,0 0.0273,0.004 0.0391,0.008 0.0195,0.004 0.0391,0.008 0.0586,0.0117 0,0 0.004,0 0.004,0 0.008,0.004 0.0234,0.008 0.0352,0.008 0.0117,0.004 0.0273,0.008 0.043,0.0117 0.004,0 0.0117,0 0.0195,0 0.004,0.004 0.0117,0.004 0.0156,0.004 0.008,0.004 0.0156,0.004 0.0195,0.004 0,0 0.004,0 0.004,0 0.008,0.004 0.0156,0.008 0.0234,0.008 0.0508,0.0117 0.0977,0.0195 0.14844,0.0312 0.004,0 0.004,0 0.008,0 0.0547,0.0117 0.10938,0.0234 0.16407,0.0352 -0.082,0.54297 -0.14453,1.08204 -0.19141,1.57422"
       fill-opacity="1"
       fill-rule="nonzero"
       id="path193" />
    <path
       fill="#474683"
       d="m 731.01562,759.83984 c -0.0195,-0.0664 -0.0352,-0.13281 -0.0508,-0.19531 0.0156,0.0625 0.0312,0.12891 0.0508,0.19531"
       fill-opacity="1"
       fill-rule="nonzero"
       id="path194" />
    <path
       fill="#6895a0"
       d="m 728.08984,762.67969 c -0.26953,0 -0.53125,-0.0469 -0.78906,-0.12891 -0.043,-0.44922 -0.082,-0.88672 -0.11328,-1.32031 0.35156,0.14453 0.71875,0.22265 1.09375,0.22265 0.15625,0 0.31641,-0.0156 0.47656,-0.043 0.95703,-0.17188 1.73047,-0.83204 2.20703,-1.76563 0.0156,0.0625 0.0312,0.12891 0.0508,0.19531 -0.34765,1.44532 -1.25,2.57813 -2.52734,2.80469 -0.13281,0.0234 -0.26562,0.0352 -0.39844,0.0352"
       fill-opacity="1"
       fill-rule="nonzero"
       id="path195" />
    <path
       fill="#4f8897"
       d="m 727.30078,762.55078 c -0.32422,-0.10547 -0.64453,-0.26562 -0.94531,-0.46484 -0.0195,-0.46485 -0.0273,-0.92188 -0.0312,-1.36328 0.26953,0.21484 0.55859,0.38671 0.86328,0.50781 0.0312,0.43359 0.0703,0.87109 0.11328,1.32031"
       fill-opacity="1"
       fill-rule="nonzero"
       id="path196" />
    <path
       fill="#a3c5c9"
       d="m 731.38672,756.40234 c 0.42969,2.42969 -0.75,4.67188 -2.62891,5.00782 -1.88281,0.33203 -3.75781,-1.36719 -4.1914,-3.79688 -0.42969,-2.43359 0.74609,-4.67578 2.6289,-5.00781 1.88281,-0.33594 3.75781,1.36719 4.19141,3.79687"
       fill-opacity="1"
       fill-rule="nonzero"
       id="path197" />
    <path
       fill="#455665"
       d="m 668.5625,814.87891 c -1.53516,-1.40625 -3.04297,-3.17969 -3.64844,-3.91797 0.66797,-1.30078 1.48047,-2.94532 2.42188,-4.85547 1.0664,0.97265 3.13672,2.875 4.68359,4.35937 -1.29687,1.67578 -2.46484,3.16797 -3.45703,4.41407"
       fill-opacity="1"
       fill-rule="nonzero"
       id="path198" />
    <path
       fill="#596c7f"
       d="m 670.27344,816.24219 c -0.54297,-0.34766 -1.12891,-0.82813 -1.71094,-1.36328 0.99219,-1.2461 2.16016,-2.73829 3.45703,-4.41407 0.64844,0.62891 1.20703,1.1836 1.55469,1.5586 -1.2461,1.61328 -2.33594,3.0039 -3.30078,4.21875"
       fill-opacity="1"
       fill-rule="nonzero"
       id="path199" />
    <path
       fill="#492f66"
       d="m 667.13672,804.03125 c 0,0 6.38672,5.78516 7.26953,6.92187 0.87891,1.13672 0.0781,3.34375 -1.76953,4.34375 -1.85156,0.9961 -7.5,-6.10937 -7.5,-6.10937 l 2,-5.15625"
       fill-opacity="1"
       fill-rule="nonzero"
       id="path200" />
    <path
       fill="#75aab3"
       d="m 728.125,759.9375 c -1.21094,0 -2.34375,-0.94141 -2.67578,-2.32031 -0.38281,-1.58203 0.4414,-3.13672 1.83594,-3.47657 0.17968,-0.043 0.36328,-0.0625 0.54296,-0.0625 1.21094,0 2.33985,0.94532 2.67188,2.32032 0.38281,1.58203 -0.4375,3.13672 -1.83203,3.47656 -0.1836,0.0391 -0.36328,0.0625 -0.54297,0.0625"
       fill-opacity="1"
       fill-rule="nonzero"
       id="path201" />
    <path
       fill="#a3c5c9"
       d="m 691.50781,755.80469 c -14.07031,10.27343 -31.30469,57.01562 -31.33984,58.32031 -0.0352,1.30469 0.80078,2.26953 2.93359,0 2.13281,-2.26953 18.9375,-41.64063 33.6836,-58.42969 2.7539,-3.14062 2.55468,-5.61328 -5.27735,0.10938"
       fill-opacity="1"
       fill-rule="nonzero"
       id="path202" />
    <path
       fill="#bed8d8"
       d="m 660.16797,814.13281 c 0,-0.004 0,-0.004 0,-0.008 0,0.004 0,0.004 0,0.008 m 22.30078,-47.87109 c 3.02734,-4.57813 6.10156,-8.3125 9.03906,-10.45703 0.0117,-0.0117 0.0195,-0.0195 0.0312,-0.0274 -0.0117,0.008 -0.0195,0.0195 -0.0312,0.0274 -2.9375,2.14453 -6.01172,5.8789 -9.03906,10.45703"
       fill-opacity="1"
       fill-rule="nonzero"
       id="path203" />
    <path
       fill="#75aab3"
       d="m 660.99609,815.39844 c -0.58593,0 -0.84765,-0.5586 -0.82812,-1.26563 0,-0.004 0,-0.004 0,-0.008 0.0273,-1.03125 10.82422,-30.51172 22.30078,-47.86328 3.02734,-4.57813 6.10156,-8.3125 9.03906,-10.45703 0.0117,-0.008 0.0195,-0.0195 0.0312,-0.0274 0.082,-0.0547 0.14063,-0.0937 0.23047,-0.15234 -13.96875,11.04687 -30.76562,56.5625 -30.80078,57.84766 -0.0195,0.73437 0.23828,1.35546 0.84766,1.35546 0.19531,0 0.42578,-0.0664 0.6914,-0.20703 -0.64062,0.55078 -1.14062,0.77735 -1.51172,0.77735"
       fill-opacity="1"
       fill-rule="nonzero"
       id="path204" />
    <path
       fill="#475b67"
       d="m 695.94531,756.71484 c -0.008,0 -0.0156,0 -0.0234,0 -0.004,0 -0.0117,0 -0.0156,0 0.27344,-0.32031 0.54297,-0.64062 0.81641,-0.94922 -0.25782,0.30079 -0.51954,0.64454 -0.77735,0.94922"
       fill-opacity="1"
       fill-rule="nonzero"
       id="path205" />
    <path
       fill="#7a9aa0"
       d="m 695.64062,756.73828 c -0.0312,0 -0.0586,0 -0.0898,-0.008 -1.07812,-0.21485 -1.83984,-1.10938 -2.15625,-2.22266 0.19531,-0.1289 0.38281,-0.25 0.5625,-0.36328 0.40234,0.8125 1.09766,1.41016 1.96875,1.58594 0.17188,0.0352 0.33984,0.0508 0.50781,0.0508 0.0977,0 0.19141,-0.004 0.28907,-0.0156 -0.27344,0.3086 -0.54297,0.62891 -0.81641,0.94922 -0.043,0.004 -0.0859,0.008 -0.125,0.0156 -0.0469,0.004 -0.0937,0.008 -0.14063,0.008"
       fill-opacity="1"
       fill-rule="nonzero"
       id="path206" />
    <path
       fill="#a3c5c9"
       d="m 699.57812,752.84375 c -0.38281,1.92187 -2.01953,3.21484 -3.65234,2.88672 -1.63672,-0.32422 -2.64844,-2.14844 -2.26562,-4.06641 0.38281,-1.92187 2.01953,-3.21484 3.65234,-2.88672 1.63281,0.32813 2.64844,2.14844 2.26562,4.06641"
       fill-opacity="1"
       fill-rule="nonzero"
       id="path207" />
    <path
       fill="#75aab3"
       d="m 696.50391,754.43359 c -0.10547,0 -0.20704,-0.0117 -0.3125,-0.0312 -1.00782,-0.20312 -1.63672,-1.32812 -1.39844,-2.51562 0.21094,-1.0625 1.04297,-1.8125 1.9375,-1.8125 0.10547,0 0.21094,0.0117 0.3164,0.0312 1.01172,0.20312 1.63672,1.32812 1.39844,2.51562 -0.21094,1.0586 -1.04297,1.8125 -1.9414,1.8125"
       fill-opacity="1"
       fill-rule="nonzero"
       id="path208" />
    <path
       fill="#75959b"
       d="m 729.47266,704.1875 c 2.20703,-0.28516 3.46484,-0.69141 4.4414,-1.09766 2.45313,-1.01562 0.88281,-9.03125 -0.48828,-8.90234 -0.32422,0.0312 -2.23828,-0.0234 -5.01172,-0.14844 1.69141,3.89063 1.5,7.7461 1.0586,10.14844"
       fill-opacity="1"
       fill-rule="nonzero"
       id="path209" />
    <path
       fill="#6d5497"
       d="m 695.01562,666.82031 c -0.0586,-0.24609 -0.11328,-0.49219 -0.16796,-0.74219 0.004,0 0.004,0 0.004,0 0.0547,0.2461 0.10938,0.4961 0.16406,0.74219 m 3.66407,-0.44531 c -0.46875,0 -0.98047,-0.0859 -1.50782,-0.21875 -0.0664,0.0625 -0.1289,0.12109 -0.1914,0.17969 -0.29297,-0.4961 -0.57031,-0.96485 -0.83594,-1.40235 4.78125,-4.30859 9.49219,-9.51172 11.60547,-13.375 0.82812,-1.51172 1.125,-3.10156 1.01562,-4.59765 0.22266,0.91797 0.375,1.98437 0.39844,3.19922 0.10156,5.60546 -5.39844,13.61328 -9.23828,15.91406 -0.35547,0.21484 -0.77734,0.30078 -1.24609,0.30078"
       fill-opacity="1"
       fill-rule="nonzero"
       id="path210" />
    <path
       fill="#684e90"
       d="m 695.26562,667.86328 c -0.0859,-0.34766 -0.17187,-0.69531 -0.25,-1.04297 -0.0547,-0.24609 -0.10937,-0.49609 -0.16406,-0.74219 0.42969,-0.37109 0.86328,-0.7539 1.29297,-1.14453 0.26563,0.4375 0.54297,0.90625 0.83594,1.40235 -0.57031,0.52734 -1.14063,1.01953 -1.71485,1.52734"
       fill-opacity="1"
       fill-rule="nonzero"
       id="path211" />
    <path
       fill="#6d5497"
       d="m 694.91016,645.96484 c 0.0859,-0.24609 0.17578,-0.48828 0.27343,-0.72656 0.22657,-0.17969 0.46094,-0.34766 0.69532,-0.51953 -0.30079,0.38281 -0.625,0.79687 -0.96875,1.24609"
       fill-opacity="1"
       fill-rule="nonzero"
       id="path212" />
    <path
       fill="#547178"
       d="m 727.51172,704.36719 c 1.11328,-0.082 2.05859,-0.19141 2.83594,-0.31641 0.38671,-2.19531 0.38281,-5.48828 -1.19532,-9.98047 -0.65625,-0.0273 -1.36718,-0.0586 -2.14062,-0.0976 0.85156,3.4414 0.74609,7.54687 0.5,10.39453"
       fill-opacity="1"
       fill-rule="nonzero"
       id="path213" />
    <path
       fill="#f8d1a5"
       d="m 697.27734,643.03906 c -3.63281,4.0586 -16.6875,22.71875 -18.07812,25.07031 -1.39063,2.34766 0.54297,6.82813 6.33594,4.44532 5.79687,-2.38282 18.34375,-13.92969 22.21484,-20.9961 3.87109,-7.0664 -3.87891,-15.89062 -10.47266,-8.51953"
       fill-opacity="1"
       fill-rule="nonzero"
       id="path214" />
    <path
       fill="#f8d1a5"
       d="m 678.79687,671.36328 c 0.66016,5.53906 2.86329,28.41016 3.39454,32.13281 0.53125,3.72266 4.51562,3.0586 4.51562,-0.66406 0,-3.72266 1.81641,-24.33203 0.375,-31.04297 -1.4375,-6.71094 -9.07422,-7.04297 -8.28516,-0.42578"
       fill-opacity="1"
       fill-rule="nonzero"
       id="path215" />
    <path
       fill="#f8d1a5"
       d="m 685.57422,699.48437 c 3.80078,4.00391 4.13281,5.07032 3.66797,7.00391 -0.46875,1.9375 -2.66797,2.44922 -2.80078,-0.33984 -0.13672,-2.79297 -0.86719,-6.66407 -0.86719,-6.66407"
       fill-opacity="1"
       fill-rule="nonzero"
       id="path216" />
    <path
       fill="#f8d1a5"
       d="m 681.88281,700.94141 c 0.21875,1.88671 -1.3125,3.14453 -1.10937,6.48046 0.19922,3.33985 4.46484,7.41016 6.93359,6.00782 2.46484,-1.40235 -0.61328,-9.80078 -0.97266,-11.67188 -0.35937,-1.875 -4.5625,-0.8164 -4.5625,-0.8164 h -0.28906"
       fill-opacity="1"
       fill-rule="nonzero"
       id="path217" />
    <path
       fill="#e9a684"
       d="m 695.23437,665.70703 c -3.75781,-1.69531 -8.14453,-5.54297 -9.34375,-7.36328 3.45704,-4.89063 7.36719,-10.29297 9.85157,-13.4375 2.35547,-1.66797 5.01172,-2.85547 7.9414,-2.85547 0.75782,0 1.53125,0.0781 2.32032,0.25 0,0 1.98046,1.85547 2.67578,5.78125 -0.0703,1.16016 -0.30078,2.33594 -0.92969,3.47656 -2.25,4.10938 -7.42969,9.69532 -12.51563,14.14844"
       fill-opacity="1"
       fill-rule="nonzero"
       id="path218" />
    <path
       fill="#816baf"
       d="m 706.55469,639.625 c -11.61328,-2.5 -19.91407,13.91406 -20.41407,15.21484 -0.5039,1.30078 10.32422,11.01172 14.16407,8.70703 3.83593,-2.30078 9.33984,-10.30859 9.23828,-15.91406 -0.0977,-5.60547 -2.98828,-8.00781 -2.98828,-8.00781"
       fill-opacity="1"
       fill-rule="nonzero"
       id="path219" />
    <path
       fill="#f8d1a5"
       d="m 709.125,630.55469 c 0.85547,2.70703 0.69531,5.84375 0.29297,6.84375 -0.40625,1 7.57812,1.5 7.12109,-0.13282 -0.45703,-1.63671 -0.95703,-4.33984 0.21094,-6.37109 1.16406,-2.03516 -7.625,-0.53516 -7.625,-0.53516 v 0.19532"
       fill-opacity="1"
       fill-rule="nonzero"
       id="path220" />
    <path
       fill="#dcc0bf"
       d="m 716.45703,636.92578 c -0.004,0 -0.004,0 -0.008,0 -0.125,-0.48437 -0.2461,-1.04297 -0.32422,-1.63672 0,0 0,0 0.004,0 0.0781,0.59375 0.20312,1.15235 0.32812,1.63672"
       fill-opacity="1"
       fill-rule="nonzero"
       id="path221" />
    <path
       fill="#834381"
       d="m 716.48437,637.03516 c 0,0 -0.004,-0.004 -0.008,-0.004 -0.0117,-0.0312 -0.0195,-0.0664 -0.0273,-0.10547 0.004,0 0.004,0 0.008,0 0.008,0.0391 0.0195,0.0742 0.0273,0.10938"
       fill-opacity="1"
       fill-rule="nonzero"
       id="path222" />
    <path
       fill="#dcc0bf"
       d="m 709.74609,634.78125 c -0.004,0 -0.008,-0.004 -0.008,-0.004 -0.004,-0.58984 -0.0391,-1.23047 -0.11719,-1.88672 0,0 0.004,0 0.004,0 0.082,0.66016 0.11719,1.30079 0.12109,1.89063"
       fill-opacity="1"
       fill-rule="nonzero"
       id="path223" />
    <path
       fill="#d89e7d"
       d="m 716.47656,637.03125 c -2.76562,-0.37891 -5.00781,-1.17578 -6.73047,-2.25 -0.004,-0.58984 -0.0391,-1.23047 -0.12109,-1.89063 1.66406,1.09375 3.80469,1.96875 6.5,2.39844 0.0781,0.59375 0.19922,1.15235 0.32422,1.63672 0.008,0.0391 0.0156,0.0742 0.0273,0.10547"
       fill-opacity="1"
       fill-rule="nonzero"
       id="path224" />
    <path
       fill="#f8d1a5"
       d="m 708.78516,607.35547 c -6.06641,1.24609 -7.98829,6.84765 -6.74219,10.3125 1.25,3.46875 2.23828,4.34375 2.66406,7.99609 0.42969,3.64844 4.19531,9.42969 14.04297,9.89063 9.84766,0.46093 5.73437,-12.05469 5.35937,-14.90625 -0.3789,-2.85157 0.32813,-8.64844 -1.26562,-11.75391 -1.59375,-3.11328 -14.05859,-1.53906 -14.05859,-1.53906"
       fill-opacity="1"
       fill-rule="nonzero"
       id="path225" />
    <path
       fill="#e3b08c"
       d="m 706.1875,629.17578 c -0.12891,0 -0.21094,-0.0156 -0.21094,-0.0156 0,0 -0.21484,-0.42579 -0.55859,-1.14454 0.0156,0 0.0352,0 0.0508,0 0.49219,0 1.67187,-0.19921 1.66016,-2.10156 0,-0.0664 0,-0.1289 -0.004,-0.1914 0.31641,0.33984 0.57422,0.51171 0.63281,1.1914 0.0117,0.13672 0.0391,0.26953 0.082,0.39453 -0.082,1.6836 -1.18359,1.86719 -1.65234,1.86719 m 2.89453,-6.44141 c -0.30469,-0.625 -0.84375,-0.91015 -1.37891,-0.91406 0.0898,-0.0391 0.1875,-0.0742 0.30079,-0.10547 1.70312,-0.50781 1.73046,-2.24218 1.35937,-5.08203 -0.004,-0.008 -0.004,-0.0117 -0.004,-0.0156 -0.13671,-1.02344 0.0312,-1.71094 0.54297,-2.16797 0,-0.004 0.004,-0.004 0.004,-0.004 0,0 0.004,-0.004 0.004,-0.004 0.78906,-0.70704 2.39453,-0.86719 4.95703,-0.86719 0.41406,0 0.85547,0.004 1.32031,0.008 0.082,0.004 0.16016,0.004 0.23828,0.004 3.24609,0 5.60938,-0.98828 7.16797,-2.11719 0.0742,0.47266 0.12891,0.95703 0.17578,1.45312 -1.55078,0.98829 -3.6875,1.82422 -6.63281,1.82422 -0.0781,0 -0.15625,-0.004 -0.23438,-0.004 -0.46484,-0.004 -0.90234,-0.008 -1.32031,-0.008 -4.23047,0 -5.85156,0.44141 -5.50781,3.03907 0.34765,2.63672 0.35547,4.32031 -0.99219,4.96093"
       fill-opacity="1"
       fill-rule="nonzero"
       id="path226" />
    <path
       fill="#90561c"
       d="m 705.25781,628.00391 c 0,0 -6.24219,-12.28516 -4.82812,-17.51954 1.41015,-5.23828 4.82812,-4.3125 4.82812,-4.3125 0,0 2.26953,-1.8789 8.19922,-3.25 5.92578,-1.37109 10.27734,-0.16796 11.01563,0.98829 0.73828,1.15625 -0.28516,1.82421 -0.28516,1.82421 0,0 2.35937,2.26172 1.28125,3.86329 -1.07813,1.60546 -4.06641,4.0625 -9.28125,3.98437 -5.21875,-0.0781 -7.20703,0.17969 -6.82813,3.03516 0.37891,2.84765 0.35157,4.58984 -1.35546,5.09765 -1.70313,0.50391 -0.89063,1.78907 -0.875,4.19922 0.0156,2.40625 -1.8711,2.08985 -1.8711,2.08985"
       fill-opacity="1"
       fill-rule="nonzero"
       id="path227" />
    <path
       fill="#d09e7b"
       d="m 707.70312,621.82031 c 0.0898,-0.0391 0.1875,-0.0742 0.30079,-0.10547 1.70312,-0.50781 1.73046,-2.24218 1.35937,-5.08203 0.37109,2.83985 0.34375,4.57422 -1.35937,5.08203 -0.11329,0.0312 -0.21094,0.0664 -0.30079,0.10547 m 1.65625,-5.20312 c -0.13671,-1.02344 0.0312,-1.71094 0.54297,-2.16797 -0.51172,0.45703 -0.67968,1.14453 -0.54297,2.16797 m 0.54688,-2.17188 c 0,0 0.004,-0.004 0.004,-0.004 0,0 -0.004,0.004 -0.004,0.004"
       fill-opacity="1"
       fill-rule="nonzero"
       id="path228" />
    <path
       fill="#eceae6"
       d="m 725.48047,609.57812 c 0,0 0,0 0.004,0 -0.004,0 -0.004,0 -0.004,0 m 0.004,-0.004 c 0,0 0,-0.004 0,-0.004 0,0 0,0.004 0,0.004 m 0,-0.004 c 0.79688,-1.23437 -0.40234,-2.84375 -1,-3.51562 0.55079,0.60547 1.82813,2.23437 1,3.51562"
       fill-opacity="1"
       fill-rule="nonzero"
       id="path229" />
    <path
       fill="#87501b"
       d="m 705.46875,628.01562 c -0.12891,0 -0.21094,-0.0117 -0.21094,-0.0117 0,0 -2.71484,-5.39844 -4.15234,-10.56641 1.39062,3.75781 2.97265,6.87891 2.97265,6.87891 0,0 0.082,0.0117 0.21094,0.0117 0.49219,0 1.67188,-0.19921 1.66016,-2.10156 -0.0156,-2.40625 -0.82813,-3.69531 0.875,-4.20312 1.70703,-0.50391 1.73437,-2.2461 1.35547,-5.09375 -0.34375,-2.60157 1.27343,-3.04297 5.50781,-3.04297 0.41406,0 0.85156,0.004 1.31641,0.008 0.082,0 0.16015,0.004 0.24218,0.004 5.06641,0 7.98047,-2.41016 9.04297,-3.98828 l 0.0117,-0.0547 c 0.0391,0.043 0.10547,0.10937 0.18359,0.19922 0.59766,0.67187 1.79688,2.28125 1,3.51562 0,0 0,0.004 0,0.004 0,0 0,0 0,0.004 -0.004,0 -0.004,0 -0.004,0 0,0 0,0 0,0.004 -0.004,0.004 -0.008,0.0117 -0.0117,0.0156 -1.0625,1.57812 -3.97266,3.98828 -9.03906,3.98828 -0.082,0 -0.16016,0 -0.24219,-0.004 -0.46484,-0.004 -0.90625,-0.008 -1.32031,-0.008 -2.5625,0 -4.16797,0.16015 -4.95703,0.86719 0,0 -0.004,0.004 -0.004,0.004 0,0 -0.004,0 -0.004,0.004 -0.51172,0.45703 -0.67968,1.14453 -0.54297,2.16797 0,0.004 0,0.008 0.004,0.0156 0.37109,2.83985 0.34375,4.57422 -1.35937,5.08203 -0.11329,0.0312 -0.21094,0.0664 -0.30079,0.10547 -0.004,0 -0.008,0 -0.0117,0 -0.89454,0 -1.76172,0.78516 -1.44922,2.05469 0.26562,1.08984 0.59765,1.53516 0.88281,1.84375 0.004,0.0664 0.004,0.12891 0.004,0.19531 0.0117,1.90235 -1.16797,2.10156 -1.66016,2.10156"
       fill-opacity="1"
       fill-rule="nonzero"
       id="path230" />
    <path
       fill="#eceae6"
       d="m 724.73047,604.87109 c 0.0352,-0.26562 -0.0195,-0.58593 -0.25391,-0.95312 0.23828,0.37109 0.28906,0.6914 0.25391,0.95312 m -0.25391,-0.95312 c 0,-0.004 -0.004,-0.004 -0.004,-0.008 0,0.004 0.004,0.004 0.004,0.008"
       fill-opacity="1"
       fill-rule="nonzero"
       id="path231" />
    <path
       fill="#87501b"
       d="m 724.35156,605.58594 c 0.2461,-0.6211 0.13281,-1.27735 -0.17187,-1.87891 0.0703,0.0703 0.25,0.13281 0.29297,0.20313 0,0.004 0.004,0.004 0.004,0.008 0.23438,0.36719 0.28906,0.6875 0.25391,0.95312 -0.043,0.33203 -0.23438,0.57422 -0.37891,0.71485"
       fill-opacity="1"
       fill-rule="nonzero"
       id="path232" />
    <path
       fill="#e3b08c"
       d="m 719.16016,626.95703 c 0,0 1.55859,-0.59766 1.17187,-1.77734 -0.38672,-1.17578 -0.60156,-4.10547 -0.60156,-4.10547 0,0 0.87109,2.7539 1.76562,4.26953 0.89844,1.51562 -2.33593,1.61328 -2.33593,1.61328"
       fill-opacity="1"
       fill-rule="nonzero"
       id="path233" />
    <path
       fill="#ffffff"
       d="m 718.41406,627.98828 0.16406,-0.0117 4.46094,-0.27734 c 0,0 -1.26172,1.58203 -2.44922,1.65625 -1.35156,0.0859 -2.17578,-1.36719 -2.17578,-1.36719"
       fill-opacity="1"
       fill-rule="nonzero"
       id="path234" />
    <path
       fill="#90561c"
       d="m 717.10547,622.46875 c 0.0312,0.50781 -0.35547,0.94141 -0.85938,0.97266 -0.50781,0.0312 -0.9414,-0.35547 -0.97265,-0.85938 -0.0312,-0.50781 0.35156,-0.94141 0.85937,-0.97266 0.50391,-0.0312 0.94141,0.35547 0.97266,0.85938"
       fill-opacity="1"
       fill-rule="nonzero"
       id="path235" />
    <path
       fill="#ffffff"
       d="m 716.65625,622.22266 c 0.008,0.13281 -0.0937,0.24609 -0.22656,0.2539 -0.13282,0.008 -0.25,-0.0937 -0.25782,-0.22656 -0.008,-0.13281 0.0937,-0.24609 0.22657,-0.25391 0.13281,-0.008 0.24609,0.0937 0.25781,0.22657"
       fill-opacity="1"
       fill-rule="nonzero"
       id="path236" />
    <path
       fill="#90561c"
       d="m 723.82422,622.01953 c 0.0312,0.50781 -0.35547,0.94141 -0.85938,0.97266 -0.5039,0.0312 -0.9375,-0.35547 -0.97265,-0.85938 -0.0312,-0.5039 0.35547,-0.9414 0.85937,-0.97265 0.50781,-0.0312 0.94141,0.35156 0.97266,0.85937"
       fill-opacity="1"
       fill-rule="nonzero"
       id="path237" />
    <path
       fill="#ffffff"
       d="m 723.375,621.76953 c 0.008,0.13281 -0.0937,0.25 -0.22656,0.25781 -0.13282,0.008 -0.25,-0.0937 -0.25782,-0.22656 -0.008,-0.13281 0.0937,-0.24609 0.22657,-0.25391 0.13281,-0.0117 0.25,0.0898 0.25781,0.22266"
       fill-opacity="1"
       fill-rule="nonzero"
       id="path238" />
    <path
       fill="#90561c"
       d="m 714.60547,621.24609 c 0,0 2.98828,-0.37109 3.49219,-0.6289 0.5039,-0.26563 0.55078,-1.95313 -0.75,-1.77735 -1.30079,0.17578 -1.95313,0.66016 -2.54297,1.05469 -0.59375,0.39453 -0.97657,1.45703 -0.19922,1.35156"
       fill-opacity="1"
       fill-rule="nonzero"
       id="path239" />
    <path
       fill="#90561c"
       d="m 724.56641,620.62891 c 0,0 -3.01172,0 -3.54297,-0.19532 -0.53516,-0.19531 -0.78907,-1.86718 0.52343,-1.85156 1.3125,0.0117 2.01954,0.41016 2.65625,0.72656 0.63672,0.32032 1.14454,1.32813 0.36329,1.32032"
       fill-opacity="1"
       fill-rule="nonzero"
       id="path240" />
    <path
       fill="#e3b08c"
       d="m 708.84766,628.18359 c -0.40235,0 -0.82813,-0.36328 -1.00782,-0.875 0.004,-0.0781 0.008,-0.15625 0.008,-0.23437 -0.0195,-2.41016 -0.83204,-3.69531 0.875,-4.20313 0.1289,-0.0391 0.25,-0.082 0.35937,-0.13672 0.10156,0.21094 0.17578,0.46094 0.21484,0.75 0,0 0.59375,1.08985 0.42969,3.3086 -0.0742,1.0039 -0.46484,1.39062 -0.8789,1.39062"
       fill-opacity="1"
       fill-rule="nonzero"
       id="path241" />
    <path
       fill="#d09175"
       d="m 707.83984,627.30859 c -0.043,-0.125 -0.0703,-0.25781 -0.082,-0.39453 -0.0586,-0.67969 -0.3164,-0.85156 -0.63281,-1.1914 -0.0469,-2.09766 -0.66406,-3.3086 0.51562,-3.875 0.0195,-0.008 0.0391,-0.0156 0.0625,-0.0274 0.53516,0.004 1.07422,0.28906 1.37891,0.91406 -0.10937,0.0547 -0.23047,0.0977 -0.35937,0.13672 -1.70704,0.50782 -0.89454,1.79297 -0.875,4.20313 0,0.0781 -0.004,0.15625 -0.008,0.23437"
       fill-opacity="1"
       fill-rule="nonzero"
       id="path242" />
    <path
       fill="#91491c"
       d="m 707.125,625.72266 c 0,0 0,0 0,-0.004 -0.0469,-2.09375 -0.66406,-3.30469 0.51562,-3.87109 -1.17968,0.5664 -0.5625,1.77734 -0.51562,3.875"
       fill-opacity="1"
       fill-rule="nonzero"
       id="path243" />
    <path
       fill="#8a431b"
       d="m 707.125,625.71875 c -0.28516,-0.30859 -0.61719,-0.75391 -0.88281,-1.84375 -0.3125,-1.26953 0.55468,-2.05469 1.44922,-2.05469 0.004,0 0.008,0 0.0117,0 -0.0234,0.0117 -0.043,0.0195 -0.0625,0.0274 -1.17968,0.5664 -0.5625,1.77734 -0.51562,3.87109"
       fill-opacity="1"
       fill-rule="nonzero"
       id="path244" />
    <path
       fill="#f8d1a5"
       d="m 709.40234,622.74609 c -0.34765,-2.60156 -3.61718,-1.89843 -3.05859,0.39063 0.55859,2.28906 1.41016,1.74219 1.51562,3.03906 0.10547,1.29688 1.8125,2.09375 1.97266,-0.12109 0.16406,-2.21875 -0.42969,-3.3086 -0.42969,-3.3086"
       fill-opacity="1"
       fill-rule="nonzero"
       id="path245" />
  </g>
</svg>
