<?xml version="1.0" encoding="UTF-8" standalone="no"?>
<svg
   width="239.9494"
   zoomAndPan="magnify"
   viewBox="0 0 179.96205 168.75"
   height="225"
   preserveAspectRatio="xMidYMid"
   version="1.0"
   id="svg295"
   xmlns="http://www.w3.org/2000/svg"
   xmlns:svg="http://www.w3.org/2000/svg">
  <defs
     id="defs24">
    <clipPath
       id="38d039ff67">
      <path
         d="m 636.26953,62.367188 h 180 V 231.11719 h -180 z m 0,0"
         clip-rule="nonzero"
         id="path16" />
    </clipPath>
  </defs>
  <g
     id="g298"
     transform="translate(-636.28881,-62.367187)">
    <g
       clip-path="url(#38d039ff67)"
       id="g113">
      <path
         fill="#667a95"
         d="m 650.39844,64.132812 c -0.73828,-1.304687 1.42187,-2.511718 2.14453,-1.199218 2.0625,3.695312 5.18359,6.855468 9.08984,8.578125 6.22656,2.90625 13.28125,2.855469 19.9961,2.398437 8.0664,-0.40625 16.8164,0.617188 23.30468,5.855469 4.76953,3.679687 7.78516,9.339844 8.64453,15.257813 1.08204,0.21875 2.16016,0.449218 3.22657,0.730468 1.57031,-3.714844 6.11718,-5.914062 9.96093,-4.484375 3.90235,1.539063 7.80469,3.074219 11.70704,4.613281 3.16406,-2.441406 7.39062,-3.976562 11.34765,-2.691406 3.24219,1.257813 6.44531,2.636719 9.625,4.050782 3.69531,1.753906 5.98047,5.570312 6.46094,9.550782 3.03125,1.22656 6.04687,2.48047 9.08984,3.67187 3.03516,1.21485 5.41407,3.86329 6.375,6.97266 0.76172,2.29297 0.63672,4.73047 0.625,7.10547 3.29297,0.88672 6.30078,2.54297 9.45313,3.79297 3.48047,1.20703 6.48828,3.86718 7.78906,7.34765 2.625,6.66797 -0.60156,14.90235 -6.90625,18.22657 -3.11719,1.80859 -6.97656,1.94531 -10.34375,0.78515 0.0273,7.05469 0.008,14.11328 0.0156,21.16406 0.0156,1.97266 -0.44532,3.96875 -1.47657,5.65625 -2.09375,3.375 -6.71875,5.25391 -10.45312,3.54688 -7.69922,-3.22266 -15.38672,-6.45703 -23.04688,-9.76953 0.2461,3.60547 0.043,7.71094 -2.92187,10.24219 2.42187,4.30468 4.79687,8.63281 7.19531,12.94921 1.71875,0.41016 3.27734,1.32813 4.43359,2.67579 4.35157,0.0195 8.70313,-0.0195 13.05469,0.0195 0.875,0.125 1.48047,-0.625 2.22266,-0.94532 1.0039,-0.58593 2.38281,-0.42578 3.10156,-1.46875 2.53125,-2.41015 4.63281,-5.34765 7.46484,-7.38671 3.14454,0.51562 6.21094,1.47656 9.34766,2.0664 2.37891,-2.35547 4.05078,-5.49609 6.52344,-7.80859 2.63672,-1.6211 5.87109,-0.30469 8.42578,0.85156 1.14844,-1.00781 1.70312,-3.41016 3.55859,-3.05469 1.67969,0.8711 3.0586,2.22266 4.53907,3.38282 0.70703,0.60156 1.67578,1.3164 1.46484,2.3789 -0.28516,1.25781 -1.36328,2.09766 -2.09375,3.09375 1.67578,2.46094 4.07422,5.75391 2.25781,8.75 -7.46875,9.54297 -14.89844,19.1211 -22.35547,28.66406 -1.59375,1.98829 -4.5039,1.51563 -6.62109,0.77735 -4.51953,-1.80078 -8.62891,-4.90625 -11.40625,-8.91016 -1.61328,-2.13672 -2.31641,-5.4375 -0.0703,-7.41406 -0.89844,-0.78906 -1.59766,-1.97656 -2.88282,-2.14063 -1.38671,-0.1875 -2.32421,-1.60546 -3.78125,-1.38281 -4.26171,0.0391 -8.52343,-0.0352 -12.78125,0.0312 -1.83984,1.71875 -4.36328,2.89063 -6.92187,2.33203 -3.45313,-0.58203 -6.19531,-3.89453 -5.94531,-7.41015 -0.0352,-0.8711 0.58593,-1.82813 0.008,-2.60938 -2.61719,-4.53125 -5.14453,-9.10547 -7.67188,-13.68359 -1.6914,0.34765 -3.48828,0.39062 -5.08593,-0.34766 -3.16407,-1.38672 -6.36719,-2.68359 -9.51563,-4.10156 -2.55469,-1.125 -3.96484,-3.97266 -3.96094,-6.67188 -0.69921,-0.17187 -1.39843,-0.32812 -2.09765,-0.48046 -0.0977,4.13671 0,8.27343 -0.0352,12.41796 -0.0312,2.80469 0.27344,5.79688 -1.08984,8.3711 -1.88672,3.83594 -6.87891,6.10547 -10.87891,4.17187 -15.83984,-7.01953 -31.60937,-14.1914 -47.4375,-21.24609 -4.08203,-1.76172 -6.39453,-6.19531 -6.4375,-10.51563 -0.0625,-10.39062 -0.0625,-20.77734 -0.13672,-31.16406 -2.17578,-1.10937 -4.51562,-1.88281 -6.66015,-3.05469 -4.41407,-2.76953 -6.33594,-8.46875 -5.25,-13.46093 0.98437,-6.14063 6.10937,-11.59375 12.40234,-12.29297 0.76953,-3.08984 3.39844,-5.65234 6.57813,-6.15234 3.03515,-0.55079 5.80468,1.14843 8.53906,2.17578 2.07031,-4.98047 6.50781,-9.03516 11.89062,-10.015629 8.74219,-1.375 17.5,-2.65625 26.2461,-4.027343 2.89062,-0.46875 5.82812,0.08594 8.55078,1.078124 -1.39063,-7.226562 -6.88281,-13.234374 -13.74219,-15.746093 -10.27344,-3.976563 -21.48047,0.25 -31.93359,-2.699219 -6.16407,-1.597656 -11.82422,-5.648438 -14.72266,-11.390625 m 68.71484,32.660156 c 0.7461,1.007813 1.96485,1.367188 3.08985,1.777344 0.625,-1.027344 1.85937,-1.804687 3.07031,-1.265625 15.76172,6.15234 31.48438,12.4375 47.17578,18.78516 2.0586,0.80859 3.46485,2.9375 3.41016,5.14062 0.0195,5.57031 -0.0273,11.14063 -0.0195,16.71094 0.13281,0.80859 -0.78125,1.51562 -1.54688,1.26172 -1.39844,-0.46485 -2.70312,-1.16016 -4.04687,-1.75 0,2.97265 -0.008,5.94531 0.0117,8.91406 1.58984,0.69141 3.19531,1.36328 4.78906,2.04687 0.53906,0.19141 0.875,0.73829 0.80078,1.3086 -0.008,8.70312 0.0273,17.40625 -0.0117,26.10547 0.15234,1.84765 -1.34375,4.02343 -3.39844,3.42187 -5.3164,-2.01172 -10.45703,-4.49609 -15.72656,-6.625 -2.10937,0.41406 -4.21094,0.8711 -6.30078,1.33203 7.01562,2.96485 13.98828,6.0586 21.07031,8.87891 4.02344,1.33594 8.07031,-2.36328 7.96485,-6.39063 0.0586,-18.29687 -0.0156,-36.59765 0.008,-54.89843 0.0898,-3.59375 -1.92188,-7.3086 -5.33203,-8.69922 C 758.0625,106.41016 742,99.996094 725.89062,93.691406 c -2.68359,-1.03125 -5.5664,0.6875 -6.78125,3.109375 m -43.64453,2.871094 c 16.84375,6.839845 33.70313,13.636715 50.5625,20.437505 1.08594,-0.42969 2.1875,-0.85547 3.33985,-1.07813 8.92968,-1.375 17.85937,-2.82422 26.79297,-4.18359 -11.82032,-4.80078 -23.74219,-9.32813 -35.5625,-14.12891 -0.23829,2.19141 0.8125,5.0625 -1.30469,6.59375 -2.72266,1.94531 -6.31641,1.92188 -9.5,1.5 -2.01953,-0.34375 -4.44141,-1.10156 -5.23828,-3.19922 -0.22657,-1.95703 -0.0469,-3.95312 -0.0937,-5.929686 -0.0312,-2.046875 1.92968,-3.285156 3.64062,-3.898438 -2.35547,-0.734375 -4.88281,-0.476562 -7.28125,-0.08984 -8.44531,1.34375 -16.92187,2.511719 -25.35156,3.976563 m 65.96094,-2.625 c 2.01953,0.796875 4.03906,1.597656 6.05078,2.394531 1.45703,-1.148437 3.12109,-2.015625 4.89844,-2.550781 -1.8086,-0.585937 -3.51563,-1.621094 -5.46875,-1.585937 -1.98047,-0.08984 -3.83594,0.722656 -5.48438,1.738281 m -34.54687,2.667969 c 3.21875,2.214838 8.125,2.273438 11.3164,-0.01953 -0.875,-1.53125 -2.84375,-1.714844 -4.39453,-2.050781 0.10156,0.933594 0.043,2.406259 -1.23437,2.402349 -1.29688,0.0273 -1.35938,-1.437505 -1.31641,-2.382818 -1.56641,0.28125 -3.53906,0.488282 -4.37109,2.050782 m 43.53515,0.839846 c 2.14063,0.91016 4.32031,1.73828 6.47266,2.63672 -0.54688,-1.42187 -1.17578,-2.83984 -2.14453,-4.03516 -1.54297,0.08984 -3.01563,0.613281 -4.32813,1.39844 m 7.59375,-1.167972 c 0.83203,1.500002 1.28125,3.152352 1.6875,4.804692 1.01953,0.69141 2.3086,0.94922 3.42969,1.48047 -0.66016,-2.73828 -2.55859,-5.08984 -5.11719,-6.285162 m -91.46484,8.519532 c 12.60937,5.08204 25.24609,10.10547 37.85937,15.19141 1.67969,0.70313 3.46875,1.22656 4.96875,2.29688 3.04688,2.14843 5.04688,5.76953 5.11719,9.50781 -0.008,13.39843 -0.008,26.78906 0.0117,40.18359 2.50391,0.58984 5.05078,1.10938 7.63672,1.13281 -3.00391,-2.29297 -4.71094,-6.03125 -4.72656,-9.78125 -0.0312,-10.71484 -0.008,-21.42968 -0.0195,-32.14062 -0.0273,-4.79688 2.24219,-9.51953 5.98047,-12.51563 -17.10547,-6.78906 -34.08593,-13.89843 -51.25,-20.53515 -2.59375,1.47656 -4.33203,4.02344 -5.57422,6.66015 m 40.4375,-5.08984 c 0.13672,0.92188 -0.40625,2.37109 0.79297,2.72266 3.20313,1.35547 7.19532,1.37109 10.23438,-0.42578 0.0156,-0.76172 0.0234,-1.52344 0.0352,-2.27735 -3.46484,1.50781 -7.58984,1.40235 -11.0625,-0.0195 m -55.2539,8.08984 c 1.15234,0.24219 2.29687,0.55079 3.38672,1.00391 0.89062,-0.78516 2.16015,-1.11719 3.26562,-0.56641 15.46485,6.17579 30.91016,12.40235 46.3711,18.59766 2.10937,0.81641 3.53515,3.01172 3.51562,5.25781 0,5.35156 0.008,10.71094 0,16.0625 0.0781,0.86328 -1.05859,1.27735 -1.72656,0.89844 -1.58985,-0.61719 -3.15235,-1.28516 -4.73828,-1.91016 2.0625,3.69532 2.125,8.19532 0.82031,12.15235 1.79297,0.97656 4.13281,1.1875 5.55078,2.6914 0.20703,9.23047 0.0312,18.5 0.0898,27.7461 0.0195,1.32422 0,3 -1.30078,3.76172 -1.05468,0.70312 -2.36328,0.30859 -3.39843,-0.21094 -14.14844,-6.3711 -28.3125,-12.70703 -42.42969,-19.13281 -0.66406,-0.23829 -1.22656,-0.91407 -1,-1.64454 2.25781,-4.94531 5.59375,-9.64062 10.42969,-12.34765 -0.57813,-1.0586 -1.04297,-2.16797 -1.39844,-3.3125 -4.95703,2.47265 -8.78906,6.84375 -11.11328,11.8164 -0.39844,0.79297 -0.8086,2 -1.9336,1.84766 -1.26953,-0.16406 -1.19922,-1.67187 -1.25,-2.62891 -0.0391,-9.74609 -0.10547,-19.48828 -0.125,-29.23828 -1.2539,-0.18359 -2.48047,-0.49609 -3.67187,-0.93359 0.0703,10.05859 0.0547,20.11719 0.12109,30.17578 0.0703,3.34375 1.82031,6.78125 5,8.14453 15.84375,6.95313 31.55469,14.20703 47.36328,21.23047 3.96485,1.78125 8.32813,-1.95703 8.36719,-5.99219 0.043,-19.6289 -0.008,-39.25 0.0273,-58.8789 0.10938,-3.6875 -2.1875,-7.35938 -5.5625,-8.86719 -15.11718,-6.04687 -30.24218,-12.08203 -45.34375,-18.18359 -1.5039,-0.52344 -2.98828,-1.41016 -4.64062,-1.19532 -2.0625,0.25782 -3.94531,1.6875 -4.67188,3.65235 m -11.64453,20.21093 c 1.2461,2.71485 4.08594,3.90625 6.66407,4.9961 -4.26563,-7.87891 0.58984,-18.91016 9.33203,-20.99219 -2.31641,-0.86328 -4.69922,-2.18359 -7.25782,-1.57812 -7.68359,1.15625 -12.24609,10.77343 -8.73437,17.57031 m 123.75,-15.65234 c 4.78906,2.83203 6.95703,8.57812 6.38672,13.96093 0.91797,-1.02734 1.92969,-1.97265 3.0664,-2.7539 -0.375,-2.59375 1.05469,-6.0625 -1.35937,-7.9375 -2.625,-1.23828 -5.35547,-2.29688 -8.08984,-3.27344 m -98.63672,1.29687 c 6.26953,4.34375 6.32422,13.94532 1.74609,19.54297 -0.58594,1.10938 -2.21484,1.71094 -1.99219,3.14453 0.0195,1.82813 -0.0117,3.65625 0,5.48828 0.0234,3.3711 1.41016,6.70313 3.80469,9.07422 0.53516,-4.24609 2.78906,-8.26172 6.27734,-10.76953 3.4961,-2.72656 8.51172,-3.58594 12.58204,-1.66406 3.67968,1.69922 7.60546,2.89453 11.09375,4.96875 2.33203,0.83594 4.66406,1.6875 6.98828,2.55859 -0.0117,-4.6289 0.0195,-9.26172 0,-13.89062 0.0508,-1.37891 -0.97657,-2.5625 -2.22266,-3.02735 -3.88281,-1.53125 -7.73437,-3.13281 -11.61719,-4.66796 -0.0586,1.77343 0.13282,3.5664 -0.10547,5.33203 -0.36328,2.30468 -3.07031,3.90625 -5.22656,2.85156 -3.61719,-1.55078 -7.25,-3.05078 -10.85547,-4.625 -1.98437,-0.79297 -3.41406,-2.78906 -3.42968,-4.9375 -0.0156,-2.15234 0.0508,-4.30469 0.0469,-6.45703 -2.35937,-0.98828 -4.75391,-1.88281 -7.09375,-2.91797 m 90.37891,0.79688 c -8.64063,1.32421 -17.26563,2.75781 -25.91016,4.02734 -5.71094,1.27344 -9.79297,6.94922 -9.73437,12.69922 0,10.51953 0,21.04687 0,31.5664 -0.0352,3.19532 1.26562,6.56641 3.9414,8.44922 2.08203,1.48047 4.8125,1.73047 7.25,1.125 9.03906,-1.92187 18.08203,-3.78515 27.10156,-5.79687 5.67969,-1.40235 9.42969,-7.21875 9.46094,-12.89063 0.0156,-9.90625 0.0117,-19.8164 0,-29.71875 -0.043,-3.70312 -1.875,-7.66015 -5.42187,-9.19531 -2.09766,-1.04297 -4.48438,-0.69531 -6.6836,-0.26953 m -102.32031,1.67578 c 0.27344,1.66406 0.91406,3.24609 1.71094,4.73047 0.5664,-0.24219 1.13672,-0.46484 1.71875,-0.67578 0.28515,-1.94531 0.63672,-3.87891 0.95312,-5.82031 -1.57422,0.28125 -3.04297,0.91015 -4.38281,1.76562 m 8.87891,-1.33984 c 1.86328,3.42968 2.07422,7.54687 1.00781,11.2539 0.98828,0.51563 2.07812,0.87891 2.96094,1.58203 0.74218,0.79688 -0.1211,2.28907 -1.1836,2 -0.98828,-0.33593 -1.90234,-0.85156 -2.89062,-1.1875 -1.76953,3.44532 -4.86719,6.23438 -8.58985,7.38282 6.31641,1.82031 12.76954,-3.27344 13.875,-9.4336 1.07032,-4.40625 -0.82031,-9.73437 -5.17578,-11.59765 m -2.22656,1.29687 c -0.26562,1.38672 -0.49219,2.77344 -0.71875,4.16797 0.73438,0.29297 1.4375,0.66406 2.08203,1.125 -0.0703,-1.83984 -0.49219,-3.66016 -1.35937,-5.29297 m -12.0586,8.58203 c 1.72657,-0.36328 3.44532,-0.7539 5.17188,-1.10547 0.10937,-0.25781 0.21875,-0.5039 0.33594,-0.7539 -1.16016,-1.39844 -1.8125,-3.10938 -2.28125,-4.83594 -1.66016,1.88672 -2.85938,4.19141 -3.22657,6.69922 m 26.96094,-7.09375 c 0.375,2.47266 -0.89844,5.57031 0.98438,7.57812 3.70312,1.875 7.65234,3.27344 11.42578,5.01172 0.73437,0.45313 1.90234,0.14063 2.04687,-0.78125 0.10547,-2 0.0234,-4.01172 0.0586,-6.01953 -4.84766,-1.89453 -9.69532,-3.8125 -14.51563,-5.78906 m -17.98047,5.3125 c -1.53515,0.74609 -2,3.1289 -0.57031,4.21875 1.51562,1.43359 4.42187,0.14453 4.19141,-1.98438 -0.0352,-1.78125 -2.03907,-2.84765 -3.625,-2.23437 m 125.11718,1.24219 c 0,1.07421 0.008,2.14843 -0.008,3.22265 1.24219,-0.85937 2.66797,-1.39453 4.13281,-1.75 -1.375,-0.5 -2.72265,-1.05468 -4.12109,-1.47265 m -134.19141,3.16015 c 0.10938,1.55469 0.51172,3.08985 1.3086,4.4375 1.45312,-1.33203 2.83203,-2.73828 4.23828,-4.11328 -0.16406,-0.47656 -0.32031,-0.94922 -0.47656,-1.42969 -1.69141,0.36719 -3.37891,0.7461 -5.07422,1.10938 m 122.375,4.23828 c 1.02734,0.52344 2.08593,0.98047 3.13672,1.46094 0,-2.03907 0.0117,-4.08203 0.0117,-6.125 -1.37109,1.28906 -2.71875,2.78125 -3.14843,4.66406 m 12.80468,-1.66406 c 0.57032,1.58984 1.19141,3.17578 2.04297,4.64843 0.53125,-0.27343 1.06641,-0.53125 1.61328,-0.76171 0.30079,-1.9375 0.59375,-3.875 0.9375,-5.80469 -1.64062,0.30469 -3.26953,0.86719 -4.59375,1.91797 m 8.92188,-1.64063 c 2.07812,3.42578 2.19531,7.64063 1.25,11.44531 0.82422,0.73047 2.15625,0.78125 2.93359,1.63672 0.57422,0.67969 0.0312,1.89844 -0.83593,1.98828 -1.11719,-0.24609 -2.12891,-0.82421 -3.19922,-1.21093 -1.76172,3.39062 -4.78125,6.10937 -8.41797,7.34375 6.57812,2.0039 13.05859,-3.74219 13.85547,-10.10938 0.7539,-4.3789 -1.39453,-9.27344 -5.57813,-11.09375 m -141.14453,5.42578 c 2.55078,-0.2539 4.94922,-1.42578 6.71484,-3.27343 -0.8125,-0.21094 -1.60546,-0.50391 -2.34375,-0.89844 -1.47656,1.37109 -2.92968,2.76562 -4.37109,4.17578 m 139.08984,-3.98438 c -0.24609,1.40235 -0.46484,2.80469 -0.67187,4.21875 0.71484,0.33985 1.39844,0.7461 2.05469,1.19922 -0.17578,-1.86718 -0.51563,-3.73828 -1.38282,-5.41797 m -7.88281,4.50782 c 0.0274,1.07812 0.0234,2.16015 0.0195,3.23437 0.3711,-0.0664 0.74219,-0.125 1.11328,-0.18359 0.53125,-1.16797 -0.83593,-1.9961 -1.13671,-3.05469 m 4.8789,2.32813 c -1.66015,0.73046 -2.07031,3.42187 -0.47265,4.43359 1.57031,1.17578 4.29687,-0.13672 4.02734,-2.17578 -0.0273,-1.71485 -2.00391,-2.92578 -3.55469,-2.25781 m -129.54297,2.23828 c 0.0703,8.57031 0.10157,17.14062 0.13672,25.71484 2.75391,-4.37891 6.64844,-8.13281 11.41016,-10.25 -2.41406,-1.76562 -4.39453,-4.14062 -5.39844,-6.98047 -1.32031,-3.22265 -0.98828,-6.7539 -0.96875,-10.14453 -1.58984,0.91797 -3.38281,1.34766 -5.17578,1.66406 m 124.67578,1.26563 c 0,0.8164 -0.008,1.6289 -0.0195,2.44922 0.4375,-0.41797 0.875,-0.83203 1.31641,-1.2461 -0.15625,-0.47656 -0.3086,-0.95312 -0.44922,-1.42578 -0.28516,0.0742 -0.57422,0.15235 -0.85157,0.22656 M 671.20703,156.125 c 0.0312,3.00781 1.17188,6.14453 3.55078,8.07812 1.41016,1.09766 3.17578,1.55079 4.75,2.34375 -4.45312,-8.11328 0.58594,-19.58203 9.64063,-21.64062 -2.33203,-0.88672 -4.67188,-2.16797 -7.25391,-1.77734 -6.22266,0.70703 -10.83594,6.91015 -10.68359,12.99609 m 110.7539,-6.84375 c -0.0117,0.33203 -0.0234,0.66406 -0.0351,0.99219 2.10547,-0.55078 3.98828,-1.69532 5.58203,-3.14844 -0.85938,-0.1875 -1.69531,-0.44922 -2.46485,-0.87891 -1.07031,0.96875 -2.0664,2.01172 -3.08203,3.03516 m -95.95312,-0.16016 c 0.46875,1.70703 1.07422,3.39063 1.99219,4.91407 0.54687,-0.26172 1.10156,-0.51172 1.65234,-0.75782 0.30469,-2.01953 0.60937,-4.04297 1.01953,-6.04297 -1.66406,0.3086 -3.25391,0.94922 -4.66406,1.89063 m 9.21875,-1.48047 c 1.91797,3.5625 2.10937,7.84766 1.05859,11.70313 0.9336,0.49218 1.94531,0.84765 2.84766,1.40625 1.03125,0.64453 0.1289,2.6289 -1.03906,2.20703 -0.97266,-0.3086 -1.87891,-0.78125 -2.8086,-1.19141 -1.92187,3.51563 -5.10547,6.34375 -8.9414,7.59375 2.4414,0.62109 5.11718,0.55469 7.39453,-0.58984 4.65234,-2.39453 7.66015,-7.71094 7.16797,-12.9375 -0.34766,-3.44922 -2.38672,-6.84375 -5.67969,-8.19532 m -2.28906,1.26563 c -0.29688,1.46875 -0.50782,2.95703 -0.74219,4.43359 0.76953,0.33594 1.51172,0.73828 2.1875,1.22657 -0.0586,-1.96485 -0.47656,-3.94141 -1.44531,-5.66407 m 77.3125,0.23047 c -0.0195,2.92969 0.0351,5.85938 -0.0312,8.78906 -0.46094,5.77344 -4.01954,11.51954 -9.58204,13.61719 4.19922,1.73438 8.30469,3.70703 12.57032,5.27344 0.18359,-8.77344 0.0469,-17.5625 0.0781,-26.33984 -1.01562,-0.44141 -2.02344,-0.89844 -3.03515,-1.33985 m -89.70313,8.82813 c 1.82813,-0.36328 3.64063,-0.78907 5.46484,-1.16016 0.0703,-0.17969 0.21485,-0.52734 0.29688,-0.70703 -1.07813,-1.58203 -1.82422,-3.35938 -2.375,-5.19141 -1.75,1.98828 -2.97266,4.4336 -3.38672,7.0625 m 9.40625,-1.94531 c -1.85547,0.69141 -2.28906,3.67969 -0.5,4.6875 1.67188,1.10156 4.48828,-0.33594 4.08594,-2.45312 -0.10547,-1.69532 -2.00781,-2.92579 -3.58594,-2.23438 m -9.51562,4.57813 c 0.15625,1.61328 0.6289,3.18359 1.35156,4.63671 1.49609,-1.40625 2.96484,-2.83984 4.43359,-4.27734 -0.14453,-0.50391 -0.28906,-1.01172 -0.42578,-1.51562 -1.79297,0.36328 -3.57031,0.76953 -5.35547,1.16015 m 3.08203,6.625 c 2.66407,-0.3164 5.125,-1.625 7.02735,-3.5 -0.91016,-0.15234 -1.78907,-0.4375 -2.59375,-0.88281 -1.4961,1.43359 -3.03516,2.83984 -4.4336,4.38281 m 15.23828,1.16016 c 2.32422,1.04297 4.64844,2.10156 6.96094,3.17187 0.0195,-1.70312 0,-3.41015 0,-5.10937 -1.375,-0.59766 -2.75781,-1.17578 -4.13281,-1.77735 -0.81641,1.33204 -1.74219,2.58985 -2.82813,3.71094 m -35.63671,7.03906 c 14.2539,6.1875 28.30859,12.8086 42.52343,19.07422 0.14063,-6.71484 0.043,-13.43359 0.0703,-20.14453 -3.04688,-1.41797 -6.12891,-2.7539 -9.17969,-4.16797 -3.90625,2.6211 -9.16016,2.85938 -13.33203,0.71485 -3.67188,-1.8086 -7.94141,-2.72266 -10.9961,-5.57032 -4.16406,2.09375 -7.16797,5.9336 -9.08593,10.09375 m 65.95703,3.03125 c 0.0742,2.44532 -0.36328,5.20313 1.21875,7.29297 0.80078,1.13282 2.26172,1.35157 3.55468,1.33203 -1.01953,-1.71093 -1.05468,-3.99218 0.17579,-5.60546 1.26562,-1.92579 4.03906,-2.74219 6.07421,-1.57032 1.35938,0.74219 2.05079,2.1875 2.76563,3.48438 1.92578,-2.31641 1.73437,-5.39844 1.66797,-8.21094 -5.14063,1.13281 -10.26172,2.39844 -15.45703,3.27344 m -10.04297,0.0469 c 0.23047,4.22657 4.95312,4.87891 8.00781,6.33985 -0.60156,-2.02344 -0.40234,-4.15235 -0.48828,-6.23047 -2.50391,0.14844 -5.02344,0.16406 -7.51953,-0.10938 m 16.8164,6.625 c 2.76563,5.36328 5.85157,10.5625 8.73047,15.86328 1.0586,-1.09375 2.35157,-1.9375 3.8086,-2.375 -2.91016,-5.2539 -5.80078,-10.52343 -8.80469,-15.72265 -1.34766,-2.14844 -4.88281,0.0508 -3.73828,2.23437 m 69.83984,5.61328 c 0.76953,1.33985 2.08985,2.21094 3.50391,2.75 1.22656,-1.47656 2.4375,-2.96093 3.59375,-4.49609 -1.1875,-0.9375 -2.32031,-1.9375 -3.54297,-2.81641 -1.15625,1.54688 -2.34375,3.07032 -3.55469,4.56641 m -6.41406,-3.19531 c -1.24219,0.47656 -0.63672,2.01953 -0.23047,2.90234 1.92969,3.77735 5.40234,6.59766 9.14063,8.5 1.5664,0.63672 3.54296,1.63672 5.16796,0.78516 1.02735,-1.83203 -0.74218,-3.72656 -1.57421,-5.30469 -1.24219,2.44922 -4.39844,1.51563 -6.07032,0.0742 -1.93359,-1.1875 -3.51562,-4.14063 -1.43359,-5.94531 -1.58594,-0.58594 -3.27734,-1.44141 -5,-1.01563 m -17.66016,22.25781 c 0.6875,0.97657 1.3711,1.96094 2.03907,2.94922 1.625,-0.10937 3.24609,-0.28515 4.87109,-0.38281 1.43359,1.14453 2.78906,2.38672 4.15234,3.60938 0.82813,0.61718 0.46485,2.10156 -0.55859,2.25 -3.12891,0.70703 -6.28516,1.32031 -9.41797,2.02343 -0.58594,0.0742 -1.30469,0.41407 -1.78516,-0.0859 -1.46875,-1.28125 -2.6914,-2.81641 -4.15234,-4.10938 -1.34766,1.60547 0.19922,3.58203 1.16406,4.95703 2.60547,3.09766 5.94141,5.72656 9.75782,7.14453 1.18359,0.28907 2.88281,0.94922 3.73828,-0.27343 6.59375,-8.44532 13.17968,-16.89454 19.77343,-25.33594 -6.3164,-1.40625 -12.04687,-5.91406 -14.78125,-11.78125 -4.9375,6.33594 -9.84375,12.69922 -14.79296,19.03125 m -5.19922,-9.78906 c 0.80078,0.45703 1.5625,0.98828 2.23828,1.625 1.33594,-1.67188 2.46484,-3.50782 3.875,-5.10938 1.83594,-0.23047 3.7539,0.43359 5.63281,0.46484 0.35938,-0.44531 0.72656,-0.88281 1.10156,-1.30859 -2.41015,-0.46484 -4.76172,-1.16406 -7.15234,-1.71094 -1.83984,2.06641 -3.75,4.06641 -5.69531,6.03907 m 7.27734,-0.84375 c -1.23828,1.63281 -2.44141,3.29296 -3.66406,4.94531 0.28906,1.15625 0.27344,2.35156 0.0547,3.52734 2.08203,-2.77734 4.25781,-5.48047 6.40625,-8.20703 -0.92579,-0.0703 -1.89063,-0.44531 -2.79297,-0.26172 m -34.8282,2.0859 c -2.4375,0.60547 -3.98828,3.38281 -3.27734,5.78125 0.54297,2.39844 3.20312,4.05469 5.59375,3.38672 2.375,-0.53125 4.01562,-3.08203 3.51562,-5.46485 -0.42578,-2.59375 -3.26562,-4.50781 -5.83203,-3.70312 m 23.36719,1.15234 c -2.44922,0.9375 -3.01953,4.51172 -1.05078,6.21485 1.98047,1.98828 5.80078,0.84765 6.35547,-1.91016 0.83203,-2.93359 -2.59766,-5.625 -5.30469,-4.30078 m -15.21875,1.30469 c 0.39844,1.42187 0.42187,2.93359 0.0234,4.36328 3.55859,-0.0156 7.11718,-0.008 10.68359,0 -0.42969,-1.42969 -0.37891,-2.94531 0.0547,-4.35938 -3.58594,0 -7.17578,0 -10.76172,0 m 19.31641,7.96875 c 1.87109,2.01172 3.76171,3.9961 5.6289,6.01953 2.39453,-0.43359 4.77344,-0.96875 7.16797,-1.42187 -0.50781,-0.4375 -1.02344,-0.86719 -1.53516,-1.29297 -1.70312,0.0156 -3.44921,0.54297 -5.11328,0.28125 -1.54297,-1.46094 -2.48047,-3.45703 -3.71093,-5.18359 -0.76563,0.60547 -1.57813,1.14453 -2.4375,1.60156 z m 0,0"
         fill-opacity="1"
         fill-rule="nonzero"
         id="path113" />
    </g>
    <path
       fill="#667a95"
       d="m 742.81641,125.14063 c 5.30468,-0.92188 10.93359,0.55859 15.14843,3.89062 4.3711,3.33594 7.05078,8.60547 7.64844,14.02734 0.95703,8.75782 -3.52734,17.96094 -11.28125,22.29297 -5.86719,3.41797 -13.58203,3.63281 -19.43359,0.082 -6.51953,-3.71875 -10.48438,-11.2539 -10.11328,-18.70703 0.1914,-10.11328 7.80078,-20.00781 18.02734,-21.57812 m -0.3125,2.6914 c -9.60938,1.92969 -16.16016,12.07813 -15.0625,21.60157 0.65234,6.89453 5.51953,13.35546 12.25781,15.32812 5.34766,1.57813 11.32422,0.20313 15.66406,-3.23047 4.97266,-3.94922 7.94532,-10.28906 7.78907,-16.63672 -0.0977,-4.83203 -2.10938,-9.66015 -5.67188,-12.96484 -3.98047,-3.59766 -9.69531,-5.35937 -14.97265,-4.10156 z m 0,0"
       fill-opacity="1"
       fill-rule="nonzero"
       id="path114" />
    <path
       fill="#667a95"
       d="m 744.03516,131.19922 c 3.59765,-0.9336 7.58984,-0.39063 10.73046,1.625 4.08985,2.59375 6.64454,7.28515 6.86719,12.09375 0.42578,6.04687 -2.64453,12.11719 -7.59765,15.5625 -3.58594,2.5 -8.375,3.30078 -12.52735,1.83984 -4.98047,-1.73437 -8.71484,-6.41797 -9.48437,-11.60547 -1.47266,-8.24609 3.70312,-17.42578 12.00781,-19.51562 m 0.90234,2.41797 c -5.8125,1.39453 -10.03515,6.99609 -10.5664,12.82812 -0.57032,5.20313 2.17578,10.83594 7.03515,13.05469 3.41407,1.64453 7.57813,1.06641 10.73438,-0.88281 4.4414,-2.85157 7.23437,-8.14063 6.89844,-13.41797 -0.21094,-4.05078 -2.23829,-8.14844 -5.77344,-10.28516 -2.44531,-1.55078 -5.52735,-1.96094 -8.32813,-1.29297 z m 0,0"
       fill-opacity="1"
       fill-rule="nonzero"
       id="path115" />
    <path
       fill="#667a95"
       d="m 745.79297,136.43359 c 1.66406,-1.03906 3.28125,1.62891 1.38672,2.32032 -4.19141,0.49218 -7.55078,4.38671 -7.48438,8.58203 0.20703,1.42968 -2.0625,1.8789 -2.5,0.5664 -0.51172,-5.23828 3.4336,-10.4414 8.59766,-11.46875 z m 0,0"
       fill-opacity="1"
       fill-rule="nonzero"
       id="path116" />
    <path
       fill="#667a95"
       d="m 791.21484,201.97266 c -0.88281,-2.25782 3.29297,-3.875 4.1836,-1.67969 0.97656,0.77734 1.41797,-1.46875 2.50781,-0.875 0.82422,0.35156 1.83203,0.60937 2.35547,1.39453 0.11328,0.80859 -0.33594,2.33984 1.02734,2.05859 1.49219,-0.34375 1.75,1.45313 2.07031,2.48828 0.48829,1.12891 -1.79687,1.58594 -0.92187,2.66016 1.78906,1.10547 0.19922,4.57422 -1.80078,3.89453 -1.08594,-0.22656 -0.71485,1.19922 -0.84766,1.83203 -0.58203,0.76563 -1.63672,0.94532 -2.49219,1.26172 -1.17578,0.47266 -1.42187,-1.92969 -2.53906,-1.08594 -1.13672,2.01563 -5.10937,0.12891 -3.85156,-2.05078 -0.63672,-0.8789 -2.01172,-0.0312 -2.54297,-1.0039 -0.5,-1.03125 -1.34766,-2.62891 -0.0312,-3.41016 1.08594,-0.65625 -0.13672,-1.54687 -0.57422,-2.17578 0.0195,-0.85156 0.41406,-1.63672 0.83203,-2.35547 0.51172,-1.06641 1.92578,-0.0977 2.6211,-0.95703 m 2.33203,-0.0234 c 0.20312,1.60938 -1.54688,3.14453 -3.125,2.80078 1.25,1.03907 1.30859,3.35157 -0.0664,4.3125 1.58203,-0.17968 3.12891,1.41797 2.94141,2.97266 1.02734,-1.09375 3.0664,-1.04297 4.03125,0.12109 0.0469,-1.51953 1.58594,-3.05859 3.16406,-2.6914 -1.125,-1.08594 -1.02734,-3.16797 0.125,-4.20313 -1.61719,0.125 -3.11719,-1.62109 -2.85937,-3.17969 -1.01954,1.31641 -3.23438,1.15625 -4.21094,-0.13671 z m 0,0"
       fill-opacity="1"
       fill-rule="nonzero"
       id="path117" />
    <path
       fill="#667a95"
       d="m 794.67578,204.09375 c 2.21875,-0.71484 4.50781,1.67187 3.76563,3.86328 -0.52344,2.27344 -3.83985,2.99219 -5.27735,1.16797 -1.47656,-1.59375 -0.59375,-4.49609 1.50781,-5.03125 m 0.375,2.50781 c -0.5,0.58985 0.28516,1.46485 0.88282,0.90235 0.53906,-0.6211 -0.25,-1.39063 -0.88282,-0.90235 z m 0,0"
       fill-opacity="1"
       fill-rule="nonzero"
       id="path118" />
    <path
       fill="#667a95"
       d="m 749.22266,204.57031 c 1.66406,-1.28906 3.53906,1.59375 1.72656,2.57422 -1.62891,1.11328 -3.4375,-1.55469 -1.72656,-2.57422 z m 0,0"
       fill-opacity="1"
       fill-rule="nonzero"
       id="path119" />
    <path
       fill="#667a95"
       d="m 773.41406,204.39062 c 1.0586,-0.36718 2.15235,0.71485 1.8711,1.78125 -0.17969,1.17579 -1.8711,1.59375 -2.61329,0.67579 -0.76953,-0.76954 -0.34765,-2.26172 0.73829,-2.46094 z m 0,0"
       fill-opacity="1"
       fill-rule="nonzero"
       id="path120" />
  </g>
</svg>
