<?xml version="1.0" encoding="UTF-8" standalone="no"?>
<svg
   width="226.99478"
   zoomAndPan="magnify"
   viewBox="0 0 170.24609 164.21091"
   height="218.94788"
   preserveAspectRatio="xMidYMid"
   version="1.0"
   id="svg352"
   xmlns="http://www.w3.org/2000/svg"
   xmlns:svg="http://www.w3.org/2000/svg">
  <defs
     id="defs27">
    <clipPath
       id="ebae0d8bd1">
      <path
         d="m 157.94531,711.86328 h 170.25 v 164.25 h -170.25 z m 0,0"
         clip-rule="nonzero"
         id="path25" />
    </clipPath>
  </defs>
  <g
     id="g353"
     transform="translate(-157.9492,-711.89061)">
    <g
       clip-path="url(#ebae0d8bd1)"
       id="g300">
      <path
         fill="#ffffff"
         d="m 328.19531,794.77734 c -0.0625,-4.625 -1.5039,-8.98828 -4.17578,-12.625 -2.72266,-3.70703 -6.53516,-6.39062 -11.01562,-7.75 l -17.67579,-35.58593 c 1.12891,-4.0625 1.05079,-8.29688 -0.22265,-12.25391 -1.23438,-3.83984 -3.52735,-7.25 -6.63672,-9.86719 -3.68359,-3.09765 -8.41797,-4.80469 -13.33203,-4.80469 -3.17188,0 -6.40625,0.71485 -9.35156,2.07032 -6.10938,2.8125 -10.10157,7.6875 -11.53516,14.08984 l -28.75,12.80078 c -0.28125,-0.27734 -0.49609,-0.57422 -0.70703,-0.85937 -0.35547,-0.48438 -0.69141,-0.94922 -1.3086,-1.23047 l -6.79296,2.76172 -2.13282,-2.24219 -0.0234,-0.004 -15.05469,6.94141 c -0.34766,0.36328 -0.38672,1.02344 -0.42969,1.66016 -0.0273,0.40625 -0.0547,0.82421 -0.16016,1.14843 l -19.5039,-5.98437 -18.54688,15.49219 c -0.17187,3.69531 -0.99218,7.10546 -1.78515,10.40234 -0.38672,1.60547 -0.78125,3.26172 -1.10547,4.94922 l 0.008,0.0234 c 1.92188,0.97265 4.23828,1.57812 6.52344,1.69921 l 0.0195,-0.0117 4.72656,-9.40625 c 1.15625,-0.61719 2.32813,-1.30469 3.57422,-2.03516 3.21875,-1.87891 6.54297,-3.82422 9.74609,-4.67578 2.71094,0.12109 5.39454,1.19922 7.99219,2.24609 2.08203,0.83985 4.24219,1.70703 6.35938,2.04297 l 3.78906,7.90234 c -0.96484,2.07422 -1.59766,4.42188 -2.20703,6.6875 -0.78516,2.92188 -1.60156,5.94141 -3.13281,8.44532 -3.14454,1.9414 -7.01172,3.49218 -10.75391,4.99218 -1.13281,0.45313 -2.20313,0.88282 -3.22656,1.31641 l -9.41016,-2.04687 -0.0195,0.0117 c -1.44922,1.97657 -2.45313,4.29297 -3.35938,6.5 l 0.0117,0.0273 c 1.23438,0.58594 2.46094,1.14453 3.65235,1.68359 3.57422,1.6211 6.95312,3.15235 10.32422,5.38281 l 23.80859,-5.20703 7.30859,-20.1914 c 0.0977,-0.008 0.19532,-0.0117 0.28907,-0.0117 0.28906,0 0.57031,0.0273 0.84375,0.0547 0.2539,0.0273 0.48828,0.0508 0.71093,0.0508 0.29688,0 0.52344,-0.043 0.71094,-0.12891 l 13.61328,-6.37109 c 0.5586,-0.26172 0.39063,-1.08203 0.24219,-1.80469 -0.10938,-0.54297 -0.21484,-1.05859 0.0352,-1.1875 l 6.26953,-3.33984 0.0117,-0.0195 -0.17188,-2.97656 27.56641,-12.07031 c 0.17968,0.0625 0.3789,0.125 0.58984,0.19141 1.39063,0.43359 3.29297,1.02734 3.91016,2.22656 l 18.26953,35.40234 c -0.82422,1.50781 -0.73828,3.21094 -0.66016,4.86328 0.0625,1.32422 0.1211,2.57813 -0.28125,3.64844 l -25.90625,35.51563 c -14.79687,1.1875 -26.84765,11.66015 -29.99219,26.0625 l -13.52343,0.1914 -0.0234,0.0156 -4.49609,16.48828 0.0195,0.0273 100.5664,-0.0234 0.0195,-0.0273 c -1.02734,-5.46875 -2.44921,-9.90625 -3.95312,-14.60156 -0.19922,-0.6211 -0.39844,-1.24219 -0.59766,-1.8711 l -0.0195,-0.0156 -13.38281,-0.28906 c -0.98047,-4.63672 -2.95703,-8.38672 -4.76563,-11.44141 l 23.33985,-32.05469 c 9.12109,-2.64453 15.40234,-11.28125 15.27734,-21 z m 0,0"
         fill-opacity="1"
         fill-rule="nonzero"
         id="path299" />
      <path
         fill="#0f0b0b"
         d="m 213.66406,779.25781 -7.3125,20.20313 -23.79687,5.19531 c -4.49219,-2.98828 -9.08985,-4.75 -13.95703,-7.06641 0.96484,-2.35547 1.94531,-4.57422 3.35546,-6.49218 l 9.41016,2.04296 c 4.45313,-1.86718 9.89453,-3.77734 13.99609,-6.30859 2.73829,-4.46875 3.14063,-10.40625 5.34766,-15.14453 l -3.78906,-7.92188 c -4.77344,-0.77734 -9.46485,-4.08203 -14.3711,-4.30078 -4.4375,1.17969 -9.15625,4.48047 -13.33203,6.71485 l -4.73047,9.41406 c -2.22656,-0.11719 -4.54687,-0.69531 -6.51562,-1.69922 0.99609,-5.17187 2.63672,-9.875 2.89453,-15.35156 l 18.53906,-15.48047 19.50391,5.99219 c 0.28125,-0.83985 0.0234,-2.23047 0.59375,-2.82032 l 15.04687,-6.9414 2.14063,2.2539 6.80859,-2.76562 c 0.94532,0.44531 1.23047,1.33594 2,2.09375 l 28.76563,-12.80469 c 1.46484,-6.51953 5.61719,-11.36719 11.53906,-14.09375 7.55469,-3.47656 16.34766,-2.57422 22.65625,2.73438 6.21484,5.23047 9.1875,13.6914 6.85547,22.10156 l 17.67187,35.59766 c 9.25782,2.82031 15.07032,11.0664 15.19141,20.36328 0.125,9.49218 -5.80469,18.23828 -15.25781,20.98047 l -23.35938,32.07421 c 2.19532,3.71094 3.88282,7.22657 4.77344,11.46094 l 13.40234,0.29297 c 1.69141,5.33594 3.38282,10.27344 4.54688,16.46875 l -100.5625,0.0234 4.49609,-16.48828 13.54297,-0.19532 c 3.13281,-14.38671 15.20703,-24.875 29.97656,-26.05859 l 25.92188,-35.52344 c 0.91406,-2.43359 -0.53125,-5.8125 0.94531,-8.51562 l -18.26953,-35.42578 c -0.71875,-1.39063 -3.16406,-1.97657 -4.51562,-2.42578 l -27.59766,12.07421 0.17578,2.99219 -6.27344,3.33985 c -0.59375,0.3164 0.69532,2.54296 -0.27343,2.99218 l -13.61719,6.3711 c -0.64844,0.30468 -1.58594,-0.0352 -2.5586,0.0391 z m 0,0"
         fill-opacity="1"
         fill-rule="nonzero"
         id="path300" />
    </g>
    <path
       fill="#f38f31"
       d="m 273.69531,838.25 -0.043,0.83203 c 2.73828,2.03906 4.71875,5.35938 5.94922,8.55078 1.28125,3.33594 3.25391,8.71875 -1.53906,9.21875 -10.24219,1.16016 -20.40625,2.03125 -30.49219,2.6211 -4.01562,0 -7.52344,0.10937 -11.03515,-0.0742 -0.3711,-0.55078 -0.76563,-1.17969 -0.69141,-1.84766 0.51562,-4.78125 7.97266,-12.53516 11.95312,-15.23047 7.25,-4.91406 14.3086,-5.89453 22.75391,-5.76172 1.4375,0.375 2.17188,1.33594 3.14453,1.69141 z m 0,0"
       fill-opacity="1"
       fill-rule="nonzero"
       id="path301" />
    <path
       fill="#a4afb5"
       d="m 299.20312,861.89844 c 1.23829,-0.0195 2.23047,6.36328 2.10547,6.82812 -0.2539,0.96485 -0.52734,1.53516 -1.53125,1.89063 l -54.51953,1.11718 c -9.24219,0.8086 -18.39453,1.06641 -27.46484,0.78125 l -1.00781,-0.99218 c 0.63281,-2.94141 1.57421,-5.7461 2.83203,-8.41407 12.38281,-0.39062 24.60547,-0.78515 36.67968,-1.17578 z m 0,0"
       fill-opacity="1"
       fill-rule="nonzero"
       id="path302" />
    <path
       fill="#f5902f"
       d="m 287.74219,805.08984 c 3.57031,6.17188 8.92968,10.1875 15.51562,11.46875 l -0.26953,1.59766 -14.80859,19.77734 c -0.83203,2.16407 -1.97266,3.53516 -3.42188,4.125 -5.58594,-4.72656 -11.6914,-7.61328 -18.5625,-8.73047 -2.33594,-0.99218 2.44922,-6.46093 3.8125,-7.63671 0.53516,-0.45704 1.01953,-0.72266 1.75391,-0.59766 -0.0703,-2.60938 1.80859,-3.54688 5.6289,-2.80469 -0.17187,-1.45312 2.16407,-4.86328 3.31641,-5.96484 l 1.63281,-0.14844 c 0.6211,-1.90625 -0.71875,-2.09766 -2.42968,-2.16406 -0.77344,-1.84766 5.51953,-10.02344 6.65234,-9.96485 0.51953,0.0234 0.89453,0.57032 1.17578,1.04297 z m 0,0"
       fill-opacity="1"
       fill-rule="nonzero"
       id="path303" />
    <path
       fill="#f18e32"
       d="m 305.29297,773.35937 c -9.51953,1.78907 -10.7461,3.8086 -16.77344,10.60547 L 287.80469,784.5 c -4.9336,-8.73438 -9.65235,-17.61328 -14.15235,-26.625 0.0234,-1.36719 -1.35156,-1.98438 -1.14843,-2.98828 7.05078,1.5664 13.59765,-1.33594 19.75,-4.63672 1.51953,0.42969 2.28125,0.64453 2.28125,0.64453 l 11.5039,21.24219 -0.74609,1.22656 z m 0,0"
       fill-opacity="1"
       fill-rule="nonzero"
       id="path304" />
    <path
       fill="#eb923c"
       d="m 323.51172,785.69141 c 3.40234,16.46093 -11.25391,31.83984 -27.53516,25.0039 -4.55469,-3.20703 -7.47656,-8.25 -7.99219,-13.79297 0.98438,-14.16797 11.99219,-22.55859 25.90235,-19.51953 4.0664,1.58594 7.46094,4.51953 9.625,8.3086 z m 0,0"
       fill-opacity="1"
       fill-rule="nonzero"
       id="path305" />
    <path
       fill="#e99139"
       d="m 281.70312,715.60156 c 4.10938,0.47266 6.15625,4.0586 8.14844,6.44531 1.12891,2.66797 1.34766,5.13672 0.66406,7.39454 1.21485,5.53515 -2.07031,13.01562 -6.39062,16.78125 -5.31641,4.625 -10.53516,4.92968 -17.14063,3.62109 -4.11718,-2.37891 -7.9375,-4.76563 -9.30468,-9.31641 -4.51172,-15.53906 8.17187,-28.95312 24.02343,-24.92578 z m 0,0"
       fill-opacity="1"
       fill-rule="nonzero"
       id="path306" />
    <path
       fill="#818a92"
       d="m 217.33594,873.54297 c -1.47657,-0.74219 -1.17578,-1.22656 0.45312,-1.02735 1.44141,-0.70312 3.19141,-0.53125 5.03906,-0.64453 l 22.38282,-1.375 54.96484,-1.125 c -0.47656,-2.69531 -1.17969,-5.07422 -0.97266,-7.47265 2.08204,0 4.19922,-0.32422 6.83985,0.0742 0.23047,3.83203 4.53906,7.64453 1.45312,11.7539 -21.64843,-0.043 -67.19922,0.13281 -90.15625,-0.18359 z m 0,0"
       fill-opacity="1"
       fill-rule="nonzero"
       id="path307" />
    <path
       fill="#f49233"
       d="m 258.04297,746.26953 -0.008,1.35938 -20.63282,9.07031 c -1.49609,1.14844 -2.83984,1.51562 -4.03125,1.10547 -2.42968,-4.03516 -4.5039,-8.08203 -5.70703,-12.27344 -0.47656,-0.64453 -0.58203,-1.10547 -0.16015,-1.78125 0.71875,-1.14844 21.6914,-9.71875 24.80078,-10.98828 l 1.41015,0.28125 c -0.19922,5.14062 1.8086,9.46484 4.32813,13.22656 z m 0,0"
       fill-opacity="1"
       fill-rule="nonzero"
       id="path308" />
    <path
       fill="#f08d30"
       d="m 215.28906,744.52344 9.75,20.66797 c 0.1836,0.44531 0.42188,1.125 0.14453,1.34375 -1.14453,0.90625 -9.70312,5.88281 -10.9375,6.27734 l -1.3789,-0.63672 -11.46485,-24.30469 12.65235,-5.96093 13.86328,29.39062 -12.65235,5.96094 -12.82812,-27.19922 c -0.0977,-0.48828 -0.21094,-1.19531 0.11328,-1.39063 1.16016,-0.69531 10.69922,-5.30859 11.30469,-5.15625 0.60156,0.15235 1.0664,0.50782 1.43359,1.00782 z m 0,0"
       fill-opacity="1"
       fill-rule="nonzero"
       id="path309" />
    <path
       fill="#e8672a"
       d="m 273.69531,838.25 c 9.42969,3.46484 15.99219,11.60937 18.32422,21.21094 l -44.44922,0.0156 c 2.44922,-1.30859 5.47266,-1.1289 8.5,-1.44531 8.00391,-0.84766 15.80469,-0.92578 23.96094,-2.87891 -0.44141,-6.53125 -3.55078,-12.35937 -8.09375,-16.33593 0.75781,-0.63672 1.29687,-0.51563 1.75781,-0.56641 z m 0,0"
       fill-opacity="1"
       fill-rule="nonzero"
       id="path310" />
    <path
       fill="#e1692c"
       d="m 305.29297,773.35937 -12.05078,-22.24218 c -5.34766,2.91797 -12.47266,6.29687 -18,4.57422 -0.98828,-0.3086 -1.77344,-1.20704 -2.74219,-0.8086 8.71875,0.44531 17.10547,-3.91797 21.52734,-12.14453 0.99219,0.42578 1.6836,1.41016 2.1875,2.57813 4.10547,9.45312 8.94532,18.25781 13.67969,27.59375 -1.48828,1.28906 -3.19531,0.17968 -4.60547,0.44531 z m 0,0"
       fill-opacity="1"
       fill-rule="nonzero"
       id="path311" />
    <path
       fill="#ea6c2c"
       d="m 284.75781,842.05859 c 0.61328,-1.8164 1.46094,-3.58593 2.74219,-5.30078 l 11.89844,-15.92578 c 1.23828,-1.65625 2.01953,-3.47656 3.85937,-4.27344 1.71094,0.33594 3.51953,-0.41406 5.87891,0.39453 l -20.9961,28.91407 c -1.68359,-1.16407 -2.27734,-2.875 -3.38281,-3.8086 z m 0,0"
       fill-opacity="1"
       fill-rule="nonzero"
       id="path312" />
    <path
       fill="#a1aab0"
       d="m 199.30859,790.62891 -0.21484,-1.04688 c 0,0 1.49219,-5.57422 4.47266,-16.72266 1.99609,-1.3125 3.93359,-1.98828 6.0625,-2.51171 l 2.55078,5.72265 -7.50782,20.63672 c -1.6875,4.64453 -5.20703,-5.51562 -5.36328,-6.08203 z m 0,0"
       fill-opacity="1"
       fill-rule="nonzero"
       id="path313" />
    <path
       fill="#f8e9c9"
       d="m 270.55078,836.55859 c -0.57812,0.92188 -1.82812,1.09766 -3.12109,1.09766 -14.14453,-0.0195 -26.84375,8.48828 -30.89453,21.74609 -1.70313,-0.0586 -3.28125,0.57032 -4.40625,-0.40625 4.57812,-17.29297 21.6875,-26.75781 38.42187,-22.43359 z m 0,0"
       fill-opacity="1"
       fill-rule="nonzero"
       id="path314" />
    <path
       fill="#e46d31"
       d="m 266.98437,749.83984 c 0.44922,-0.61328 1.91797,-0.83984 2.88672,-0.66406 9.30078,1.69922 17.70313,-5.46875 18.96875,-13.63672 0.3086,-1.99219 2.12891,-3.96875 0.15235,-6.0625 2.45312,-3.14453 -1.03125,-6.60937 0.85937,-7.42969 5.44531,6.52735 4.96875,16.45704 -0.3164,23.19922 -5.48829,7.00391 -15.41407,8.72266 -22.55079,4.59766 z m 0,0"
       fill-opacity="1"
       fill-rule="nonzero"
       id="path315" />
    <path
       fill="#e36c2f"
       d="m 295.97656,810.69531 c 2.63672,-2.01953 5.32031,2.8125 14.29688,-0.79687 7.11328,-2.85938 12.13281,-10.07813 12.42578,-17.88672 0.0859,-2.30469 -0.61719,-4.40625 0.8125,-6.32031 4.42187,7.75 2.86719,17.53515 -3.74219,23.53515 -6.60547,6 -16.49609,6.60938 -23.79297,1.46875 z m 0,0"
       fill-opacity="1"
       fill-rule="nonzero"
       id="path316" />
    <path
       fill="#a5adb3"
       d="m 201.17578,753.51562 c 1.22266,1.39844 1.74609,2.8125 2.48828,4.46485 -1.34375,1.3125 -2.84765,2.07812 -4.4375,2.46484 -0.35547,0.1211 -0.71094,0.22266 -1.07422,0.23047 -0.76953,0.0234 -12.80078,-3.77734 -14.77734,-4.45703 -0.30078,-0.10156 -0.53125,-0.41797 -0.74219,-0.78906 -1.69922,-2.14453 -2.42969,-4.50782 -3.07812,-6.76563 l 1.15234,-1.19922 c 1.48047,-0.375 16.64453,4.29297 19.52344,5.20703 0.46094,0.14844 0.79297,0.34766 0.94531,0.84375 z m 0,0"
       fill-opacity="1"
       fill-rule="nonzero"
       id="path317" />
    <path
       fill="#b2b8bb"
       d="m 219.17578,746.55078 c -0.60156,-2.03516 2.57813,-3.21094 4.25,-2.8125 l 10.31641,21.33984 c -1.6211,1.29297 -3.39844,2.47266 -5.19141,2.03516 -3.23047,-6.94141 -7.00391,-13.66797 -9.375,-20.5625 z m 0,0"
       fill-opacity="1"
       fill-rule="nonzero"
       id="path318" />
    <path
       fill="#e3692a"
       d="m 258.04297,746.26953 c 1.36328,1.11328 2.53125,1.98828 3.30859,3.57031 l -26.28906,11.57813 c -1.16406,-1.04297 -1.44531,-2.37891 -1.69141,-3.61328 1.58594,-1.58594 3.74219,-2.30469 5.97266,-3.28907 l 18.70312,-8.24609 z m 0,0"
       fill-opacity="1"
       fill-rule="nonzero"
       id="path319" />
    <path
       fill="#f4e1c0"
       d="m 287.74219,805.08984 c -1.17578,-0.0664 -1.9961,0.89844 -2.7461,1.98828 l -4.41797,6.42579 c 1.33594,0.30859 2.06641,0.35546 2.32813,1.1875 0.15234,0.48437 -0.16016,1.01562 -0.56641,1.48437 l -1.32031,-0.375 c -1.28906,1.53125 -3.81641,4.82422 -3.62891,6.49219 -2.92968,2.78125 -2.95703,-0.10156 -4.01953,1.20703 -2.16406,2.66406 1.09375,0.043 0.9375,2.87109 -0.0351,0.6211 -0.80078,1.0625 -1.53906,0.9336 -0.375,-0.0664 -0.71094,-0.52344 -1.36719,-1.26563 -1.1875,1.16797 -5.21484,5.73438 -5.20703,7.29297 -1.30469,-0.14062 -2.32422,0.25391 -3.17969,-0.53125 l 23.21485,-31.375 c 1.24219,1.24609 0.92969,2.66016 1.51172,3.66797 z m 0,0"
       fill-opacity="1"
       fill-rule="nonzero"
       id="path320" />
    <path
       fill="#a1a8ac"
       d="m 164.03906,760.86328 c -0.21875,-0.25781 -0.3789,-0.49219 -0.32422,-0.65625 0.26172,-0.76953 10.9336,-9.40234 12.4336,-10.48047 0.17968,-0.1289 0.49218,-0.0781 0.83593,0.0274 1.4336,2.48828 2.27344,4.80468 3.33594,7.63671 -3.72656,2.07813 -7.21484,3.98438 -11.125,5.76954 -1.82812,0.83593 -3.94922,-1.26172 -5.15234,-2.30079 z m 0,0"
       fill-opacity="1"
       fill-rule="nonzero"
       id="path321" />
    <path
       fill="#e16b31"
       d="m 212.86719,772.17578 12.17187,-6.98828 2.87891,6.10937 -12.65235,5.96485 z m 0,0"
       fill-opacity="1"
       fill-rule="nonzero"
       id="path322" />
    <path
       fill="#f5f5f7"
       d="m 256.29687,861.93359 c -1.0664,0.125 -2.62109,1.10547 -4.35546,0.76953 -3.1875,-0.61718 -6.26563,0.1836 -9.35938,0.33204 -7.55859,0.36328 -14.89844,0.0508 -22.375,0.98437 l -2.41406,8.5 -0.45313,1.02734 c -0.60156,-0.008 -2.15625,0.41797 -2.42187,-0.33593 0.91406,-4.07032 1.85156,-7.73047 3.30859,-11.4336 l 38.07031,0.16016 z m 0,0"
       fill-opacity="1"
       fill-rule="nonzero"
       id="path323" />
    <path
       fill="#a8adb2"
       d="m 198.65625,796.27734 c -0.21484,0.375 -0.44531,0.73438 -0.74219,1.03125 -0.78515,0.79297 -13.14844,3.72266 -14.19531,3.41797 -0.39453,-0.11719 -0.74609,-0.3789 -1.08984,-0.68359 0.26562,-1.13672 -0.44141,-4.40625 0.59375,-4.97656 -0.15235,0.57031 -0.0352,0.8164 0.35546,0.74218 2.5586,-1.57031 8.89844,-4.27734 11.98438,-5.44531 0.12109,-0.0469 0.33203,0.14063 0.56641,0.39844 0.53125,2.05859 1.99218,3.69531 2.52343,5.51562 z m 0,0"
       fill-opacity="1"
       fill-rule="nonzero"
       id="path324" />
    <path
       fill="#f5e8cf"
       d="m 253.71484,733.04297 c -0.54297,0.79687 -1.45312,1.1875 -2.52343,1.65234 l -21.6211,9.36328 c -0.92187,0.39844 -1.85156,0.5 -1.90234,1.47266 -0.74219,-0.55469 -1.76563,-2.26953 -0.75391,-2.72266 l 26.30078,-11.7539 c 0.61328,0.65625 0.52735,1.39453 0.50391,1.98828 z m 0,0"
       fill-opacity="1"
       fill-rule="nonzero"
       id="path325" />
    <path
       fill="#f5e3cb"
       d="m 281.70312,715.60156 c -7.25,-0.83594 -14.47656,0.90625 -19.6289,6.52344 -4.76953,5.19922 -4.80469,11.84375 -4.39453,18.40234 -3,-7.01953 -1.77344,-15.27734 3.89062,-20.88281 5.07422,-5.01953 13.32813,-7.05469 20.13281,-4.04297 z m 0,0"
       fill-opacity="1"
       fill-rule="nonzero"
       id="path326" />
    <path
       fill="#f2e0c3"
       d="m 313.88672,777.38281 c -0.27735,0.4961 -1.5,0.46094 -2.36328,0.33985 -11.40625,-1.60157 -21.1875,5.89062 -22.47266,17.27734 -0.0977,0.87109 -0.5625,1.59375 -1.06641,1.90234 -0.61718,-6.58203 2.22266,-13.01172 7.5,-16.98828 5.28125,-3.97656 12.2461,-4.93359 18.40235,-2.53125 z m 0,0"
       fill-opacity="1"
       fill-rule="nonzero"
       id="path327" />
    <path
       fill="#f5f6f7"
       d="m 201.17578,753.51562 c -6.13672,-0.16406 -15.15234,-4.875 -21.62109,-4.85156 -0.64453,-0.91406 -0.91407,-1.73437 -0.39063,-2.47265 0.28906,-0.41407 0.97656,-0.61329 1.77344,-0.36719 l 18.44141,5.66797 c 1.16796,0.35937 1.875,0.92968 1.79687,2.02343 z m 0,0"
       fill-opacity="1"
       fill-rule="nonzero"
       id="path328" />
    <path
       fill="#969ca0"
       d="m 199.23828,763.35156 5.71484,-2.76953 3.5586,7.33594 -5.71485,2.76953 z m 0,0"
       fill-opacity="1"
       fill-rule="nonzero"
       id="path329" />
    <path
       fill="#f0d6b4"
       d="m 288.51562,783.96484 c -0.51171,0.70703 -0.043,1.79297 -0.91406,2.41407 l -12.8164,-25.1836 c -0.65625,-1.29297 -1.15625,-2.07031 -1.13672,-3.32031 0.59765,0.85156 1.54687,1.64453 2.13672,2.78125 l 10.33593,19.92578 c 0.71094,1.36719 1.12891,2.74609 2.39844,3.38281 z m 0,0"
       fill-opacity="1"
       fill-rule="nonzero"
       id="path330" />
    <path
       fill="#f0f0f1"
       d="m 203.56641,772.85937 c -0.32032,6.03907 -1.51954,12.38282 -4.25782,17.76954 -0.78515,-1.17188 -1.52343,-2.28125 -1.10937,-3.57032 l 4.1914,-13.07031 c 0.21485,-0.67187 0.75391,-1 1.17579,-1.12891 z m 0,0"
       fill-opacity="1"
       fill-rule="nonzero"
       id="path331" />
    <path
       fill="#81868b"
       d="m 182.62891,800.04297 c 5.44921,-0.6836 10.67968,-2.50781 16.02343,-3.76563 0.27735,0.94922 1.5586,1.28125 1.07813,2.26563 l -17.03906,3.42578 c -0.48829,-0.60156 -0.14454,-1.5625 -0.0625,-1.92578 z m 0,0"
       fill-opacity="1"
       fill-rule="nonzero"
       id="path332" />
    <path
       fill="#f3e1cb"
       d="m 215.28906,744.52344 c -1.47656,0.1289 -2.34375,0.62109 -3.37109,1.09765 l -9.48438,4.44141 -1.03125,-2.19141 12.65235,-5.96484 1.23437,2.61328 z m 0,0"
       fill-opacity="1"
       fill-rule="nonzero"
       id="path333" />
    <path
       fill="#979ca1"
       d="m 163.42187,772.61719 c -0.375,0.76562 -2.76562,0.11718 -2.77343,-0.61719 l 1.9375,-8.59766 c 1.64843,0.32032 2.55859,1.16407 3.87109,2.14063 -0.75,2.36328 -1.75,4.41797 -3.03516,7.07031 z m 0,0"
       fill-opacity="1"
       fill-rule="nonzero"
       id="path334" />
    <path
       fill="#eff1f1"
       d="m 176.98437,749.75781 c -0.44531,2.72266 -10.46875,8.15625 -12.94531,11.10547 -0.65234,-0.20312 -1.00781,-0.42969 -0.95703,-0.80078 0.0234,-0.17188 0.1875,-0.47656 0.47656,-0.72266 l 11.77735,-9.91015 c 0.40625,-0.34375 0.69531,-0.70703 1.15625,-0.5586 0.35937,0.10938 0.32422,0.59766 0.48828,0.88672 z m 0,0"
       fill-opacity="1"
       fill-rule="nonzero"
       id="path335" />
    <path
       fill="#878d91"
       d="m 199.22266,760.44531 c -0.90235,1.03906 -1.98829,1.09766 -3.13282,0.69531 -4.21875,-1.49218 -8.24218,-2.9414 -12.53906,-4.125 -0.90625,-0.25 -0.64844,-1.24218 -0.92187,-1.58593 5.66015,0.84765 11.57421,2.28906 16.59375,5.01562 z m 0,0"
       fill-opacity="1"
       fill-rule="nonzero"
       id="path336" />
    <path
       fill="#eeeeef"
       d="m 196.13281,790.76172 c 1.34375,-0.11328 -17.22265,8.41797 -12.91015,4.30469 l 11.51562,-5.1875 c 0.51953,-0.22657 1.10938,-0.21094 1.19922,0.13281 z m 0,0"
       fill-opacity="1"
       fill-rule="nonzero"
       id="path337" />
    <path
       fill="#939598"
       d="m 179.55859,795.34375 c 1.65625,-2.74219 0.82422,4.28906 0.35547,4.91016 -2.73047,-1.21875 -5.24219,-2.12891 -7.74609,-3.58594 -0.71485,-0.41797 -0.22266,-2.34766 0.52734,-2.26563 2.54688,1 4.83594,1.31641 6.86328,0.94532 z m 0,0"
       fill-opacity="1"
       fill-rule="nonzero"
       id="path338" />
    <path
       fill="#f1f1f1"
       d="m 223.42578,743.73828 c -0.89453,1.58203 -3,1.58984 -4.25,2.8125 -0.63672,-0.55859 -1.8125,-2 -1.125,-2.63281 1.20703,-1.11328 3.09766,-1.82031 4.58594,-2.00781 0.70703,0.0937 0.64062,1.53906 0.79297,1.82812 z m 0,0"
       fill-opacity="1"
       fill-rule="nonzero"
       id="path339" />
    <path
       fill="#d8d9dd"
       d="m 179.55859,795.34375 c 1.92578,1.90625 -8.6914,0.42969 -6.86718,-0.94141 2.41796,-0.78515 4.61328,0.51953 6.86718,0.94141 z m 0,0"
       fill-opacity="1"
       fill-rule="nonzero"
       id="path340" />
    <path
       fill="#fceec8"
       d="m 282.34375,816.17578 c -1.71875,1.99609 -3.05859,4.31641 -4.95313,6.11719 -3.75781,0.88281 0.92579,-3.73828 2.6211,-7.10156 0.35547,-0.70313 1.21094,-0.61719 1.58984,-0.46485 0.51563,0.21094 0.90625,0.90625 0.74219,1.44922 z m 0,0"
       fill-opacity="1"
       fill-rule="nonzero"
       id="path341" />
    <path
       fill="#1d100f"
       d="m 319.19531,795.08203 c 0,0.79297 -0.0781,1.58203 -0.23437,2.36328 -0.15625,0.77735 -0.38282,1.53516 -0.6875,2.26953 -0.30469,0.73438 -0.67969,1.4336 -1.1211,2.09375 -0.4414,0.66016 -0.94531,1.27344 -1.50781,1.83594 -0.5625,0.5625 -1.17187,1.0625 -1.83203,1.50391 -0.66406,0.44531 -1.35938,0.8164 -2.09766,1.12109 -0.73437,0.30469 -1.49218,0.53516 -2.26953,0.6875 -0.78125,0.15625 -1.57031,0.23438 -2.36328,0.23438 -0.79687,0 -1.58594,-0.0781 -2.36328,-0.23438 -0.78125,-0.15234 -1.53906,-0.38281 -2.27344,-0.6875 -0.73437,-0.30469 -1.43359,-0.67578 -2.09375,-1.12109 -0.66406,-0.44141 -1.27344,-0.94141 -1.83594,-1.50391 -0.5625,-0.5625 -1.0664,-1.17578 -1.50781,-1.83594 -0.4414,-0.66015 -0.8125,-1.35937 -1.11719,-2.09375 -0.30468,-0.73437 -0.53515,-1.49218 -0.6914,-2.26953 -0.15625,-0.78125 -0.23047,-1.57031 -0.23047,-2.36328 0,-0.79687 0.0742,-1.58203 0.23047,-2.36328 0.15625,-0.78125 0.38672,-1.53906 0.6914,-2.27344 0.30469,-0.73437 0.67579,-1.42969 1.11719,-2.09375 0.44141,-0.66015 0.94531,-1.26953 1.50781,-1.83203 0.5625,-0.5625 1.17579,-1.06641 1.83594,-1.50781 0.66016,-0.44141 1.35938,-0.81641 2.09375,-1.11719 0.73438,-0.30469 1.49219,-0.53516 2.27344,-0.69141 0.77734,-0.15625 1.56641,-0.23046 2.36328,-0.23046 0.79297,0 1.58203,0.0742 2.36328,0.23046 0.77735,0.15625 1.53516,0.38672 2.26953,0.69141 0.73828,0.30078 1.4336,0.67578 2.09766,1.11719 0.66016,0.4414 1.26953,0.94531 1.83203,1.50781 0.5625,0.5625 1.06641,1.17188 1.50781,1.83203 0.44141,0.66406 0.81641,1.35938 1.1211,2.09375 0.30468,0.73438 0.53125,1.49219 0.6875,2.27344 0.15625,0.78125 0.23437,1.56641 0.23437,2.36328 z m 0,0"
       fill-opacity="1"
       fill-rule="nonzero"
       id="path342" />
    <path
       fill="#1b0f0e"
       d="m 286.95312,733.12891 c 0,0.78515 -0.0781,1.5664 -0.23046,2.33984 -0.15625,0.77344 -0.38282,1.52734 -0.6836,2.25391 -0.30469,0.73046 -0.67187,1.42187 -1.11328,2.07812 -0.4375,0.65625 -0.93359,1.26172 -1.49219,1.82031 -0.55859,0.5586 -1.16406,1.05469 -1.82031,1.49219 -0.65625,0.4375 -1.34766,0.80859 -2.07812,1.10938 -0.72657,0.30468 -1.48047,0.53125 -2.25391,0.68359 -0.77344,0.15625 -1.55469,0.23047 -2.34375,0.23047 -0.78906,0 -1.57031,-0.0742 -2.34375,-0.23047 -0.77344,-0.15234 -1.52344,-0.37891 -2.25391,-0.68359 -0.72656,-0.30079 -1.42187,-0.67188 -2.07812,-1.10938 -0.65235,-0.4375 -1.26172,-0.93359 -1.82031,-1.49219 -0.55469,-0.55859 -1.05469,-1.16406 -1.49219,-1.82031 -0.4375,-0.65625 -0.8086,-1.34766 -1.10938,-2.07812 -0.30468,-0.72657 -0.53125,-1.48047 -0.68359,-2.25391 -0.15625,-0.77344 -0.23047,-1.55469 -0.23047,-2.33984 0,-0.78907 0.0742,-1.57032 0.23047,-2.34375 0.15234,-0.77344 0.37891,-1.52735 0.68359,-2.25391 0.30078,-0.73047 0.67188,-1.42188 1.10938,-2.07813 0.4375,-0.65234 0.9375,-1.26171 1.49219,-1.82031 0.55859,-0.55469 1.16796,-1.05469 1.82031,-1.49219 0.65625,-0.4375 1.35156,-0.80859 2.07812,-1.10937 0.73047,-0.30078 1.48047,-0.53125 2.25391,-0.68359 0.77344,-0.15235 1.55469,-0.23047 2.34375,-0.23047 0.78906,0 1.57031,0.0781 2.34375,0.23047 0.77344,0.15234 1.52734,0.38281 2.25391,0.68359 0.73046,0.30078 1.42187,0.67187 2.07812,1.10937 0.65625,0.4375 1.26172,0.9375 1.82031,1.49219 0.5586,0.5586 1.05469,1.16797 1.49219,1.82031 0.44141,0.65625 0.80859,1.34766 1.11328,2.07813 0.30078,0.72656 0.52735,1.48047 0.6836,2.25391 0.15234,0.77343 0.23046,1.55468 0.23046,2.34375 z m 0,0"
       fill-opacity="1"
       fill-rule="nonzero"
       id="path343" />
    <path
       fill="#a9b0b9"
       d="m 315.82031,791.875 c 1.42969,8.34766 -5.78906,14.42187 -13.64062,11.15625 -2.69532,-0.81641 -3.78907,-3.30469 -4.36328,-5.50391 0.1875,-8.02343 5.67968,-12.41797 13.5625,-11.02734 2.9414,1.3125 3.36328,3.01953 4.4414,5.375 z m 0,0"
       fill-opacity="1"
       fill-rule="nonzero"
       id="path344" />
    <path
       fill="#858c8f"
       d="m 302.18359,803.03125 c 4.72657,0.60547 10.98828,-0.71484 12.38672,-6.22266 l 1.25391,-4.93359 c 1.80859,3.94922 0.66406,8.3125 -2.6836,10.87109 -3.11328,2.37891 -8.09765,3.10547 -10.95703,0.28516 z m 0,0"
       fill-opacity="1"
       fill-rule="nonzero"
       id="path345" />
    <path
       fill="#f6f7f6"
       d="m 311.37891,786.5 c -0.51563,0.57422 -1.39063,0.53516 -2.375,0.54687 -5.51954,0.0547 -10.07422,3.78907 -10.45704,9.29297 -0.0469,0.625 -0.42187,1.03125 -0.72656,1.1875 -0.82031,-4.17187 0.63672,-7.80859 3.63281,-10.16797 3.03125,-2.38671 6.52735,-2.37109 9.92579,-0.85546 z m 0,0"
       fill-opacity="1"
       fill-rule="nonzero"
       id="path346" />
    <path
       fill="#aab5bc"
       d="m 282.37891,727.43359 c 4.30468,9.07032 -4,17.96485 -13.07032,13.02735 -1.53125,-1.38672 -2.98828,-2.37891 -3.10156,-4.32032 -1.22656,-8.25 5.14453,-12.92968 13.01953,-11.5664 1.82422,0.76172 2.16797,1.79687 3.15235,2.85937 z m 0,0"
       fill-opacity="1"
       fill-rule="nonzero"
       id="path347" />
    <path
       fill="#8a9397"
       d="m 269.30859,740.46094 c 5.05469,1.58593 10.60547,0.30468 12.625,-5.15235 0.94922,-2.57422 0.72266,-5.38281 0.44532,-7.875 3.33984,3.61328 2.60937,9.48047 -0.69141,12.67969 -3.45313,3.34766 -8.86719,3.53906 -12.37891,0.34766 z m 0,0"
       fill-opacity="1"
       fill-rule="nonzero"
       id="path348" />
    <path
       fill="#f0f2f2"
       d="m 279.22656,724.57422 c -1.46875,0.8164 -3.26562,0.32031 -5.09765,0.85156 -4.1836,1.21094 -7.69532,4.34375 -7.51954,8.94531 0.0274,0.73047 0.35938,1.8125 -0.40234,1.76953 -1.48047,-3.91015 -0.23047,-7.79687 2.49219,-10.21093 3.0625,-2.71094 7.0039,-2.82813 10.52344,-1.35547 z m 0,0"
       fill-opacity="1"
       fill-rule="nonzero"
       id="path349" />
  </g>
</svg>
