<?xml version="1.0" encoding="UTF-8" standalone="no"?>
<svg
   width="224.91347"
   zoomAndPan="magnify"
   viewBox="0 0 168.6851 156.75"
   height="209"
   preserveAspectRatio="xMidYMid"
   version="1.0"
   id="svg295"
   xmlns="http://www.w3.org/2000/svg"
   xmlns:svg="http://www.w3.org/2000/svg">
  <defs
     id="defs24">
    <clipPath
       id="ba0d3c567d">
      <path
         d="M 25,107 H 187.54687 V 258 H 25 Z m 0,0"
         clip-rule="nonzero"
         id="path3" />
    </clipPath>
    <clipPath
       id="692a7bd3b5">
      <path
         d="m 40,236 h 20 v 24.05859 H 40 Z m 0,0"
         clip-rule="nonzero"
         id="path4" />
    </clipPath>
    <clipPath
       id="44ae9fd878">
      <path
         d="m 110,103.30859 h 22 V 120 h -22 z m 0,0"
         clip-rule="nonzero"
         id="path5" />
    </clipPath>
    <clipPath
       id="3510b01ddd">
      <path
         d="M 18.796875,193 H 38 v 25 H 18.796875 Z m 0,0"
         clip-rule="nonzero"
         id="path6" />
    </clipPath>
  </defs>
  <path
     fill="#f27d65"
     d="M 136.07165,25.230469 C 109.79822,13.761719 76.438843,19.476563 49.403683,49.863282 11.673218,92.273441 37.141973,143.48047 42.040403,152.37109 c 3.21875,-0.76562 6.09766,-1.72265 8.21875,-2.61718 13.07813,-5.51563 40.14063,-22.64063 32.91016,-39.49219 -4.08984,-9.53125 -6.26953,-18.367189 -6.58203,-26.351559 -0.39453,-10.13282 2.21484,-18.90625 7.73437,-26.01563 7.19141,-9.261718 18.535157,-14.624999 30.105467,-15.171874 13.40235,-0.636719 24.45703,5.617188 32.35938,19.332034 5.8789,10.20312 -3.70703,24.23047 -14.2461,17.17969 -4.44922,-2.97657 -6.96875,3.51953 -0.86718,8.40234 11.03125,8.83594 24.51953,1.67187 31.90625,-8.07422 1.02734,-1.35547 1.88671,-2.80469 2.59765,-4.33203 2.46875,-25.632814 -17.86328,-44.656252 -30.10547,-50.003908 z m 0,0"
     fill-opacity="1"
     fill-rule="nonzero"
     id="path27" />
  <g
     clip-path="url(#ba0d3c567d)"
     id="g28"
     transform="translate(-18.822876,-103.30859)">
    <path
       fill="#e14b36"
       d="m 180.10156,142.94531 c -7.07422,-11.27344 -16.20703,-21.79297 -36.58984,-30.73047 -27.625,-12.10937 -68.984376,-0.94531 -90.066408,21.45313 -10.769531,11.44922 -26.726562,34.3789 -27.839843,61.85937 -1.359375,33.44141 5.777343,47.85157 7.347656,52.44141 3.613281,10.55078 17.535156,10.16797 27.910156,7.70703 C 55.964844,246.78516 30.5,195.57812 68.230469,153.16797 95.261719,122.78516 128.625,117.06641 154.89844,128.53516 c 12.24218,5.34765 32.57422,24.37109 30.10937,50.0039 4.69922,-10.10156 2.61328,-23.61719 -4.90625,-35.59765 z m 0,0"
       fill-opacity="1"
       fill-rule="nonzero"
       id="path28" />
  </g>
  <g
     clip-path="url(#692a7bd3b5)"
     id="g29"
     transform="translate(-18.822876,-103.30859)">
    <path
       fill="#e14b36"
       d="m 57.460938,257.26953 c -0.890626,1.05078 -1.976563,1.82422 -3.222657,2.29688 -4.917969,1.86328 -10.851562,-1.70704 -13.234375,-7.95704 -1.722656,-4.53125 -1.183594,-9.40234 1.371094,-12.41796 0.894531,-1.05469 1.980469,-1.82813 3.226562,-2.29688 4.914063,-1.86328 10.851563,1.70703 13.234376,7.95703 1.722656,4.52735 1.183593,9.40235 -1.375,12.41797 z m 0,0"
       fill-opacity="1"
       fill-rule="nonzero"
       id="path29" />
  </g>
  <path
     fill="#ff9d86"
     d="m 37.552123,142.47656 c 1.83985,4.82422 0.4375,9.83203 -3.128905,11.17969 -3.5625,1.35156 -7.941406,-1.46484 -9.777344,-6.28906 -1.835938,-4.82422 -0.4375,-9.82813 3.128906,-11.17969 3.5625,-1.35156 7.941406,1.46484 9.781253,6.28906 z m 0,0"
     fill-opacity="1"
     fill-rule="nonzero"
     id="path30" />
  <path
     fill="#f27d65"
     d="m 34.93103,143.54688 c 1.042969,2.75 0.246094,5.59765 -1.78125,6.36718 -2.027344,0.76953 -4.523437,-0.83593 -5.566406,-3.58203 -1.046875,-2.74609 -0.25,-5.59375 1.78125,-6.36328 2.03125,-0.76953 4.523438,0.83594 5.566406,3.58203 z m 0,0"
     fill-opacity="1"
     fill-rule="nonzero"
     id="path31" />
  <path
     fill="#e14b36"
     d="m 17.954468,143.08203 c -1.074219,0.86719 -2.28125,1.42969 -3.597656,1.66406 -5.175782,0.92969 -10.351563,-3.66796 -11.539063,-10.2539 -0.855469,-4.76563 0.574219,-9.45703 3.640625,-11.94922 1.074219,-0.87109 2.28125,-1.43359 3.597656,-1.67188 5.175782,-0.92187 10.347656,3.67579 11.539063,10.25391 0.855469,4.76563 -0.570313,9.46094 -3.640625,11.95313 z m 0,0"
     fill-opacity="1"
     fill-rule="nonzero"
     id="path32" />
  <path
     fill="#ff9d86"
     d="m 19.001343,131.59375 c 0.917969,5.07813 -1.382813,9.74219 -5.136719,10.41406 -3.75,0.67188 -7.535156,-2.90234 -8.453125,-7.98047 -0.914063,-5.07812 1.386719,-9.74609 5.140625,-10.41406 3.753906,-0.67187 7.535156,2.89844 8.453125,7.97656 z m 0,0"
     fill-opacity="1"
     fill-rule="nonzero"
     id="path33" />
  <path
     fill="#f27d65"
     d="m 16.227905,132.16016 c 0.519531,2.89453 -0.789062,5.54687 -2.925781,5.92968 -2.136719,0.38672 -4.289062,-1.64843 -4.808594,-4.53906 -0.523437,-2.89453 0.785156,-5.54687 2.921875,-5.92969 2.136719,-0.38671 4.292969,1.65235 4.8125,4.53907 z m 0,0"
     fill-opacity="1"
     fill-rule="nonzero"
     id="path34" />
  <path
     fill="#e14b36"
     d="m 31.415405,128.10938 c -1.203125,0.67968 -2.488281,1.03515 -3.824219,1.05078 -5.257812,0.0586 -9.597656,-5.33203 -9.675781,-12.01563 -0.05859,-4.83984 2.128907,-9.23437 5.570313,-11.1875 1.203125,-0.67969 2.488281,-1.03515 3.824218,-1.05078 5.257813,-0.0586 9.597657,5.33203 9.675787,12.01563 0.0547,4.84765 -2.132818,9.23437 -5.574224,11.1875 z m 0,0"
     fill-opacity="1"
     fill-rule="nonzero"
     id="path35" />
  <path
     fill="#ff9d86"
     d="m 34.356812,116.95703 c 0.05859,5.16016 -2.984376,9.375 -6.796876,9.42188 -3.8125,0.043 -6.953124,-4.10547 -7.011718,-9.26563 -0.05859,-5.16015 2.984375,-9.3789 6.796875,-9.42187 3.8125,-0.043 6.949219,4.10547 7.007812,9.26562 z m 0,0"
     fill-opacity="1"
     fill-rule="nonzero"
     id="path36" />
  <path
     fill="#f27d65"
     d="m 31.52478,117.05859 c 0.03516,2.9375 -1.699218,5.33594 -3.867187,5.36329 -2.171875,0.0234 -3.960938,-2.33594 -3.992188,-5.27344 -0.03516,-2.9375 1.695313,-5.33985 3.867188,-5.36328 2.171875,-0.0273 3.957031,2.33593 3.992187,5.27343 z m 0,0"
     fill-opacity="1"
     fill-rule="nonzero"
     id="path37" />
  <path
     fill="#e14b36"
     d="m 28.263062,101.65625 c -1.289063,0.50391 -2.613282,0.67188 -3.933594,0.49219 -5.210938,-0.6875 -8.738282,-6.640629 -7.855469,-13.273439 0.640625,-4.79687 3.433594,-8.83203 7.121094,-10.27344 1.285156,-0.5039 2.609375,-0.67187 3.933593,-0.49609 5.210938,0.69141 8.734376,6.64844 7.851563,13.27344 -0.636719,4.80078 -3.433594,8.835929 -7.117187,10.277339 z m 0,0"
     fill-opacity="1"
     fill-rule="nonzero"
     id="path38" />
  <path
     fill="#ff9d86"
     d="m 32.77478,91.035161 c -0.683594,5.11718 -4.296875,8.85937 -8.078125,8.35937 -3.78125,-0.5039 -6.292969,-5.05469 -5.613281,-10.17187 0.679688,-5.11328 4.296875,-8.85547 8.078125,-8.35547 3.78125,0.5 6.292969,5.05078 5.613281,10.16797 z m 0,0"
     fill-opacity="1"
     fill-rule="nonzero"
     id="path39" />
  <path
     fill="#f27d65"
     d="m 29.954468,90.734381 c -0.386719,2.91406 -2.441406,5.04296 -4.597656,4.75781 -2.148438,-0.28516 -3.582032,-2.87891 -3.191407,-5.78906 0.390625,-2.91407 2.445313,-5.04688 4.597657,-4.75782 2.152343,0.28516 3.582031,2.875 3.191406,5.78907 z m 0,0"
     fill-opacity="1"
     fill-rule="nonzero"
     id="path40" />
  <path
     fill="#e14b36"
     d="m 15.223999,83.164061 c -1.34375,0.31641 -2.679687,0.29297 -3.964844,-0.0703 -5.058593,-1.42969 -7.691406,-7.82422 -5.871093,-14.26172 1.324218,-4.66015 4.667968,-8.25 8.519531,-9.15234 1.34375,-0.31641 2.679687,-0.28906 3.964843,0.0703 5.0625,1.42969 7.695313,7.82422 5.871094,14.26172 -1.320312,4.66016 -4.664062,8.25 -8.519531,9.15234 z m 0,0"
     fill-opacity="1"
     fill-rule="nonzero"
     id="path41" />
  <path
     fill="#ff9d86"
     d="m 21.21228,73.292971 c -1.40625,4.96875 -5.523437,8.15625 -9.191406,7.12109 -3.671875,-1.03515 -5.503906,-5.89843 -4.097656,-10.86328 1.40625,-4.96484 5.523437,-8.15234 9.191406,-7.12109 3.671875,1.03515 5.503906,5.89844 4.097656,10.86328 z m 0,0"
     fill-opacity="1"
     fill-rule="nonzero"
     id="path42" />
  <path
     fill="#f27d65"
     d="m 18.466186,72.597661 c -0.800781,2.82812 -3.144531,4.64062 -5.230468,4.05078 -2.089844,-0.58594 -3.132813,-3.35547 -2.332032,-6.1836 0.800782,-2.82812 3.144532,-4.64062 5.230469,-4.05078 2.089844,0.58594 3.132813,3.35938 2.332031,6.1836 z m 0,0"
     fill-opacity="1"
     fill-rule="nonzero"
     id="path43" />
  <path
     fill="#e14b36"
     d="m 33.622436,74.429691 c -1.378906,0.0469 -2.683593,-0.23828 -3.871093,-0.84766 -4.679688,-2.38672 -6.007813,-9.17578 -2.957031,-15.1289 2.210937,-4.3125 6.195312,-7.183599 10.152341,-7.308599 1.38282,-0.04687 2.6875,0.238281 3.875,0.84375 4.67969,2.386719 6.00782,9.175779 2.95313,15.128909 -2.21094,4.3125 -6.19531,7.17969 -10.152347,7.30859 z m 0,0"
     fill-opacity="1"
     fill-rule="nonzero"
     id="path44" />
  <path
     fill="#ff9d86"
     d="m 41.434933,65.921881 c -2.35546,4.59375 -7.019528,6.91406 -10.414059,5.18359 -3.394531,-1.73438 -4.238281,-6.86328 -1.882812,-11.45703 2.355468,-4.59375 7.015624,-6.914065 10.414061,-5.1836 3.39453,1.73047 4.23438,6.85938 1.88281,11.45704 z m 0,0"
     fill-opacity="1"
     fill-rule="nonzero"
     id="path45" />
  <path
     fill="#f27d65"
     d="m 38.880253,64.699221 c -1.34375,2.61328 -3.996098,3.9375 -5.929691,2.95312 -1.933594,-0.98828 -2.410157,-3.90625 -1.070313,-6.52343 1.339844,-2.61328 3.992187,-3.9375 5.925784,-2.94922 1.92969,0.98437 2.41015,3.90625 1.07031,6.51953 z m 0,0"
     fill-opacity="1"
     fill-rule="nonzero"
     id="path46" />
  <path
     fill="#e14b36"
     d="m 24.106812,55.109381 c -1.378907,-0.0977 -2.648438,-0.51563 -3.765626,-1.23829 -4.414062,-2.851559 -5.039062,-9.738278 -1.390624,-15.347653 2.640624,-4.0625 6.902343,-6.511719 10.851562,-6.238281 1.378906,0.09766 2.648438,0.511719 3.765625,1.234375 4.414064,2.855469 5.035154,9.742187 1.390625,15.351563 -2.640625,4.062496 -6.902344,6.511716 -10.851562,6.238286 z m 0,0"
     fill-opacity="1"
     fill-rule="nonzero"
     id="path47" />
  <path
     fill="#ff9d86"
     d="m 32.747436,47.441407 c -2.816406,4.328125 -7.691406,6.164064 -10.890624,4.09375 -3.199219,-2.066406 -3.511719,-7.257812 -0.695313,-11.585938 2.8125,-4.332031 7.6875,-6.164062 10.886719,-4.09375 3.199218,2.066407 3.511718,7.253907 0.699218,11.585938 z m 0,0"
     fill-opacity="1"
     fill-rule="nonzero"
     id="path48" />
  <path
     fill="#f27d65"
     d="m 30.329468,45.964845 c -1.601563,2.464843 -4.378906,3.507812 -6.199219,2.332031 -1.824219,-1.175781 -1.996094,-4.128907 -0.398437,-6.597657 1.605468,-2.460937 4.378906,-3.507812 6.199218,-2.328124 1.820313,1.175781 2,4.128906 0.398438,6.59375 z m 0,0"
     fill-opacity="1"
     fill-rule="nonzero"
     id="path49" />
  <path
     fill="#e14b36"
     d="m 43.681033,53.027341 c -1.29688,-0.472653 -2.40235,-1.222653 -3.27735,-2.226559 -3.45312,-3.957031 -2.14453,-10.746094 2.91407,-15.136719 3.66406,-3.179687 8.42968,-4.359375 12.15234,-3.007812 1.29688,0.46875 2.40234,1.21875 3.28125,2.222656 3.44922,3.957031 2.14453,10.746094 -2.91406,15.140625 -3.66016,3.175779 -8.4336,4.355469 -12.15235,3.007809 z m 0,0"
     fill-opacity="1"
     fill-rule="nonzero"
     id="path50" />
  <path
     fill="#ff9d86"
     d="m 54.110723,48.039063 c -3.90625,3.386719 -9.09766,3.804688 -11.60157,0.933594 -2.5,-2.867188 -1.36718,-7.9375 2.53516,-11.328125 3.90234,-3.386719 9.09766,-3.804687 11.59766,-0.9375 2.5039,2.867187 1.36718,7.941406 -2.53516,11.328125 z m 0,0"
     fill-opacity="1"
     fill-rule="nonzero"
     id="path51" />
  <path
     fill="#f27d65"
     d="m 52.196653,45.953126 c -2.22265,1.925781 -5.17968,2.164062 -6.60156,0.535156 -1.42578,-1.632813 -0.78125,-4.523437 1.44141,-6.449219 2.22265,-1.925781 5.17968,-2.167968 6.60547,-0.53125 1.42187,1.628906 0.77734,4.519532 -1.44141,6.445313 z m 0,0"
     fill-opacity="1"
     fill-rule="nonzero"
     id="path52" />
  <path
     fill="#e14b36"
     d="m 43.618533,33.414063 c -1.30078,-0.472656 -2.40235,-1.222656 -3.27735,-2.226562 -3.45312,-3.957032 -2.14843,-10.746094 2.91407,-15.136719 3.66015,-3.179687 8.42968,-4.359375 12.15234,-3.011719 1.30078,0.472656 2.40234,1.222656 3.28125,2.226563 3.44922,3.957031 2.14063,10.746093 -2.91406,15.136719 -3.66406,3.179687 -8.4336,4.359374 -12.15625,3.011718 z m 0,0"
     fill-opacity="1"
     fill-rule="nonzero"
     id="path53" />
  <path
     fill="#ff9d86"
     d="m 54.048223,28.421876 c -3.90625,3.386719 -9.09766,3.808593 -11.60157,0.9375 -2.5,-2.867188 -1.36718,-7.9375 2.53516,-11.324219 3.90625,-3.386719 9.09766,-3.808594 11.60156,-0.941406 2.50391,2.871094 1.3711,7.941406 -2.53515,11.332031 z m 0,0"
     fill-opacity="1"
     fill-rule="nonzero"
     id="path54" />
  <path
     fill="#f27d65"
     d="m 52.130253,26.335938 c -2.21875,1.929688 -5.17578,2.171875 -6.59766,0.535157 -1.42578,-1.632813 -0.78125,-4.519532 1.44141,-6.449219 2.21875,-1.929688 5.17968,-2.164063 6.60156,-0.535157 1.42578,1.636719 0.77734,4.523438 -1.44531,6.449219 z m 0,0"
     fill-opacity="1"
     fill-rule="nonzero"
     id="path55" />
  <path
     fill="#e14b36"
     d="m 61.294313,37.734376 c -1.04688,-0.734375 -1.84766,-1.667969 -2.38281,-2.777344 -2.11719,-4.363281 0.69922,-10.101563 6.27734,-12.792969 4.03906,-1.949218 8.57813,-1.847656 11.57031,0.257813 1.03907,0.734375 1.84375,1.667969 2.37891,2.777343 2.11719,4.363282 -0.69922,10.101563 -6.27344,12.792969 -4.03906,1.945313 -8.57812,1.847657 -11.57031,-0.257812 z m 0,0"
     fill-opacity="1"
     fill-rule="nonzero"
     id="path56" />
  <path
     fill="#ff9d86"
     d="m 71.802123,35.808595 c -4.30469,2.074218 -9.03515,1.195312 -10.57031,-1.96875 -1.53516,-3.164063 0.71094,-7.410157 5.01562,-9.488282 4.30469,-2.074218 9.03516,-1.191406 10.57032,1.96875 1.53515,3.164063 -0.71094,7.414063 -5.01563,9.488282 z m 0,0"
     fill-opacity="1"
     fill-rule="nonzero"
     id="path57" />
  <path
     fill="#f27d65"
     d="m 70.602903,33.484376 c -2.44922,1.183593 -5.14453,0.683593 -6.01562,-1.121094 -0.875,-1.800781 0.40234,-4.21875 2.85547,-5.398437 2.44922,-1.183594 5.14453,-0.679688 6.01562,1.121093 0.875,1.800781 -0.40625,4.21875 -2.85547,5.398438 z m 0,0"
     fill-opacity="1"
     fill-rule="nonzero"
     id="path58" />
  <path
     fill="#e14b36"
     d="m 67.067753,18.023438 c -0.96875,-0.683593 -1.71485,-1.550781 -2.21094,-2.578125 -1.96484,-4.054687 0.65234,-9.3828121 5.82812,-11.8828121 3.75,-1.808594 7.96875,-1.714844 10.74219,0.238281 0.97266,0.683594 1.71485,1.550781 2.21485,2.578125 1.96093,4.0546881 -0.65235,9.3828121 -5.83204,11.8828121 -3.75,1.808594 -7.96484,1.714844 -10.74218,-0.238281 z m 0,0"
     fill-opacity="1"
     fill-rule="nonzero"
     id="path59" />
  <path
     fill="#ff9d86"
     d="m 76.825563,16.230469 c -3.99609,1.929688 -8.39063,1.113282 -9.81641,-1.824218 -1.42187,-2.941406 0.66016,-6.8828131 4.65625,-8.8125001 3.9961,-1.929688 8.39453,-1.109375 9.82032,1.828125 1.42187,2.9375001 -0.66407,6.8828121 -4.66016,8.8085931 z m 0,0"
     fill-opacity="1"
     fill-rule="nonzero"
     id="path60" />
  <path
     fill="#f27d65"
     d="m 75.712283,14.074219 c -2.27344,1.097657 -4.77735,0.628907 -5.58594,-1.039062 -0.8125,-1.671875 0.375,-3.9179691 2.64844,-5.0195311 2.27734,-1.09375 4.77734,-0.632813 5.58984,1.042969 0.8086,1.6718741 -0.3789,3.9179681 -2.65234,5.0156241 z m 0,0"
     fill-opacity="1"
     fill-rule="nonzero"
     id="path61" />
  <path
     fill="#e14b36"
     d="m 80.450563,27.339845 c -0.73438,-0.929688 -1.20313,-1.972657 -1.39063,-3.097657 -0.73437,-4.445312 3.28125,-8.816406 8.95704,-9.757812 4.10937,-0.675781 8.1289,0.601562 10.23828,3.257812 0.73437,0.929688 1.20312,1.972657 1.39062,3.097657 0.738277,4.441406 -3.28125,8.816406 -8.95703,9.753906 -4.11328,0.679687 -8.12891,-0.601563 -10.23828,-3.257813 z m 0,0"
     fill-opacity="1"
     fill-rule="nonzero"
     id="path62" />
  <path
     fill="#ff9d86"
     d="m 90.317753,28.371095 c -4.37891,0.722656 -8.36328,-1.300782 -8.89453,-4.519532 -0.53516,-3.222656 2.58203,-6.417968 6.96093,-7.140625 4.37891,-0.722656 8.36719,1.304688 8.89844,4.519531 0.53516,3.222657 -2.58594,6.417969 -6.96484,7.140626 z m 0,0"
     fill-opacity="1"
     fill-rule="nonzero"
     id="path63" />
  <path
     fill="#f27d65"
     d="m 89.860723,25.992188 c -2.49219,0.410157 -4.75782,-0.742187 -5.06641,-2.578125 -0.30078,-1.832031 1.47656,-3.652344 3.96484,-4.0625 2.4961,-0.410156 4.76563,0.742188 5.06641,2.574219 0.30469,1.832031 -1.47266,3.652344 -3.96484,4.066406 z m 0,0"
     fill-opacity="1"
     fill-rule="nonzero"
     id="path64" />
  <g
     clip-path="url(#44ae9fd878)"
     id="g65"
     transform="translate(-18.822876,-103.30859)">
    <path
       fill="#e14b36"
       d="m 110.94922,114.35938 c -0.53125,-1.0586 -0.77734,-2.17579 -0.73047,-3.31641 0.18359,-4.49609 5.01172,-7.96484 10.76172,-7.72656 4.16016,0.16797 7.83203,2.23437 9.35937,5.26172 0.53125,1.0625 0.77735,2.17578 0.72657,3.3164 -0.1836,4.5 -5.00782,7.96485 -10.75782,7.73047 -4.16406,-0.16797 -7.83984,-2.23828 -9.35937,-5.26562 z m 0,0"
       fill-opacity="1"
       fill-rule="nonzero"
       id="path65" />
  </g>
  <path
     fill="#ff9d86"
     d="m 101.57947,14.066407 c -4.437497,-0.183594 -7.925787,-2.972656 -7.789067,-6.2343751 0.13282,-3.261719 3.83594,-5.757813 8.273437,-5.574219 4.4375,0.179688 7.92188,2.972656 7.78906,6.234375 -0.13281,3.2617191 -3.83593,5.7578131 -8.27343,5.5742191 z m 0,0"
     fill-opacity="1"
     fill-rule="nonzero"
     id="path66" />
  <path
     fill="#f27d65"
     d="m 101.61462,11.644532 c -2.523437,-0.105469 -4.507807,-1.6953131 -4.433587,-3.5507811 0.0781,-1.859375 2.1875,-3.277344 4.710937,-3.171875 2.52343,0.101562 4.51171,1.691406 4.43359,3.546875 -0.0781,1.8554681 -2.1875,3.2773441 -4.71094,3.1757811 z m 0,0"
     fill-opacity="1"
     fill-rule="nonzero"
     id="path67" />
  <path
     fill="#e14b36"
     d="m 102.57165,25.300782 c -0.53125,-1.058594 -0.77343,-2.175781 -0.73047,-3.316406 0.1836,-4.496094 5.01172,-7.964844 10.76172,-7.726563 4.16407,0.167969 7.83985,2.238282 9.35938,5.265625 0.53125,1.058594 0.78125,2.171875 0.73047,3.3125 -0.1836,4.5 -5.01172,7.964844 -10.76172,7.730469 -4.16406,-0.167969 -7.83203,-2.234375 -9.35938,-5.265625 z m 0,0"
     fill-opacity="1"
     fill-rule="nonzero"
     id="path68" />
  <path
     fill="#ff9d86"
     d="m 112.02478,28.316407 c -4.4336,-0.179688 -7.92188,-2.96875 -7.78906,-6.230469 0.13281,-3.261719 3.83984,-5.757812 8.27734,-5.578125 4.43359,0.183594 7.92578,2.972656 7.78906,6.234375 -0.13672,3.261719 -3.83984,5.757813 -8.27734,5.574219 z m 0,0"
     fill-opacity="1"
     fill-rule="nonzero"
     id="path69" />
  <path
     fill="#f27d65"
     d="m 112.06384,25.890626 c -2.52344,-0.101563 -4.51172,-1.691407 -4.43359,-3.546875 0.0742,-1.859375 2.18359,-3.277344 4.70703,-3.171875 2.52734,0.101562 4.51172,1.691406 4.4375,3.546875 -0.0781,1.855468 -2.1875,3.277344 -4.71094,3.175781 z m 0,0"
     fill-opacity="1"
     fill-rule="nonzero"
     id="path70" />
  <path
     fill="#e14b36"
     d="m 124.23962,17.125001 c -0.14453,-1.175782 0,-2.304688 0.42578,-3.367188 1.6875,-4.1757811 7.40235,-5.8242181 12.73828,-3.675781 3.86329,1.550781 6.62891,4.730469 7.04297,8.09375 0.14453,1.175781 0,2.308594 -0.42578,3.371094 -1.6875,4.171875 -7.40625,5.824219 -12.73828,3.675781 -3.86719,-1.554688 -6.62891,-4.730469 -7.04297,-8.097656 z m 0,0"
     fill-opacity="1"
     fill-rule="nonzero"
     id="path71" />
  <path
     fill="#ff9d86"
     d="m 132.12634,23.132813 c -4.11719,-1.65625 -6.46484,-5.453125 -5.23828,-8.480468 1.22266,-3.027344 5.55469,-4.132813 9.67187,-2.480469 4.11719,1.660156 6.46094,5.453125 5.24219,8.480469 -1.22265,3.03125 -5.55469,4.140624 -9.67187,2.480468 z m 0,0"
     fill-opacity="1"
     fill-rule="nonzero"
     id="path72" />
  <path
     fill="#f27d65"
     d="m 132.9779,20.859376 c -2.34375,-0.941407 -3.67968,-3.105469 -2.98047,-4.828125 0.69532,-1.722656 3.16016,-2.355469 5.50391,-1.410156 2.34375,0.945312 3.67969,3.105468 2.98047,4.828124 -0.69531,1.722657 -3.16016,2.355469 -5.50391,1.410157 z m 0,0"
     fill-opacity="1"
     fill-rule="nonzero"
     id="path73" />
  <path
     fill="#e14b36"
     d="m 139.96618,31.613282 c 0.0234,-1.039063 0.29297,-2.007813 0.79688,-2.878906 2,-3.425781 7.1875,-4.144531 11.5625,-1.605469 3.17187,1.84375 5.17969,4.957031 5.11719,7.941406 -0.0234,1.039063 -0.29297,2.007813 -0.79688,2.878906 -2,3.421876 -7.1875,4.140626 -11.5625,1.601563 -3.17187,-1.839844 -5.17969,-4.953125 -5.11719,-7.9375 z m 0,0"
     fill-opacity="1"
     fill-rule="nonzero"
     id="path74" />
  <path
     fill="#ff9d86"
     d="m 146.08337,37.839845 c -3.3789,-1.960938 -4.94531,-5.5625 -3.49609,-8.046876 1.44531,-2.484374 5.35937,-2.90625 8.73828,-0.949218 3.37891,1.964844 4.94531,5.5625 3.49609,8.050781 -1.44922,2.480469 -5.35937,2.90625 -8.73828,0.945313 z m 0,0"
     fill-opacity="1"
     fill-rule="nonzero"
     id="path75" />
  <path
     fill="#f27d65"
     d="m 147.11072,35.964845 c -1.92188,-1.113282 -2.8125,-3.164063 -1.98829,-4.578126 0.82422,-1.414062 3.05079,-1.65625 4.97657,-0.539062 1.92187,1.113281 2.8125,3.164062 1.98828,4.578125 -0.82031,1.414063 -3.05078,1.65625 -4.97266,0.539063 z m 0,0"
     fill-opacity="1"
     fill-rule="nonzero"
     id="path76" />
  <g
     clip-path="url(#3510b01ddd)"
     id="g77"
     transform="translate(-18.822876,-103.30859)">
    <path
       fill="#e14b36"
       d="m 31.199219,216.625 c -1.265625,0.55859 -2.582031,0.78125 -3.914063,0.66016 -5.234375,-0.47657 -9.003906,-6.28125 -8.398437,-12.9375 0.4375,-4.82422 3.0625,-8.96875 6.6875,-10.5625 1.261719,-0.55469 2.578125,-0.77344 3.90625,-0.65625 5.238281,0.47265 9.007812,6.27734 8.402343,12.9375 -0.441406,4.82421 -3.0625,8.96875 -6.683593,10.5625 z m 0,0"
       fill-opacity="1"
       fill-rule="nonzero"
       id="path77" />
  </g>
  <path
     fill="#ff9d86"
     d="m 16.438843,102.51953 c -0.46875,5.14063 -3.925781,9.03125 -7.722657,8.6836 -3.796874,-0.34375 -6.5,-4.78907 -6.03125,-9.92579 0.46875,-5.140619 3.925782,-9.031249 7.722657,-8.687499 3.796875,0.34766 6.496093,4.78907 6.027343,9.933599 z m 0,0"
     fill-opacity="1"
     fill-rule="nonzero"
     id="path78" />
  <path
     fill="#f27d65"
     d="m 13.610718,102.33203 c -0.265625,2.92969 -2.230469,5.14063 -4.394532,4.94531 -2.164062,-0.19531 -3.699218,-2.72656 -3.433593,-5.64843 0.265625,-2.929689 2.234375,-5.140629 4.394531,-4.945319 2.164062,0.19532 3.699219,2.72657 3.433594,5.648439 z m 0,0"
     fill-opacity="1"
     fill-rule="nonzero"
     id="path79" />
</svg>
