<?xml version="1.0" encoding="UTF-8" standalone="no"?>
<svg
   width="251.99998"
   zoomAndPan="magnify"
   viewBox="0 0 188.99999 186.66014"
   height="248.88019"
   preserveAspectRatio="xMidYMid"
   version="1.0"
   id="svg295"
   xmlns="http://www.w3.org/2000/svg"
   xmlns:svg="http://www.w3.org/2000/svg">
  <defs
     id="defs24">
    <clipPath
       id="798e0b88c0">
      <path
         d="M 68.070312,580 H 194 V 706.07812 H 68.070312 Z m 0,0"
         clip-rule="nonzero"
         id="path19" />
    </clipPath>
    <clipPath
       id="436d39f298">
      <path
         d="m 225,560 h 32.07031 v 18 H 225 Z m 0,0"
         clip-rule="nonzero"
         id="path20" />
    </clipPath>
    <clipPath
       id="54aa53f471">
      <path
         d="m 225,568 h 32.07031 v 3 H 225 Z m 0,0"
         clip-rule="nonzero"
         id="path21" />
    </clipPath>
    <clipPath
       id="7e245f6e53">
      <path
         d="m 197,519.32812 h 19 V 552 h -19 z m 0,0"
         clip-rule="nonzero"
         id="path22" />
    </clipPath>
    <clipPath
       id="6d53bd8b3c">
      <path
         d="m 205,519.32812 h 3 V 552 h -3 z m 0,0"
         clip-rule="nonzero"
         id="path23" />
    </clipPath>
  </defs>
  <g
     id="g296"
     transform="translate(-68.070311,-519.3711)">
    <g
       clip-path="url(#798e0b88c0)"
       id="g246">
      <path
         fill="#7ce3ff"
         d="m 130.84766,706.03125 c -34.652348,0 -62.777348,-28.10156 -62.777348,-62.73438 0,-34.52343 28.125,-62.73828 62.777348,-62.73828 34.54687,0 62.66796,28.21485 62.66796,62.73828 0,34.63282 -28.12109,62.73438 -62.66796,62.73438 z m 0,0"
         fill-opacity="1"
         fill-rule="evenodd"
         id="path246" />
    </g>
    <path
       fill="#08a5d6"
       d="m 69.289062,631.125 c 0.222657,-1.21484 0.441407,-2.43359 0.773438,-3.65234 15.835938,-2.32032 37.20313,-1.54688 62.11719,9.18359 24.91015,10.84375 45.94922,6.53125 60.89453,-0.66406 0.22265,1.21875 0.33203,2.4375 0.33203,3.76562 -8.63672,3.98047 -19.15625,6.96875 -31.22266,6.96875 -9.63281,0 -20.37109,-1.99219 -31.77734,-6.96875 C 105.71484,629.02344 84.566406,628.58203 69.289062,631.125 Z m 0,0"
       fill-opacity="1"
       fill-rule="evenodd"
       id="path247" />
    <path
       fill="#08a5d6"
       d="m 86.5625,598.92578 c 1.214844,-1.21484 2.546875,-2.43359 3.875,-3.53906 13.72656,0 27.67969,3.42969 41.51953,10.28906 16.94141,8.30078 33.76953,8.74219 49.93359,1.21875 0.66407,0.99609 1.32813,1.87891 1.88282,2.875 -7.41797,3.54297 -15.0586,5.53516 -22.8086,5.86719 -0.88672,0 -1.66015,0 -2.43359,0 -9.30078,0 -18.82422,-2.32422 -28.125,-6.86328 -14.72656,-7.19141 -29.45312,-10.51172 -43.84375,-9.84766 z m 0,0"
       fill-opacity="1"
       fill-rule="evenodd"
       id="path248" />
    <path
       fill="#08a5d6"
       d="m 69.84375,658.34375 c -0.222656,-1.10547 -0.445312,-2.32422 -0.664062,-3.42969 14.28125,-3.98437 36.316402,-5.53125 62.777342,7.52344 25.6875,12.61328 46.61328,4.53906 59.89844,-4.53516 -0.44141,1.66016 -0.88672,3.42969 -1.4375,5.08985 -8.41406,5.08984 -19.26563,9.40625 -31.88672,9.40625 -8.63672,0 -18.05078,-1.99219 -28.125,-6.86328 -25.57812,-12.61329 -46.835938,-11.0625 -60.5625,-7.19141 z m 0,0"
       fill-opacity="1"
       fill-rule="evenodd"
       id="path249" />
    <path
       fill="#08a5d6"
       d="m 83.351562,684.23437 c -0.996093,-1.10546 -1.773437,-2.10156 -2.660156,-3.20703 16.832032,-1.99218 33.992184,1.21875 51.265624,9.73828 10.40625,5.08985 20.81641,7.19141 31.11328,6.30469 -2.21484,1.32813 -4.53906,2.54688 -6.97656,3.65235 -8.52734,-0.44141 -17.16016,-2.65625 -25.6875,-6.85938 -15.83203,-7.85547 -31.664062,-11.06641 -47.054688,-9.62891 z m 0,0"
       fill-opacity="1"
       fill-rule="evenodd"
       id="path250" />
    <path
       fill="#3e5959"
       d="m 196.50781,569.27344 c 0,0.55468 -0.44531,0.99609 -0.99609,0.99609 h -8.75 c -0.44141,0 -0.88281,-0.44141 -0.88281,-0.99609 0,-0.44141 0.4414,-0.88282 0.88281,-0.88282 h 8.75 c 0.55078,0 0.99609,0.44141 0.99609,0.88282 z m 0,0"
       fill-opacity="1"
       fill-rule="evenodd"
       id="path251" />
    <path
       fill="#a8ebfa"
       d="m 187.75781,561.75 v 15.16016 c 0,0.55078 -0.4414,0.99609 -0.99609,0.99609 h -29.89453 c -0.55078,0 -0.9961,-0.44531 -0.9961,-0.99609 V 561.75 c 0,-0.55469 0.44532,-0.99609 0.9961,-0.99609 h 29.89453 c 0.55469,0 0.99609,0.4414 0.99609,0.99609 z m 0,0"
       fill-opacity="1"
       fill-rule="evenodd"
       id="path252" />
    <path
       fill="#25d9f8"
       d="m 181.33984,577.90625 h -1.99609 v -17.15234 h 1.99609 z m -8.52734,0 h -1.99219 v -17.15234 h 1.99219 z m -8.41406,0 h -1.99219 v -17.15234 h 1.99219 z m 0,0"
       fill-opacity="1"
       fill-rule="evenodd"
       id="path253" />
    <path
       fill="#25d9f8"
       d="m 155.87109,568.39062 h 31.88672 v 1.87891 h -31.88672 z m 0,0"
       fill-opacity="1"
       fill-rule="evenodd"
       id="path254" />
    <path
       fill="#3e5959"
       d="m 216.4375,569.27344 c 0,0.55468 0.44141,0.99609 0.99609,0.99609 h 8.7461 c 0.55468,0 0.99609,-0.44141 0.99609,-0.99609 0,-0.44141 -0.44141,-0.88282 -0.99609,-0.88282 h -8.7461 c -0.55468,0 -0.99609,0.44141 -0.99609,0.88282 z m 0,0"
       fill-opacity="1"
       fill-rule="evenodd"
       id="path255" />
    <g
       clip-path="url(#436d39f298)"
       id="g256">
      <path
         fill="#a8ebfa"
         d="m 225.18359,561.75 v 15.16016 c 0,0.55078 0.44141,0.99609 0.9961,0.99609 h 29.89453 c 0.55469,0 0.99609,-0.44531 0.99609,-0.99609 V 561.75 c 0,-0.55469 -0.4414,-0.99609 -0.99609,-0.99609 h -29.89453 c -0.55469,0 -0.9961,0.4414 -0.9961,0.99609 z m 0,0"
         fill-opacity="1"
         fill-rule="evenodd"
         id="path256" />
    </g>
    <path
       fill="#25d9f8"
       d="m 231.60547,577.90625 h 1.99219 v -17.15234 h -1.99219 z m 8.52344,0 h 1.99609 v -17.15234 h -1.99609 z m 8.41796,0 h 1.99219 v -17.15234 h -1.99219 z m 0,0"
       fill-opacity="1"
       fill-rule="evenodd"
       id="path257" />
    <g
       clip-path="url(#54aa53f471)"
       id="g258">
      <path
         fill="#25d9f8"
         d="m 225.18359,568.39062 h 31.88672 v 1.87891 h -31.88672 z m 0,0"
         fill-opacity="1"
         fill-rule="evenodd"
         id="path258" />
    </g>
    <path
       fill="#3e5959"
       d="m 206.47266,578.67969 c -0.55469,0 -0.9961,0.4414 -0.9961,0.99609 v 8.74219 c 0,0.55078 0.44141,0.99219 0.9961,0.99219 0.55078,0 0.99609,-0.44141 0.99609,-0.99219 v -8.74219 c 0,-0.55469 -0.44531,-0.99609 -0.99609,-0.99609 z m 0,0"
       fill-opacity="1"
       fill-rule="evenodd"
       id="path259" />
    <path
       fill="#a8ebfa"
       d="m 214.10937,587.42187 h -15.27734 c -0.55469,0 -0.99609,0.44141 -0.99609,0.9961 v 29.87109 c 0,0.55469 0.4414,0.9961 0.99609,0.9961 h 15.27734 c 0.55469,0 1,-0.44141 1,-0.9961 v -29.87109 c 0,-0.55469 -0.44531,-0.9961 -1,-0.9961 z m 0,0"
       fill-opacity="1"
       fill-rule="evenodd"
       id="path260" />
    <path
       fill="#25d9f8"
       d="m 197.83594,593.94922 v 1.8789 h 17.27343 v -1.8789 z m 0,8.41015 v 1.98829 h 17.27343 v -1.98829 z m 0,8.51954 v 1.8789 h 17.27343 v -1.8789 z m 0,0"
       fill-opacity="1"
       fill-rule="evenodd"
       id="path261" />
    <path
       fill="#25d9f8"
       d="m 205.47656,587.42187 h 1.99219 v 31.86329 h -1.99219 z m 0,0"
       fill-opacity="1"
       fill-rule="evenodd"
       id="path262" />
    <path
       fill="#3e5959"
       d="m 206.47266,559.98047 c -0.55469,0 -0.9961,-0.44141 -0.9961,-0.9961 v -8.74218 c 0,-0.55078 0.44141,-0.9961 0.9961,-0.9961 0.55078,0 0.99609,0.44532 0.99609,0.9961 v 8.74218 c 0,0.55469 -0.44531,0.9961 -0.99609,0.9961 z m 0,0"
       fill-opacity="1"
       fill-rule="evenodd"
       id="path263" />
    <path
       fill="#7ca1b1"
       d="m 217.43359,580.67187 h -21.92187 c -0.44531,0 -0.88672,-0.44531 -0.88672,-0.99609 v -20.69141 c 0,-0.55468 0.44141,-0.99609 0.88672,-0.99609 h 21.92187 c 0.55469,0 0.9961,0.44141 0.9961,0.99609 v 20.69141 c 0,0.55078 -0.44141,0.99609 -0.9961,0.99609 z m 0,0"
       fill-opacity="1"
       fill-rule="evenodd"
       id="path264" />
    <path
       fill="#3e5959"
       d="m 206.47266,574.36328 c -2.76954,0 -4.98438,-2.32422 -4.98438,-5.08984 0,-2.65625 2.21484,-4.97657 4.98438,-4.97657 2.76562,0 4.98046,2.32032 4.98046,4.97657 0,2.76562 -2.21484,5.08984 -4.98046,5.08984 z m 0,0"
       fill-opacity="1"
       fill-rule="evenodd"
       id="path265" />
    <g
       clip-path="url(#7e245f6e53)"
       id="g266">
      <path
         fill="#a8ebfa"
         d="m 214.10937,551.23828 h -15.27734 c -0.55469,0 -0.99609,-0.44141 -0.99609,-0.99609 v -29.875 c 0,-0.55078 0.4414,-0.9961 0.99609,-0.9961 h 15.27734 c 0.55469,0 1,0.44532 1,0.9961 v 29.875 c 0,0.55468 -0.44531,0.99609 -1,0.99609 z m 0,0"
         fill-opacity="1"
         fill-rule="evenodd"
         id="path266" />
    </g>
    <path
       fill="#25d9f8"
       d="m 197.83594,544.71094 v -1.99219 h 17.27343 v 1.99219 z m 0,-8.41016 v -1.99219 h 17.27343 v 1.99219 z m 0,-8.51953 v -1.87891 h 17.27343 v 1.87891 z m 0,0"
       fill-opacity="1"
       fill-rule="evenodd"
       id="path267" />
    <g
       clip-path="url(#6d53bd8b3c)"
       id="g268">
      <path
         fill="#25d9f8"
         d="m 205.47656,519.37109 h 1.99219 v 31.86719 h -1.99219 z m 0,0"
         fill-opacity="1"
         fill-rule="evenodd"
         id="path268" />
    </g>
  </g>
</svg>
