<?xml version="1.0" encoding="UTF-8" standalone="no"?>
<svg
   width="209.92108"
   zoomAndPan="magnify"
   viewBox="0 0 157.44081 160.10071"
   height="213.46762"
   preserveAspectRatio="xMidYMid"
   version="1.0"
   id="svg352"
   xmlns="http://www.w3.org/2000/svg"
   xmlns:svg="http://www.w3.org/2000/svg">
  <defs
     id="defs27">
    <clipPath
       id="038a450ceb">
      <path
         d="M 245,45.292969 H 400 V 205 H 245 Z m 0,0"
         clip-rule="nonzero"
         id="path26" />
    </clipPath>
    <clipPath
       id="56a12443c5">
      <path
         d="m 243.23828,45.292969 h 158.25 V 205.79297 h -158.25 z m 0,0"
         clip-rule="nonzero"
         id="path27" />
    </clipPath>
  </defs>
  <path
     fill="#df7a7d"
     d="m 51.286074,23.723754 c 2.90625,-0.01172 5.40625,0.734375 7.91015,1.480469 7.10547,2.117187 14.14453,4.449218 21.19141,6.761718 3.91016,1.28125 7.83984,2.515626 11.75391,3.792969 0.77343,0.25 1.55078,0.519531 2.27343,0.878907 0.57813,0.285156 0.81641,0.09766 1.00391,-0.425782 0.32031,-0.921875 0.66016,-1.839844 0.97266,-2.769531 2.2539,-6.769531 4.644536,-13.492187 6.648436,-20.34375 0.79297,-2.699219 1.51563,-5.4140631 2.26563,-8.1250001 0.27344,-0.984375 0.5625,-1.960937 1.03125,-2.875 0.24609,-0.472656 0.54687,-0.90625 1.03515,-1.17187496 0.72657,-0.390625 1.4961,-0.300781 1.98829,0.31640596 0.65625,0.824219 1.30078,1.664063 1.60937,2.714844 0.19531,0.65625 0.47266,1.3125 0.8125,1.910156 2.82422,4.9765631 4.99609,10.2656251 7.41406,15.4335941 1.50782,3.222656 3.33594,6.265625 4.95703,9.417969 3.2461,6.316406 6.48438,12.628906 9.0586,19.253906 0.5625,1.445313 1.01172,2.933594 1.41797,4.425781 0.53125,1.941404 0.41015,3.851564 -0.1211,5.789064 -2,7.31641 -4.26562,14.55078 -6.7539,21.71094 -1.08203,3.11718 -2.05469,6.27343 -3.07032,9.41796 -0.3789,1.16407 -0.73437,2.34375 -1.28515,3.42969 -0.31641,0.61719 -0.125,0.89063 0.4414,1.09766 1.22657,0.44922 2.4336,0.93359 3.67188,1.35937 6.55078,2.26172 12.91016,5.031251 19.42969,7.371101 2.49218,0.89062 4.9414,1.92187 7.53906,2.5 0.55078,0.12109 1.09766,0.3164 1.59375,0.61718 1.15625,0.70704 1.32422,2.05469 0.23828,2.82422 -2.38281,1.6875 -4.55859,3.66407 -7.27344,4.89063 -2.1914,0.98437 -4.12109,2.47656 -6.18359,3.70312 -4.0625,2.42969 -8.23828,4.65235 -12.41016,6.88282 -6.47656,3.46093 -12.97265,6.87109 -19.41797,10.39453 -2.8164,1.53906 -5.69531,1.78515 -8.7539,1.07422 -1.58985,-0.36719 -3.164066,-0.80079 -4.656256,-1.46485 -1.64453,-0.73047 -3.35547,-1.25 -5.08985,-1.71094 -4.89453,-1.30078 -9.5664,-3.23046 -14.27343,-5.08203 -3.98047,-1.5664 -7.97657,-3.09765 -11.97266,-4.64062 -0.80078,-0.3125 -0.95703,-0.27344 -1.33984,0.5039 -0.79688,1.61329 -1.375,3.31641 -2.02735,4.98829 -2.05078,5.25 -3.59375,10.66406 -5.32422,16.01562 -0.33593,1.04297 -0.61718,2.11719 -1.05078,3.12891 -0.83203,1.9375 -1.12109,3.98828 -1.40625,6.04687 -0.10156,0.73438 -0.3125,1.44141 -0.59765,2.11328 -0.76172,1.77735 -2.45703,2.09375 -3.82813,0.74219 -0.62109,-0.61328 -1.0664,-1.35547 -1.43359,-2.12109 -1.66406,-3.46094 -3.91797,-6.58985 -5.60938,-10.03516 -1.1875,-2.41406 -2.46484,-4.78906 -3.67968,-7.19141 -3.63282,-7.21484 -7.27735,-14.42187 -11.10547,-21.53515 -1.3086,-2.44531 -2.63282,-4.88281 -3.9375,-7.33203 -0.38282,-0.71875 -0.74219,-1.45313 -0.97657,-2.24219 -0.32421,-1.10547 -0.5039,-2.20703 -0.22265,-3.36719 0.48047,-1.97656 0.47265,-4.03906 1.08203,-6.003901 1.07031,-3.46875 2.40625,-6.84375 3.62891,-10.25782 2.48046,-6.95312 5.17968,-13.82421 7.79687,-20.72265 0.20313,-0.53125 0.45703,-1.04688 0.6875,-1.56641 0.31641,-0.71875 0.33203,-0.7539 -0.40625,-1.07031 -2.20703,-0.95703 -4.4375,-1.87109 -6.64062,-2.82813 -5.26954,-2.29687 -10.54297,-4.58593 -16.03516,-6.3164 -3.11328,-0.98047 -6.2773402,-1.750002 -9.4804702,-2.351565 -0.8125,-0.152344 -1.60156,-0.34375 -2.18359,-0.992187 -0.21094,-0.234376 -0.49219,-0.25 -0.75391,-0.34375 -0.94530996,-0.339844 -1.32421996,-1.261719 -0.92186996,-2.171876 0.20703,-0.457031 0.51561996,-0.828124 0.92186996,-1.121093 0.69141,-0.507813 1.40625,-0.988281 2.19141,-1.328125 3.1914,-1.378906 6.1914,-3.109375 9.1835902,-4.863282 7.38672,-4.339843 15.05859,-8.164062 22.71875,-11.992187 3.75391,-1.878906 7.50391,-3.765625 11.26563,-5.640625 1.48437,-0.742188 3.0625,-1.109375 4.47656,-1 z m 0,0"
     fill-opacity="1"
     fill-rule="nonzero"
     id="path350" />
  <g
     clip-path="url(#038a450ceb)"
     id="g351"
     transform="translate(-243.64361,-45.573121)">
    <path
       fill="#bb585b"
       d="m 397.60547,157.69531 c 0.0391,0.3086 -0.19531,0.44531 -0.39063,0.5625 -1.375,0.83203 -2.7539,1.66406 -4.15234,2.46094 -2.09766,1.19922 -4.20313,2.39062 -6.32422,3.5625 -1.26562,0.70703 -2.61719,1.24219 -3.85156,2.01562 -1.92969,1.21485 -3.875,2.40625 -5.82813,3.58594 -1.98828,1.19922 -3.99609,2.3711 -5.99609,3.5625 -1.83203,1.08594 -3.63672,2.21485 -5.49609,3.2461 -2.14844,1.19531 -4.3125,2.35937 -6.59375,3.29296 -1.52344,0.6211 -3.08594,1.17188 -4.46875,2.11329 -0.42969,0.28906 -0.94141,0.46484 -1.45704,0.59765 -0.65625,0.16797 -1.32421,0.26953 -1.94921,0.64844 -0.56641,0.34766 -1.33204,0.27344 -1.8711,-0.0664 -1.21484,-0.78125 -2.58594,-0.9414 -3.92969,-1.02734 -1.49609,-0.0977 -2.8789,-0.54688 -4.28515,-0.95313 -2.09375,-0.60937 -4.17188,-1.24609 -6.2461,-1.89843 -2.53125,-0.79688 -5.0625,-1.58985 -7.57031,-2.45313 -3.98437,-1.37109 -7.92969,-2.85156 -11.72265,-4.73437 -1.76563,-0.87891 -3.71875,-1.30469 -5.64454,-1.73828 -1.60156,-0.35938 -1.60546,-0.32032 -2.15625,1.23828 -1.79296,5.0664 -3.65625,10.10547 -5.28906,15.23047 -1.09765,3.42968 -1.9414,6.92578 -2.88281,10.39843 -0.58984,2.1836 -1.23047,4.35547 -2.01563,6.47657 -0.082,0.22656 -0.19531,0.44921 -0.32421,0.65234 -0.17579,0.27734 -0.44532,0.32422 -0.75391,0.28125 -0.33594,-0.043 -0.33984,-0.32422 -0.37109,-0.54297 -0.15625,-1.25781 -0.1875,-2.52344 -0.0859,-3.78906 0.2539,-3.19141 1.01172,-6.27735 1.96094,-9.32813 1.84375,-5.91797 4.11328,-11.69922 6.24609,-17.51562 4.24609,-11.57031 8.62891,-23.07813 13.48437,-34.40235 1.125,-2.625 2.26172,-5.24218 3.41016,-7.85546 0.41406,-0.9375 0.71484,-1.91407 0.96484,-2.89844 0.23047,-0.90625 0,-1.13281 -0.91406,-1.00781 -0.89062,0.125 -1.7539,0.39062 -2.57812,0.74609 -11.26953,4.86719 -22.44141,9.93359 -32.85938,16.51562 -2.66797,1.6836 -5.05469,3.73438 -7.20312,6.04297 -2.07422,2.22657 -2.92578,4.94141 -2.94532,7.95703 0,0.48438 0.27735,0.83594 0.38282,1.26563 1.64843,6.85937 4.3789,13.32031 7.375,19.67187 3.38672,7.19922 7.125,14.22266 10.58984,21.38672 0.17578,0.36719 0.34375,0.73438 0.48438,1.11719 0.082,0.23047 0.10546,0.51563 -0.16016,0.64844 -0.21875,0.10547 -0.50391,0.10547 -0.70703,-0.0312 -0.19922,-0.13281 -0.36719,-0.33203 -0.4961,-0.53516 -0.85156,-1.36328 -1.6914,-2.73047 -2.53515,-4.10156 -1.16016,-1.87891 -2.17188,-3.84375 -3.34375,-5.71484 -0.7461,-1.19141 -1.26563,-2.52344 -1.99219,-3.72266 -1.10547,-1.82813 -2.00781,-3.76172 -3.01953,-5.64063 -1.43359,-2.66015 -2.78125,-5.36328 -4.0625,-8.10156 -1.47266,-3.15234 -3.08203,-6.26172 -4.25,-9.54297 -0.71875,-2.01953 -1.96094,-3.66797 -3.15625,-5.37109 -0.57422,-0.82813 -1.13672,-1.66406 -1.68359,-2.51172 -0.36719,-0.57031 -0.9336,-2.47266 -1,-3.32031 -0.0195,-0.22656 -0.10938,-0.38281 -0.25391,-0.52344 -1.04688,-1.04687 -0.82031,-2.30078 -0.53125,-3.52734 0.16797,-0.70313 0.29687,-1.39844 0.34766,-2.125 0.23828,-3.17969 0.98437,-6.2461 2.19921,-9.19922 0.96875,-2.35156 1.96875,-4.69922 2.96094,-7.04688 0.5,-1.18359 1.125,-2.3125 1.66797,-3.47656 0.87891,-1.89062 1.3125,-3.90625 1.91797,-5.87109 0.65234,-2.11328 1.13281,-4.28125 2.13281,-6.27735 0.42969,-0.85937 0.63281,-1.78906 0.82422,-2.72265 0.14453,-0.73047 0.40234,-1.42969 1.02344,-1.83203 0.61719,-0.40235 1.0039,-0.91797 1.26172,-1.61328 -3.25,-0.95313 -6.34766,-2.30469 -9.51172,-3.48047 -4.21094,-1.5625 -8.45313,-3.00782 -12.73047,-4.35547 -3.17188,-1 -6.35547,-1.96094 -9.53516,-2.945315 -1.13281,-0.351563 -2.26172,-0.71875 -3.39453,-1.074219 -0.15234,-0.04687 -0.3164,-0.05469 -0.46094,-0.113281 -0.5039,-0.226563 -0.75781,-0.75 -0.66015,-1.3125 0.0937,-0.566406 0.58203,-0.519531 0.95312,-0.546875 0.77344,-0.04687 1.53516,0.167969 2.28907,0.3125 7.88671,1.488281 15.42968,4.09766 22.92968,6.875 3.03125,1.11719 6.125,2.07422 9.16797,3.15625 5.70703,2.03516 11.34375,4.26172 16.94531,6.57813 6.2461,2.58203 12.375,5.42187 18.45313,8.38671 1.11719,0.54688 2.34766,0.86329 3.52344,1.29297 0.49218,0.17578 0.87109,-0.008 1.1914,-0.36328 0.3086,-0.33594 0.125,-0.62109 -0.0351,-0.98437 -0.7461,-1.7461 -1.78907,-3.32032 -2.73438,-4.95313 -1.14844,-1.98047 -2.36719,-3.91406 -3.41015,-5.96094 -0.8711,-1.71484 -1.96875,-3.32031 -2.86719,-5.01953 -0.66016,-1.24609 -1.33594,-2.48047 -2.03125,-3.70312 -0.71485,-1.25781 -1.40235,-2.527346 -2.09766,-3.800784 -0.53906,-0.988281 -1.0664,-1.984375 -1.60547,-2.96875 -0.92968,-1.695312 -1.85547,-3.390625 -2.80859,-5.070312 -1.42969,-2.519532 -2.9375,-4.996094 -4.61328,-7.359375 -1.6875,-2.390625 -3.57031,-4.621094 -5.96485,-6.351563 -1.30078,-0.9375 -2.69531,-1.660156 -4.36718,-1.097656 -1.44532,0.484375 -2.91407,0.894531 -4.32813,1.476562 -3.51172,1.4375 -6.99609,2.933594 -10.45703,4.496094 -3.82812,1.726563 -7.59766,3.558594 -11.40625,5.328125 -4.06641,1.894531 -8.03125,3.988281 -12.0625,5.953125 -1.14844,0.5625 -2.34375,1.019532 -3.55469,1.542969 -0.0586,-0.414063 0.19922,-0.414063 0.38282,-0.511719 1.72265,-0.898437 3.4414,-1.796875 5.15234,-2.710937 0.38281,-0.203125 0.75391,-0.378907 0.75,-0.957031 0,-0.609376 0.57422,-0.78125 1.03516,-1.011719 2.30078,-1.160157 4.61328,-2.292969 6.88671,-3.503907 5.4961,-2.921874 10.97266,-5.878906 16.45313,-8.824218 3.21094,-1.726563 6.40234,-3.492188 9.63672,-5.171875 1.7539,-0.90625 3.57812,-1.695313 5.66015,-1.277344 0.64844,0.132813 1.25782,-0.226563 1.89844,-0.328125 1.9336,-0.320312 3.78516,0.01953 5.67188,0.371094 3.5625,0.664062 6.88672,2.035156 10.25,3.292968 4.23437,1.582032 8.54297,2.949219 12.8789,4.21875 0.73828,0.214844 1.46094,0.488282 2.19922,0.703126 0.65235,0.191406 1.30078,0.476562 1.9961,0.07422 0.21875,-0.128906 0.46484,-0.01563 0.69921,0.07813 1.01563,0.386719 2.09766,0.664063 3.05079,1.164063 1.17578,0.617187 2.57812,0.757812 3.57421,1.75 0.27735,0.28125 0.70313,0.113281 1.0586,0.148437 1.15625,0.117188 2.33203,0.125 3.27344,0.902344 0.40234,-0.222656 0.49609,-0.613281 0.60156,-0.933594 1.26562,-3.628906 2.54297,-7.257812 3.73437,-10.917969 1.10938,-3.390624 2.08203,-6.816406 3.17969,-10.207031 0.82813,-2.5625 1.51563,-5.164062 2.49609,-7.679687 0.39844,-1.015625 0.3125,-2.195313 0.64844,-3.261719 0.26953,-0.867187 0.4961,-1.746094 0.73828,-2.625 0.14453,-0.527344 0.44922,-0.863281 1.03125,-0.789063 0.57813,0.07031 0.66797,0.523438 0.66797,1 -0.004,1.996094 0.0977,4 -0.0742,5.988282 -0.11328,1.269531 -0.58593,2.515625 -0.98437,3.746094 -1.19531,3.695312 -2.57422,7.328124 -3.9961,10.941406 -0.21093,0.527344 -0.41015,1.070312 -0.85937,1.457031 -0.32422,0.28125 -0.41406,0.679687 -0.53906,1.070313 -1.62891,5.082031 -3.4336,10.101562 -5.21485,15.132812 -2.95703,8.34375 -5.91797,16.691413 -9.125,24.937503 -0.20703,0.52734 -0.36328,1.07422 -0.54297,1.60938 -0.62109,1.86328 -1.67187,3.48828 -2.78906,5.08593 -0.59375,0.83985 -1.07422,1.78516 -1.16015,2.8711 -0.0508,0.64062 -0.25391,1.26562 -0.36719,1.89843 -0.19531,1.07813 0.082,1.36329 1.16406,1.1211 0.70313,-0.16016 1.40625,-0.38281 2.06641,-0.67578 5.00781,-2.24219 10.19531,-4.01172 15.32812,-5.92188 3.90625,-1.44922 7.79297,-2.93359 11.67188,-4.44531 3.65625,-1.42188 7.14062,-3.19922 10.22265,-5.63672 2.0625,-1.625 4.01172,-3.41016 5.36719,-5.73047 0.19922,-0.335939 0.33984,-0.636721 0.34766,-1.000002 0.043,-1.582031 -0.0703,-3.113281 -0.57422,-4.671875 -0.46485,-1.425781 -0.89453,-2.867187 -1.32031,-4.3125 -0.70313,-2.40625 -1.66797,-4.710937 -2.58985,-7.035156 -1.39844,-3.511719 -2.80859,-7.023438 -4.24609,-10.515625 -1.26172,-3.058594 -2.59766,-6.078125 -3.85156,-9.136719 -1.19532,-2.90625 -2.33204,-5.835937 -3.48047,-8.757812 -0.31641,-0.8125 -0.58985,-1.644532 -0.86328,-2.472656 -0.12891,-0.382813 -0.28125,-0.765626 -0.15235,-1.1875 0.44141,-0.144532 0.42578,0.265624 0.53906,0.464843 1.48438,2.789063 2.66016,5.726563 4.01563,8.578125 1.07812,2.265625 2.06641,4.574219 3.08984,6.863282 0.16016,0.367187 0.28907,0.753906 0.45703,1.121093 0.11719,0.253907 0.21485,0.621094 0.41797,0.71875 1.16797,0.542969 1.42969,1.742188 1.95703,2.703125 3.25391,5.933594 6.23047,12.019532 8.9375,18.226563 1.13672,2.597656 1.94532,5.308593 2.9961,7.933593 0.0156,0.03516 0.0586,0.07422 0.0508,0.113282 -0.21875,1.238281 0.57422,2.324219 0.51562,3.535159 -0.008,0.21094 0.043,0.39453 0.11329,0.58594 0.39843,1.07812 0.36328,2.14062 -0.0859,3.21094 -1.03125,2.47265 -1.61719,5.07031 -2.29297,7.65234 -0.79297,3.04687 -1.75,6.04297 -2.73828,9.03516 -1.13281,3.41406 -2.19922,6.85156 -3.3125,10.27734 -0.4375,1.34765 -0.9336,2.67578 -1.60156,3.92969 -0.59375,1.10937 -1.13282,2.22656 -1.41797,3.47265 -0.25782,1.11328 -0.66016,1.21875 -1.73828,0.73438 -0.44141,-0.19922 -0.91797,-0.33203 -1.55079,-0.23047 0.97657,0.68359 2.02735,0.98437 3,1.3789 7.1211,2.87891 14.33204,5.50391 21.625,7.91797 3.44922,1.14063 6.91016,2.25 10.25,3.69922 0.49219,0.21485 1.29688,0.30078 1.17579,1.00391 -0.10938,0.6289 -0.89844,0.39844 -1.37891,0.51562 -0.67188,0.16407 -1.37891,0.0781 -2.07031,0.0117 -2.875,-0.28906 -5.65625,-0.96094 -8.36719,-1.96094 -3.10156,-1.14062 -6.26172,-2.13671 -9.33594,-3.34765 -3.6289,-1.41797 -7.27344,-2.81641 -10.88281,-4.29297 -2.46484,-1.01172 -4.98047,-1.92578 -7.40234,-3.02734 -2.36329,-1.07032 -4.77735,-2.03516 -7.13672,-3.12891 -1.55078,-0.71875 -3.08203,-1.49219 -4.65235,-2.16797 -1.86718,-0.80859 -3.6289,-1.87109 -5.41015,-2.87109 -1.14844,-0.64063 -2.36328,-1.14844 -3.47657,-1.86328 -1.20312,-0.77344 -2.53906,-1.35547 -3.73046,-2.15625 -1.19922,-0.8086 -2.59766,-0.97657 -3.90235,-1.38672 -1.27734,-0.40235 -2.57031,-0.75781 -3.84765,-1.16797 -0.42969,-0.13672 -0.84766,-0.39844 -1.23829,-0.0195 -0.41406,0.39844 -0.29296,0.90234 -0.13281,1.37109 0.55469,1.6875 1.07031,3.39063 1.70313,5.05078 1.61328,4.22656 3.02734,8.52735 4.75,12.71485 1.16797,2.83984 2.30078,5.69531 3.52734,8.50781 1.61719,3.71875 3.40234,7.36328 5.34766,10.92187 1.73047,3.16016 3.49218,6.3086 5.46484,9.32422 0.73438,1.125 1.76563,1.92578 2.83984,2.62891 1.16797,0.76172 2.50782,0.49609 3.78516,0.13672 2.89453,-0.80469 5.64063,-1.98438 8.375,-3.21875 4.19531,-1.89844 8.26563,-4.03516 12.37109,-6.10547 5.22266,-2.64063 10.41016,-5.35938 15.63282,-8.00391 1.98047,-1 4.01172,-1.91015 6.03515,-2.8164 0.27344,-0.125 0.625,-0.45704 0.99219,-0.0937 z M 333.53906,88.140625 c 0.0547,-3.117187 -1.07812,-5.308594 -3.69531,-6.160156 -0.38672,-0.128907 -0.75391,-0.300781 -1.13672,-0.449219 -7.74609,-3.011719 -15.64062,-5.597656 -23.45703,-8.425781 -1.83203,-0.664063 -3.70313,-1.257813 -5.67188,-1.429688 -0.49609,-0.04297 -0.98437,-0.05859 -1.45703,0.08203 -0.78906,0.226563 -1.04297,0.90625 -0.57031,1.574219 0.9375,1.339844 1.72656,2.769531 2.48047,4.210938 0.24609,0.472656 0.53125,0.921875 0.84375,1.347656 2.40234,3.304687 4.5625,6.765625 6.48047,10.371094 5.16015,9.679687 9.69922,19.675782 14.66015,29.460942 0.39844,0.79297 0.96094,1.41015 1.54688,2.01562 0.4375,0.46094 0.68359,0.41016 1.05469,-0.15625 0.44531,-0.68359 0.83203,-1.39844 1.07422,-2.1914 0.38281,-1.2461 0.76562,-2.48829 1.16796,-3.73047 1.82813,-5.6211 3.75,-11.21094 5.10157,-16.972661 0.76562,-3.257812 1.40625,-6.539062 1.58203,-9.546875 z m -20.39844,76.652345 c 0,2.05859 0.78516,3.57422 2.78125,4.4414 4.59766,1.98829 9.2461,3.85938 13.90235,5.72657 3.78125,1.51562 7.57812,2.99609 11.54687,3.94922 0.79297,0.1914 1.58985,0.375 2.40625,0.41406 0.51563,0.0273 0.91016,-0.0234 1.22266,-0.5586 0.28516,-0.49609 -0.0195,-0.75781 -0.19141,-1.09375 -0.62109,-1.19531 -1.28125,-2.36718 -1.85937,-3.58203 -3.78516,-8.03515 -7.29688,-16.17968 -10.34766,-24.53125 -2.33984,-6.39453 -4.49219,-12.84765 -6.72265,-19.27343 -0.10547,-0.30469 -0.20313,-0.61719 -0.32032,-0.92188 -0.16015,-0.41016 -0.44922,-0.72266 -0.89453,-0.72266 -0.36719,0 -0.52344,0.36719 -0.64844,0.66016 -0.28125,0.67969 -0.54687,1.36328 -0.75781,2.0625 -1.49219,4.82813 -2.92969,9.67188 -4.46094,14.48438 -1.59375,5.01562 -3.27734,9.99218 -4.90625,14.99218 -0.41796,1.28125 -0.75,2.58594 -0.7539,3.95313 z m -25.05078,-48.91406 c -0.28515,0 -0.61328,0 -0.93359,0 -1.84375,0.0156 -3.31641,0.72656 -4.33984,2.29687 -0.64063,0.99219 -1.3086,1.97266 -1.90625,2.98828 -2.31641,3.94532 -4.3125,8.04297 -6.08985,12.26172 -1.70703,4.05859 -3.3789,8.12891 -4.53906,12.38672 -0.28125,1.02344 -0.55859,2.04297 -0.71094,3.09375 -0.0781,0.51953 0.1211,0.86719 0.57031,1.09766 0.48047,0.24609 0.66407,-0.16797 0.88282,-0.42188 2.14843,-2.46094 4.7539,-4.32812 7.60547,-5.88281 3.01171,-1.63672 6.14062,-3.02735 9.3125,-4.31641 4.375,-1.78906 8.80468,-3.4414 13.15234,-5.27734 6.15234,-2.60547 12.28906,-5.2461 18.5,-7.69922 0.1875,-0.0781 0.39062,-0.13281 0.55859,-0.23828 0.44922,-0.29688 0.46875,-0.64844 0.0195,-0.95703 -0.67187,-0.45703 -1.41796,-0.8125 -2.1914,-1.06641 -2.12891,-0.70312 -4.25391,-1.41406 -6.39063,-2.0664 -6.8164,-2.07813 -13.60937,-4.22657 -20.55859,-5.85157 -0.95703,-0.22265 -1.90625,-0.46484 -2.9375,-0.34765 z m 39.63282,9.3164 c 1.44921,0.77344 2.76562,1.3086 4.1289,1.67188 5.67969,1.51562 11.17578,3.55078 16.69141,5.55078 3.63672,1.3164 7.24609,2.72656 11.02344,3.62109 1.1914,0.28516 2.39843,0.5 3.63281,0.38281 1.33594,-0.125 2.32031,-0.64062 2.91406,-2.01562 2.60547,-6.07031 5.06641,-12.19531 7.34766,-18.39844 1,-2.71484 2.05078,-5.41015 2.79297,-8.21875 0.14843,-0.55468 0.25,-1.11328 0.25,-1.6875 0,-0.24609 -0.0625,-0.48828 -0.33985,-0.59375 -0.35937,-0.14453 -1.85156,0.13672 -1.93359,0.47657 -0.17188,0.71093 -0.75781,0.92187 -1.25391,1.24218 -1.82812,1.17578 -3.8164,2.02735 -5.80859,2.85938 -1.95703,0.82422 -3.83203,1.79687 -5.91016,2.39453 -2.57031,0.73437 -5.11328,1.60937 -7.61328,2.60937 -7.44531,2.9961 -15.01953,5.66407 -22.57422,8.36719 -1.125,0.40235 -2.15625,0.94141 -3.35547,1.73438 z m -3.34375,-0.23437 c -0.875,-0.10156 -1.33985,0.11719 -1.39454,0.66015 0.46094,-0.18359 0.94922,-0.16406 1.39454,-0.66015 z m 0.87109,0.58203 c 0.18359,0.34375 0.33984,0.70312 0.84766,0.50391 0.0625,-0.0195 0.14453,-0.15235 0.1289,-0.17579 -0.18359,-0.3164 -0.45312,-0.48046 -0.83203,-0.42578 -0.0352,0.008 -0.0664,0.043 -0.14453,0.0977 z m 0,0"
       fill-opacity="1"
       fill-rule="nonzero"
       id="path351" />
  </g>
  <g
     clip-path="url(#56a12443c5)"
     id="g352"
     transform="translate(-243.64361,-45.573121)">
    <path
       fill="#0c0a0a"
       d="m 280.09766,110.60156 c -0.83594,-0.5625 -1.81641,-0.69922 -2.6875,-1.08593 -1.28125,-0.5625 -2.61329,-1 -3.92579,-1.49219 -1.84765,-0.6875 -3.6875,-1.39453 -5.54296,-2.0625 -1.9336,-0.69922 -3.8711,-1.37891 -5.8125,-2.05078 -2.75391,-0.96094 -5.50391,-1.94532 -8.28125,-2.84766 -2.01954,-0.66016 -4,-1.445312 -6.09766,-1.898438 -0.99609,-0.214843 -1.94922,-0.761718 -2.84375,-1.292968 -1.58984,-0.945313 -1.67969,-2.398438 -0.26172,-3.578125 0.47266,-0.386719 0.96094,-0.765625 1.48828,-1.070313 12.48438,-7.292968 25.13281,-14.304687 37.96485,-20.964844 1.55468,-0.808593 3.08984,-1.648437 4.6914,-2.328124 1.66406,-0.707032 3.36328,-1.363282 5.19922,-1.511719 0.94531,-0.07813 1.87891,0.04687 2.79297,0.21875 1.72266,0.332031 3.39453,0.902343 5.08203,1.363281 1.97656,0.53125 3.94531,1.101562 5.89453,1.710938 2.60938,0.8125 5.23047,1.585937 7.82422,2.453124 2.35156,0.789063 4.73828,1.507813 7.11719,2.21875 3.44531,1.027344 6.89062,2.046876 10.28515,3.222657 1.85547,0.644531 3.67579,1.378906 5.53125,2.34375 0.65625,-2.019531 1.21875,-4.007813 1.94141,-5.929688 1.27734,-3.386719 2.39453,-6.820312 3.42578,-10.28125 0.76953,-2.582031 1.70313,-5.109375 2.44922,-7.707031 0.60156,-2.097656 1.34766,-4.175781 1.98047,-6.273438 0.47656,-1.574218 0.98828,-3.125 1.58203,-4.652343 0.10156,-0.257813 0.23047,-0.523438 0.39453,-0.75 0.73438,-1.011719 1.83594,-1.046875 2.63672,-0.07813 0.62891,0.757812 1.10938,1.613281 1.57813,2.472656 2.69531,4.980469 5.22656,10.046875 7.74218,15.121094 3.59766,7.261718 7.41797,14.417968 10.8125,21.78125 1.03516,2.238281 2,4.515625 2.91016,6.8125 1.03516,2.625 1.99219,5.285156 2.9375,7.945321 0.51172,1.42187 0.39844,2.89062 0.0508,4.34375 -1.08203,4.51562 -2.49609,8.9414 -3.90234,13.36328 -1.65625,5.17578 -3.32422,10.34764 -5.09766,15.47656 -0.83984,2.41406 -1.51562,4.89453 -2.67187,7.24609 1.03906,0.76172 2.29296,0.9375 3.39453,1.44532 0.97656,0.45703 2.04687,0.69531 3.05078,1.09765 1.69922,0.6836 3.42187,1.3125 5.14453,1.9375 1.69531,0.61719 3.36328,1.3086 5.04687,1.94922 1.52735,0.57422 3.07422,1.10547 4.60547,1.66797 1.28516,0.46875 2.5586,0.96093 3.84766,1.43359 0.92578,0.34375 1.87109,0.64453 2.78516,1.01562 1.55468,0.64063 3.14453,1.1914 4.71484,1.78907 1.40234,0.53125 1.60156,1.89843 0.51172,2.92968 -0.46875,0.4414 -1.02344,0.80469 -1.5625,1.17188 -11.5586,7.82812 -23.75391,14.55469 -36.04297,21.12891 -2.98047,1.59375 -6.00781,3.09765 -8.98828,4.6875 -1.62891,0.86718 -3.30078,1.02343 -5.09375,0.70312 -2.53516,-0.46093 -4.98828,-1.21875 -7.46485,-1.91796 -3.16796,-0.89844 -6.22656,-2.1211 -9.34765,-3.14063 -1.9961,-0.64844 -3.92969,-1.45312 -5.94531,-2.04687 -1.47266,-0.4336 -2.86719,-1.10938 -4.33204,-1.55079 -3.34765,-1.01171 -6.60156,-2.29296 -9.91796,-3.39062 -0.73438,-0.2461 -1.44532,-0.55079 -2.15625,-0.84766 -0.78125,-0.32031 -0.79688,-0.32031 -1.09375,0.48047 -1.96485,5.35937 -3.64844,10.8125 -5.51172,16.20703 -0.94532,2.73047 -1.78907,5.49219 -2.60938,8.25391 -0.82031,2.76562 -1.67578,5.52734 -2.41797,8.32031 -0.17578,0.67969 -0.30859,1.40235 -1.1875,1.4961 -0.86328,0.0977 -1.49218,-0.33594 -1.94531,-1.02735 -1.6875,-2.54297 -3.48047,-5.02344 -5.03125,-7.66015 -4.69531,-7.98047 -8.97266,-16.1836 -13.21875,-24.40235 -2.83984,-5.5 -5.65625,-11.01563 -8.48437,-16.52735 -0.5586,-1.08593 -0.96875,-2.23437 -1.4336,-3.36328 -0.11719,-0.29297 -0.0976,-0.54687 -0.125,-0.82032 -0.17187,-1.64062 0.14844,-3.21093 0.56641,-4.78906 0.92578,-3.45703 2.10937,-6.83203 3.1875,-10.23437 0.88281,-2.80469 1.91015,-5.55078 2.90625,-8.30469 0.80859,-2.23828 1.70703,-4.45703 2.53906,-6.6875 0.6875,-1.84375 1.40625,-3.67578 2.10156,-5.51562 0.72266,-1.91797 1.44922,-3.84766 2.32422,-5.7461 z m 44.61718,15.24219 c 0.7461,1.94922 1.53516,3.53906 2.0625,5.23437 2.01953,6.5 3.9336,13.03907 6.39453,19.39454 0.82032,2.12109 1.44922,4.32031 2.39454,6.3789 1.1875,2.58594 2.1914,5.24219 3.39062,7.82422 1.72266,3.69141 3.37891,7.41016 5.35156,10.98047 0.88672,1.60547 1.83203,3.17578 2.98828,4.60937 0.78125,0.96485 1.69532,1.78125 2.84375,2.26563 0.77344,0.32812 1.59766,0.51562 2.44532,0.11719 2.13672,-1 4.28515,-1.98047 6.35156,-3.125 5.44922,-3.01563 10.89453,-6.04688 16.33984,-9.07422 7.22657,-4.02344 14.40235,-8.12891 21.44922,-12.45703 1.00391,-0.61719 1.98438,-1.28125 2.96485,-1.94532 0.5,-0.33593 0.82812,-0.75781 0.49609,-1.53125 -0.53125,0.4961 -1.14453,0.67188 -1.79297,0.75 -1.26953,0.16407 -2.56641,-0.0117 -3.75,-0.30468 -1.58203,-0.39453 -3.17969,-0.77735 -4.72656,-1.33594 -2.92969,-1.06641 -5.91016,-2.00391 -8.85938,-3.02344 -2.57422,-0.89453 -5.14453,-1.82031 -7.67578,-2.85156 -3.5,-1.42969 -7.03906,-2.77344 -10.47656,-4.36719 -3.30859,-1.53515 -6.64453,-3.01172 -9.96484,-4.51562 -5.5586,-2.51172 -11.00782,-5.25 -16.61719,-7.64844 -2.82031,-1.20313 -5.51172,-2.71094 -8.28125,-4.03516 -0.98047,-0.47265 -2.01563,-0.82031 -3.31641,-1.33984 z m -30.01953,77.22656 c 0.21875,-1.5664 0.45313,-3.0039 0.84375,-4.42969 1.04688,-3.78906 2.39063,-7.47656 3.66406,-11.19531 1.92188,-5.59375 3.78125,-11.20312 5.69141,-16.80469 1.16797,-3.42968 2.35938,-6.84765 3.69922,-10.21875 0.75,-1.88671 1.42578,-3.8164 2.23437,-5.66406 1.05469,-2.40625 2.04688,-4.83594 3.08985,-7.24609 2.45703,-5.67578 4.85156,-11.38281 7.43359,-17 0.69141,-1.50391 1.36328,-3.00781 2.03906,-4.48828 -0.22265,-0.1875 -0.38281,-0.11719 -0.52734,-0.0547 -3.76562,1.55078 -7.65625,2.77344 -11.45312,4.23437 -1.28516,0.4961 -2.6211,0.89063 -3.88282,1.41407 -2.28906,0.95703 -4.60156,1.86328 -6.89062,2.83203 -5.64063,2.39453 -11.26563,4.83594 -16.73047,7.61719 -3.92578,1.99609 -7.79688,4.07812 -11.26953,6.82421 -1.51563,1.19922 -2.88281,2.52344 -3.73828,4.29297 -0.40625,0.83203 -0.50782,1.60547 -0.0312,2.4961 4.4375,8.34765 8.83593,16.71484 13.25781,25.07031 3.75,7.09375 7.49219,14.19922 11.72656,21.03125 0.26953,0.43359 0.5625,0.85547 0.84375,1.28125 z m 30.01172,-78.48047 c 0.48438,0.15235 0.73828,0.0234 1.00781,-0.0664 1.76563,-0.60156 3.53125,-1.20703 5.30469,-1.80469 2.96484,-1 5.93359,-1.98047 8.88672,-2.99609 3.72656,-1.28125 7.45312,-2.57813 11.16406,-3.89844 2.75781,-0.98438 5.51563,-1.99219 8.25,-3.04688 2.1836,-0.84765 4.34375,-1.77343 6.49219,-2.71484 2.12891,-0.94141 4.20312,-1.94141 6.20312,-3.10547 1.5586,-0.90234 2.9961,-1.96875 4.26172,-3.26172 0.66016,-0.67187 1.21094,-1.42578 1.61328,-2.28515 0.1836,-0.39453 0.21485,-0.74219 0.0547,-1.16407 -0.74219,-2.003902 -1.40625,-4.035152 -2.18359,-6.019528 -0.59766,-1.527343 -1.30469,-3.011718 -1.98438,-4.503906 -1.20312,-2.640625 -2.36328,-5.308594 -3.64843,-7.910156 C 364.58203,70.601562 359,59.414062 353.42187,48.214844 c -0.17578,-0.347656 -0.25781,-0.789063 -0.71484,-0.925782 -0.16016,0.242188 -0.0586,0.484376 0,0.710938 0.23047,1.015625 0.15625,2.015625 0.008,3.035156 -0.3164,2.175782 -1.10937,4.210938 -1.875,6.238282 -0.82812,2.207031 -1.70703,4.402343 -2.51172,6.605468 -0.82812,2.261719 -1.66406,4.527344 -2.41796,6.820313 -0.82422,2.484375 -1.74219,4.945312 -2.61329,7.417969 -1.02734,2.894531 -2.01562,5.796874 -3.08203,8.671874 -0.74609,2.007813 -1.43359,4.027344 -2.18359,6.027344 -0.53125,1.425782 -1.01172,2.886719 -1.53906,4.320313 -0.45313,1.234375 -0.95313,2.480469 -1.38282,3.714841 -0.82421,2.38282 -1.75,4.73438 -2.6914,7.06641 -1.01172,2.48828 -2.02735,4.98047 -3.19141,7.42187 -1.16015,2.41797 -2.3125,4.83985 -3.53125,7.22657 -0.32812,0.64453 -0.63281,1.30078 -0.98047,2.02734 z M 244.72656,96.328125 c 1.8125,-0.199219 3.54297,0 5.3086,0.394531 3.09765,0.679688 6.19531,1.296875 9.2539,2.164063 2.625,0.746093 5.26563,1.468751 7.8711,2.292971 4.58593,1.44531 9.11718,3.04297 13.60156,4.79687 2.01172,0.78516 4.05859,1.5 6.08203,2.25782 2.23437,0.83203 4.47656,1.66796 6.66016,2.6289 2.92578,1.28516 5.92187,2.38672 8.83984,3.6836 2.36719,1.05078 4.75391,2.07812 7.14453,3.09375 1.67188,0.71093 3.28516,1.58984 4.94531,2.33203 2.7461,1.23828 5.4336,2.5625 8.06641,4.01562 0.21484,0.11719 0.41016,0.27344 0.63281,0.3711 0.37891,0.16406 0.57813,-0.0664 0.54297,-0.39844 -0.043,-0.35547 -0.19531,-0.70313 -0.3125,-1.04688 -0.80078,-2.39843 -1.85156,-4.69531 -2.96484,-6.96093 C 313.95703,102.85938 306.97266,90.0625 299.57031,77.484375 298.66406,75.9375 297.69531,74.425781 296.60156,73 c -0.69531,-0.90625 -1.43359,-1.773438 -2.3789,-2.445312 -0.36719,-0.257813 -0.73829,-0.472657 -1.21485,-0.507813 -1.14844,-0.08203 -2.25781,0.113281 -3.26562,0.628906 -4.9961,2.554688 -9.99219,5.113281 -14.95313,7.738281 -9.3164,4.933594 -18.64844,9.839844 -27.75781,15.152344 -0.59766,0.347656 -1.22266,0.671875 -1.72656,1.148438 -0.44922,0.429687 -0.83203,0.898437 -0.56641,1.609375 z M 294.8125,69.601562 c 2.20312,1.535157 3.50781,3.59375 4.82422,5.640626 0.22265,0.34375 0.42969,0.695312 0.64453,1.042968 2.43359,4 4.69922,8.105469 6.95703,12.207032 4.58594,8.335937 9.125,16.703122 13.21094,25.304692 0.28906,0.61328 0.49609,1.27343 0.80469,1.875 0.72656,1.38281 1.19921,2.86328 1.76171,4.3125 0.47657,1.22656 0.91407,2.45703 1.16016,3.82421 0.38672,-0.3164 0.42578,-0.64453 0.53906,-0.93359 0.66407,-1.67578 1.10938,-3.42187 1.75,-5.10547 1.60938,-4.20312 2.8086,-8.54687 4.34375,-12.77734 1.38672,-3.81641 2.60938,-7.691409 3.89063,-11.550784 1.10937,-3.355468 2.19922,-6.71875 3.28906,-10.078125 0.25,-0.773437 0.25,-0.785156 -0.46875,-0.996093 -2.28516,-0.65625 -4.53125,-1.449219 -6.77734,-2.238282 -2.3711,-0.839844 -4.77735,-1.574218 -7.17578,-2.335937 -2.14063,-0.675781 -4.28907,-1.371094 -6.42969,-2.082031 -2.63281,-0.871094 -5.28516,-1.695313 -7.94922,-2.46875 -2.27734,-0.664063 -4.5625,-1.308594 -6.82031,-2.015626 -1.95703,-0.617187 -3.96485,-1.046874 -5.92969,-1.613281 C 296,69.484375 295.51172,69.3125 294.80469,69.601562 Z m -26.82031,83.746098 c 0.5625,-1.48047 1.3125,-2.48438 2.19531,-3.39454 1.72656,-1.76171 3.73047,-3.15625 5.79297,-4.47265 5.19531,-3.3125 10.79297,-5.86328 16.33594,-8.49219 2.7539,-1.30859 5.61328,-2.43359 8.45312,-3.57422 1.65625,-0.66406 3.28906,-1.42187 4.95703,-2.02734 2.48438,-0.89063 4.92578,-1.91406 7.44531,-2.71094 2.90235,-0.91797 5.76563,-1.98437 8.6875,-2.85156 0.24219,-0.0703 0.75782,0.0234 0.89844,-0.49609 -0.51562,-0.30469 -1.10937,-0.26954 -1.61328,-0.46875 -2.43359,-0.94922 -4.99219,-1.50782 -7.45312,-2.37891 -3.77344,-1.34375 -7.60157,-2.52344 -11.39063,-3.84766 -2.92578,-1.02734 -5.85156,-2.0625 -8.77734,-3.09375 -2.1836,-0.77734 -4.37891,-1.57422 -6.53125,-2.46093 -1.73828,-0.71875 -3.53516,-1.3125 -5.29688,-1.99219 -0.55469,-0.21485 -0.65234,0.1914 -0.76562,0.5 -0.65235,1.85547 -1.55469,3.61719 -2.1875,5.45703 -0.89844,2.62109 -2.00782,5.15625 -2.92969,7.76172 -1.16797,3.30468 -2.61328,6.52343 -3.67578,9.86718 -0.85156,2.67969 -1.95313,5.26954 -2.66797,7.9961 -0.66797,2.54687 -1.66797,5.0039 -1.88672,7.66406 -0.0781,0.94531 -0.0273,1.86328 0.40625,3.01172 z m 56.34375,-26.50782 c -0.0859,-0.004 -0.17578,-0.0117 -0.26172,-0.0195 -0.94141,2.70313 -1.76563,5.44531 -2.76172,8.12891 -0.96094,2.60547 -1.76172,5.26562 -2.74219,7.85937 -0.63672,1.69141 -1.27344,3.39844 -1.85547,5.10157 -0.9414,2.74609 -1.92968,5.46875 -2.8789,8.21093 -0.94532,2.72266 -1.96875,5.41407 -2.88282,8.15235 -0.53515,1.60547 -1.08984,3.21484 -1.71093,4.79297 -0.21875,0.55468 0.0469,0.80468 0.42578,0.84765 0.90234,0.0937 1.6875,0.50391 2.53125,0.73828 2.82422,0.79688 5.49609,2.01563 8.28515,2.91016 1.78516,0.57031 3.52735,1.32031 5.29688,1.92969 1.78125,0.61328 3.53906,1.29297 5.33203,1.86328 2.29297,0.72265 4.55859,1.54297 6.78906,2.43359 1.88672,0.75781 3.89453,1.11719 5.79688,1.83985 0.82031,0.30859 1.73047,0.63281 2.66797,0.67578 0.19531,0.0117 0.41015,0.13281 0.55859,-0.0586 0.19922,-0.26562 -0.0312,-0.44531 -0.18359,-0.6289 -1.28125,-1.55078 -2.25,-3.29688 -3.15625,-5.07813 -1.00391,-1.98828 -1.95313,-3.99609 -2.89844,-6.01562 -1.28906,-2.7461 -2.48438,-5.54297 -3.65234,-8.33594 -0.92969,-2.20703 -1.85157,-4.4375 -2.6836,-6.69922 -1.16406,-3.17578 -2.41015,-6.31641 -3.5039,-9.51562 -1.41797,-4.16016 -2.76954,-8.34766 -4.17579,-12.51172 -0.7539,-2.22266 -1.55468,-4.42188 -2.32812,-6.63281 z m 54.0039,-24.0664 c -0.16406,-0.0156 -0.23437,0.0586 -0.30078,0.17187 -0.88672,1.55078 -2.17969,2.74219 -3.57812,3.8125 -2.07813,1.59766 -4.36719,2.84375 -6.73438,3.94532 -3.02344,1.40625 -6.13672,2.58984 -9.25781,3.76171 -2.625,0.98829 -5.27734,1.87891 -7.89453,2.88672 -3.14063,1.20313 -6.39844,2.04688 -9.55078,3.23047 -2.70313,1.01563 -5.45313,1.91406 -8.21485,2.76563 -1.94531,0.60156 -3.84765,1.35156 -5.88672,1.61718 -0.28125,0.0391 -0.69531,0.125 -0.90625,0.40625 0.0742,0.30469 0.3086,0.31641 0.47657,0.39063 2.61718,1.18359 5.35156,2.05469 8.04687,3.02344 2.41797,0.86718 4.84766,1.72656 7.25781,2.61328 1.56641,0.57812 3.12891,1.21484 4.69532,1.78515 1.68359,0.61719 3.38672,1.22266 5.05468,1.875 1.97657,0.77735 3.98829,1.46094 5.94532,2.29297 1.86328,0.78906 3.79687,1.45313 5.70703,2.14844 0.89062,0.32422 1.76562,0.75 2.71094,0.96484 0.30468,0.0703 0.49218,0.0391 0.55468,-0.23437 0.26953,-1.22656 0.92188,-2.29297 1.34375,-3.46094 0.83203,-2.34766 1.70703,-4.67578 2.50391,-7.03516 1.43359,-4.23828 2.84766,-8.48046 4.17969,-12.74999 1.11718,-3.57032 2.21484,-7.14454 3.22656,-10.7461 0.31641,-1.1289 0.6875,-2.26172 0.61719,-3.46484 z m -132.8125,-5.769534 c 0.42578,0.4375 0.85547,0.578125 1.25782,0.714844 0.79687,0.265625 1.61718,0.464844 2.42187,0.703125 2.37891,0.71875 4.76953,1.414063 7.13672,2.175785 4.21875,1.35156 8.36719,2.89843 12.52734,4.42578 2.29688,0.83984 4.57813,1.73047 6.88282,2.55078 2.03125,0.72656 4.03125,1.56641 6.05078,2.34375 2.35156,0.91016 4.6875,1.86328 7.0664,2.68359 2.30078,0.79688 4.5586,1.71485 6.85938,2.51172 2.13281,0.73828 4.23047,1.59375 6.34375,2.37891 2.28125,0.84765 4.59765,1.625 6.89844,2.42969 3.03515,1.0625 6.0625,2.16015 9.10546,3.21093 0.28907,0.10157 0.60157,0.37891 1,0.21094 -0.0937,-0.0977 -0.13281,-0.17969 -0.20703,-0.21484 -4.91406,-2.41797 -9.86718,-4.73828 -14.94531,-6.80078 -2.44141,-0.98829 -4.86719,-2 -7.30469,-3.00391 -2.5664,-1.05859 -5.14843,-2.07422 -7.71484,-3.12891 -2.36719,-0.97656 -4.80078,-1.78906 -7.17578,-2.73828 -1.67188,-0.66797 -3.35156,-1.32031 -5.04688,-1.91797 -1.42968,-0.5 -2.8789,-1 -4.27734,-1.55078 -2.21875,-0.87109 -4.5,-1.52344 -6.73438,-2.32422 -2.96093,-1.05859 -5.98046,-1.929685 -9.03125,-2.675779 -2.89062,-0.703125 -5.76953,-1.449219 -8.71875,-1.878906 -0.74609,-0.105469 -1.48828,-0.226563 -2.40234,-0.117187 z m 50.5625,104.902344 c 0.0234,0.57031 -0.004,1.01953 0.14453,1.45312 0.0859,0.25391 0.19922,0.42579 0.50391,0.40235 0.26172,-0.0273 0.3125,-0.19922 0.35938,-0.40235 0.1914,-0.82421 0.39843,-1.64453 0.59765,-2.46093 1.04688,-4.29297 2.42188,-8.4961 3.73438,-12.71094 1.45312,-4.6875 3.21484,-9.26953 4.77734,-13.92188 0.63672,-1.91406 1.32422,-3.8125 1.98438,-5.71484 0.66796,-1.94141 1.36718,-3.875 2.09375,-5.80078 0.47656,-1.27734 0.9414,-2.55859 1.39062,-3.84766 0.54688,-1.5625 1.16406,-3.09375 1.73438,-4.64453 0.33203,-0.89844 0.60937,-1.8125 0.9414,-2.70703 0.5625,-1.51172 1.15235,-3.01172 1.71485,-4.52734 0.73046,-1.96094 1.4375,-3.92578 2.15234,-5.89063 0.63281,-1.73437 1.26953,-3.47265 1.89844,-5.20703 0.0781,-0.21094 0.26172,-0.48047 -0.11328,-0.57031 -0.19141,-0.0469 -0.33594,0.10937 -0.42579,0.33594 -0.9414,2.29296 -1.85937,4.59375 -2.85546,6.86718 -1.19922,2.72266 -2.30469,5.49219 -3.42188,8.24219 -1.13281,2.78125 -2.29687,5.55859 -3.375,8.37109 -0.66406,1.72657 -1.42969,3.4375 -2.03516,5.16797 -0.94531,2.6836 -1.96875,5.34375 -2.83203,8.0625 -0.91015,2.875 -1.99609,5.6875 -2.94922,8.54688 -1.97656,5.91015 -4.0664,11.78125 -5.57031,17.83984 -0.26172,1.06641 -0.32031,2.15235 -0.45312,3.11328 z m 33.28907,-89.66406 c 0.49218,-0.0273 0.54687,-0.25781 0.61328,-0.42969 0.3789,-0.98437 0.73047,-2 1.17968,-2.92578 1.07032,-2.19922 1.85157,-4.51172 2.77344,-6.76172 0.92969,-2.261719 1.70313,-4.601562 2.57813,-6.886719 0.93359,-2.429687 1.78515,-4.890625 2.67968,-7.335937 0.85938,-2.347656 1.63282,-4.742188 2.48047,-7.089844 0.86719,-2.421875 1.65235,-4.875 2.56641,-7.285156 1.17578,-3.089844 2.09766,-6.269532 3.25781,-9.363282 0.81641,-2.171874 1.50391,-4.382812 2.26563,-6.574218 0.79297,-2.296875 1.63672,-4.601563 1.86718,-7.058594 0.11719,-1.25 0.10547,-2.496094 -0.47656,-3.824219 -6.78515,22.078125 -14.29297,43.742188 -21.78515,65.527349 z m 70.21093,42.0039 c 0.0234,-0.35156 -0.14453,-0.36328 -0.29687,-0.41406 -1.28516,-0.41406 -2.57813,-0.81641 -3.85547,-1.25 -2.89063,-0.97656 -5.81641,-1.86719 -8.65234,-2.98437 -2.34375,-0.92579 -4.69922,-1.8086 -7.03516,-2.73829 -2.45703,-0.98046 -4.92578,-1.92968 -7.42188,-2.8125 -1.88671,-0.66796 -3.76953,-1.36328 -5.63281,-2.08593 -1.49219,-0.58203 -3.02344,-1.09766 -4.49219,-1.76172 -1.38281,-0.625 -2.83593,-1.08203 -4.2539,-1.62891 -1.38281,-0.52734 -2.74219,-1.1289 -4.14063,-1.58203 -1.35547,-0.44531 -2.64453,-1.06641 -3.99218,-1.53125 -1.13672,-0.39453 -2.25,-0.86719 -3.375,-1.3125 -0.19141,-0.0781 -0.41407,-0.19531 -0.50782,0.0703 -0.0898,0.25 0.17969,0.31641 0.33594,0.41797 0.64063,0.42578 1.39063,0.625 2.0625,0.96094 1.88281,0.94531 3.78906,1.89062 5.71094,2.72266 3.125,1.33984 6.1875,2.80468 9.29297,4.17578 2.03515,0.89843 4.0625,1.85547 6.12109,2.67187 2.98828,1.19141 5.96484,2.44531 9.00391,3.51953 1.85547,0.65235 3.63672,1.51172 5.51172,2.06641 2.24609,0.66406 4.42968,1.51953 6.6914,2.13281 1.82031,0.4961 3.62891,1.04297 5.5,1.32422 1.14063,0.16797 2.29297,0.30469 3.41406,0.0391 z m -52.44922,28.1875 c 0.0274,-0.0312 0.0547,-0.0547 0.0781,-0.082 -0.0508,-0.0234 -0.10156,-0.0586 -0.15234,-0.0742 -0.0195,0 -0.0508,0.043 -0.0742,0.0703 0.0508,0.0312 0.0976,0.0547 0.14843,0.0859 z m 0,0"
       fill-opacity="1"
       fill-rule="nonzero"
       id="path352" />
  </g>
</svg>
